<?xml version="1.0" encoding="UTF-8" standalone="no"?>
<!DOCTYPE svg PUBLIC "-//W3C//DTD SVG 1.1//EN"
 "http://www.w3.org/Graphics/SVG/1.1/DTD/svg11.dtd">
<!-- Generated by graphviz version 2.38.0 (20140413.2041)
 -->
<!-- Title: controllers_diagram Pages: 1 -->
<svg width="1910pt" height="1282pt"
 viewBox="0.00 0.00 1909.77 1281.50" xmlns="http://www.w3.org/2000/svg" xmlns:xlink="http://www.w3.org/1999/xlink">
<g id="graph0" class="graph" transform="scale(1 1) rotate(0) translate(979.141 677.5)">
<title>controllers_diagram</title>
<polygon fill="white" stroke="none" points="-979.141,604 -979.141,-677.5 930.629,-677.5 930.629,604 -979.141,604"/>
<!-- _diagram_info -->
<g id="node1" class="node"><title>_diagram_info</title>
<text text-anchor="start" x="308.312" y="-659.1" font-family="Times,serif" font-size="13.00">Controllers diagram</text>
<text text-anchor="start" x="308.312" y="-646.1" font-family="Times,serif" font-size="13.00">Date: Oct 15 2014 &#45; 11:49</text>
<text text-anchor="start" x="308.312" y="-633.1" font-family="Times,serif" font-size="13.00">Migration version: 20140925103916</text>
<text text-anchor="start" x="308.312" y="-620.1" font-family="Times,serif" font-size="13.00">Generated by RailRoady 1.1.1</text>
<text text-anchor="start" x="308.312" y="-607.1" font-family="Times,serif" font-size="13.00">http://railroady.prestonlee.com</text>
</g>
<!-- AlarmNotificationsController -->
<g id="node2" class="node"><title>AlarmNotificationsController</title>
<ellipse fill="none" stroke="black" cx="-836.749" cy="473.665" rx="114.978" ry="18"/>
<text text-anchor="middle" x="-836.749" y="477.865" font-family="Times,serif" font-size="14.00">AlarmNotificationsController</text>
</g>
<!-- AlarmsController -->
<g id="node3" class="node"><title>AlarmsController</title>
<ellipse fill="none" stroke="black" cx="537.595" cy="21.7913" rx="72.4808" ry="18"/>
<text text-anchor="middle" x="537.595" y="25.9913" font-family="Times,serif" font-size="14.00">AlarmsController</text>
</g>
<!-- Api::CarManufacturersController -->
<g id="node4" class="node"><title>Api::CarManufacturersController</title>
<ellipse fill="none" stroke="black" cx="-41.5477" cy="506.581" rx="128.934" ry="18"/>
<text text-anchor="middle" x="-41.5477" y="510.781" font-family="Times,serif" font-size="14.00">Api::CarManufacturersController</text>
</g>
<!-- Api::CarModelsController -->
<g id="node5" class="node"><title>Api::CarModelsController</title>
<ellipse fill="none" stroke="black" cx="-356.425" cy="-423.955" rx="103.87" ry="18"/>
<text text-anchor="middle" x="-356.425" y="-419.755" font-family="Times,serif" font-size="14.00">Api::CarModelsController</text>
</g>
<!-- Api::CarTypesController -->
<g id="node6" class="node"><title>Api::CarTypesController</title>
<ellipse fill="none" stroke="black" cx="350.75" cy="86.8805" rx="98.2981" ry="18"/>
<text text-anchor="middle" x="350.75" y="91.0805" font-family="Times,serif" font-size="14.00">Api::CarTypesController</text>
</g>
<!-- Api::CarsController -->
<g id="node7" class="node"><title>Api::CarsController</title>
<ellipse fill="none" stroke="black" cx="-223.353" cy="125.094" rx="80.6921" ry="18"/>
<text text-anchor="middle" x="-223.353" y="129.294" font-family="Times,serif" font-size="14.00">Api::CarsController</text>
</g>
<!-- Api::CompaniesController -->
<g id="node8" class="node"><title>Api::CompaniesController</title>
<ellipse fill="none" stroke="black" cx="-524.827" cy="486.819" rx="104.354" ry="18"/>
<text text-anchor="middle" x="-524.827" y="491.019" font-family="Times,serif" font-size="14.00">Api::CompaniesController</text>
</g>
<!-- Api::DeviceManufacturersController -->
<g id="node9" class="node"><title>Api::DeviceManufacturersController</title>
<ellipse fill="none" stroke="black" cx="524.953" cy="251.519" rx="141.478" ry="18"/>
<text text-anchor="middle" x="524.953" y="255.719" font-family="Times,serif" font-size="14.00">Api::DeviceManufacturersController</text>
</g>
<!-- Api::DeviceModelsController -->
<g id="node10" class="node"><title>Api::DeviceModelsController</title>
<ellipse fill="none" stroke="black" cx="-153.429" cy="312.815" rx="116.414" ry="18"/>
<text text-anchor="middle" x="-153.429" y="317.015" font-family="Times,serif" font-size="14.00">Api::DeviceModelsController</text>
</g>
<!-- Api::DeviceTypesController -->
<g id="node11" class="node"><title>Api::DeviceTypesController</title>
<ellipse fill="none" stroke="black" cx="301.206" cy="296.071" rx="110.842" ry="18"/>
<text text-anchor="middle" x="301.206" y="300.271" font-family="Times,serif" font-size="14.00">Api::DeviceTypesController</text>
</g>
<!-- Api::DevicesController -->
<g id="node12" class="node"><title>Api::DevicesController</title>
<ellipse fill="none" stroke="black" cx="69.3708" cy="318.354" rx="93.236" ry="18"/>
<text text-anchor="middle" x="69.3708" y="322.554" font-family="Times,serif" font-size="14.00">Api::DevicesController</text>
</g>
<!-- Api::GroupsController -->
<g id="node13" class="node"><title>Api::GroupsController</title>
<ellipse fill="none" stroke="black" cx="-884.468" cy="-48.5297" rx="90.8481" ry="18"/>
<text text-anchor="middle" x="-884.468" y="-44.3297" font-family="Times,serif" font-size="14.00">Api::GroupsController</text>
</g>
<!-- Api::SimcardsController -->
<g id="node14" class="node"><title>Api::SimcardsController</title>
<ellipse fill="none" stroke="black" cx="800.56" cy="171.682" rx="97.5967" ry="18"/>
<text text-anchor="middle" x="800.56" y="175.882" font-family="Times,serif" font-size="14.00">Api::SimcardsController</text>
</g>
<!-- Api::TeleprovidersController -->
<g id="node15" class="node"><title>Api::TeleprovidersController</title>
<ellipse fill="none" stroke="black" cx="552.434" cy="-195.062" rx="113.256" ry="18"/>
<text text-anchor="middle" x="552.434" y="-190.862" font-family="Times,serif" font-size="14.00">Api::TeleprovidersController</text>
</g>
<!-- Api::UsersController -->
<g id="node16" class="node"><title>Api::UsersController</title>
<ellipse fill="none" stroke="black" cx="58.55" cy="-436.861" rx="84.5514" ry="18"/>
<text text-anchor="middle" x="58.55" y="-432.661" font-family="Times,serif" font-size="14.00">Api::UsersController</text>
</g>
<!-- ApplicationController -->
<g id="node17" class="node"><title>ApplicationController</title>
<ellipse fill="none" stroke="black" cx="43.6734" cy="44.5794" rx="88.417" ry="18"/>
<text text-anchor="middle" x="43.6734" y="48.7794" font-family="Times,serif" font-size="14.00">ApplicationController</text>
</g>
<!-- ApplicationController&#45;&gt;AlarmNotificationsController -->
<g id="edge1" class="edge"><title>ApplicationController&#45;&gt;AlarmNotificationsController</title>
<path fill="none" stroke="black" d="M9.45485,61.228C-66.294,98.0853 -253.877,189.372 -410.892,265.898 -555.83,336.538 -728.461,420.8 -801.421,456.417"/>
</g>
<!-- ApplicationController&#45;&gt;AlarmsController -->
<g id="edge2" class="edge"><title>ApplicationController&#45;&gt;AlarmsController</title>
<path fill="none" stroke="black" d="M129.99,40.597C225.393,36.1954 377.296,29.187 466.24,25.0835"/>
</g>
<!-- ApplicationController&#45;&gt;Api::CarManufacturersController -->
<g id="edge3" class="edge"><title>ApplicationController&#45;&gt;Api::CarManufacturersController</title>
<path fill="none" stroke="black" d="M45.1821,62.7376C46.7213,86.9365 47.8692,130.94 39.7504,167.373 23.839,238.774 -7.50824,247.602 -25.3426,318.547 -40.64,379.4 -42.119,454.43 -41.8932,488.375"/>
</g>
<!-- ApplicationController&#45;&gt;Api::CarModelsController -->
<g id="edge4" class="edge"><title>ApplicationController&#45;&gt;Api::CarModelsController</title>
<path fill="none" stroke="black" d="M30.4515,26.77C-2.30072,-17.1033 -90.3022,-133.516 -169.77,-225.629 -229.225,-294.546 -304.806,-371.959 -338.643,-406.122"/>
</g>
<!-- ApplicationController&#45;&gt;Api::CarTypesController -->
<g id="edge5" class="edge"><title>ApplicationController&#45;&gt;Api::CarTypesController</title>
<path fill="none" stroke="black" d="M116.836,54.6578C163.58,61.097 224.166,69.4429 271.965,76.0275"/>
</g>
<!-- ApplicationController&#45;&gt;Api::CarsController -->
<g id="edge6" class="edge"><title>ApplicationController&#45;&gt;Api::CarsController</title>
<path fill="none" stroke="black" d="M-5.92645,59.5348C-54.1903,74.0873 -127.057,96.0581 -174.919,110.49"/>
</g>
<!-- ApplicationController&#45;&gt;Api::CompaniesController -->
<g id="edge7" class="edge"><title>ApplicationController&#45;&gt;Api::CompaniesController</title>
<path fill="none" stroke="black" d="M16.9951,61.8127C-18.5316,84.9962 -83.0415,127.914 -135.942,167.627 -281.233,276.7 -447.151,419.246 -504.263,468.866"/>
</g>
<!-- ApplicationController&#45;&gt;Api::DeviceManufacturersController -->
<g id="edge8" class="edge"><title>ApplicationController&#45;&gt;Api::DeviceManufacturersController</title>
<path fill="none" stroke="black" d="M81.8409,60.9905C171.218,99.4204 393.41,194.958 484.759,234.236"/>
</g>
<!-- ApplicationController&#45;&gt;Api::DeviceModelsController -->
<g id="edge9" class="edge"><title>ApplicationController&#45;&gt;Api::DeviceModelsController</title>
<path fill="none" stroke="black" d="M2.4293,60.6386C-39.9162,79.463 -104,114.942 -135.942,167.627 -160.291,207.791 -158.58,265.727 -155.758,294.774"/>
</g>
<!-- ApplicationController&#45;&gt;Api::DeviceTypesController -->
<g id="edge10" class="edge"><title>ApplicationController&#45;&gt;Api::DeviceTypesController</title>
<path fill="none" stroke="black" d="M46.2915,62.8642C50.5914,87.3581 61.1391,131.126 84.6137,160.424 131.083,218.421 209.467,258.595 258.108,279.439"/>
</g>
<!-- ApplicationController&#45;&gt;Api::DevicesController -->
<g id="edge11" class="edge"><title>ApplicationController&#45;&gt;Api::DevicesController</title>
<path fill="none" stroke="black" d="M45.3994,62.9676C50.0808,112.842 62.9798,250.265 67.6523,300.045"/>
</g>
<!-- ApplicationController&#45;&gt;Api::GroupsController -->
<g id="edge12" class="edge"><title>ApplicationController&#45;&gt;Api::GroupsController</title>
<path fill="none" stroke="black" d="M-35.8606,36.6007C-210.711,19.06 -626.98,-22.6991 -803.312,-40.3884"/>
</g>
<!-- ApplicationController&#45;&gt;Api::SimcardsController -->
<g id="edge13" class="edge"><title>ApplicationController&#45;&gt;Api::SimcardsController</title>
<path fill="none" stroke="black" d="M97.4804,58.946C145.313,71.3361 217.284,89.048 280.689,100.866 432.919,129.24 612.22,151.158 715.509,162.682"/>
</g>
<!-- ApplicationController&#45;&gt;Api::TeleprovidersController -->
<g id="edge14" class="edge"><title>ApplicationController&#45;&gt;Api::TeleprovidersController</title>
<path fill="none" stroke="black" d="M104.22,31.2898C151.091,20.0123 217.098,1.94889 272.256,-21.3849 374.771,-64.7526 483.243,-142.476 529.443,-177.316"/>
</g>
<!-- ApplicationController&#45;&gt;Api::UsersController -->
<g id="edge15" class="edge"><title>ApplicationController&#45;&gt;Api::UsersController</title>
<path fill="none" stroke="black" d="M24.7033,26.8381C-1.55879,0.255974 -45.8085,-52.7228 -45.9357,-108.026 -46.0892,-174.757 7.51423,-174.841 29.4953,-237.849 51.808,-301.807 56.9886,-383.117 58.1891,-418.75"/>
</g>
<!-- CarManufacturersController -->
<g id="node18" class="node"><title>CarManufacturersController</title>
<ellipse fill="none" stroke="black" cx="460.94" cy="493.356" rx="110.576" ry="18"/>
<text text-anchor="middle" x="460.94" y="497.556" font-family="Times,serif" font-size="14.00">CarManufacturersController</text>
</g>
<!-- ApplicationController&#45;&gt;CarManufacturersController -->
<g id="edge16" class="edge"><title>ApplicationController&#45;&gt;CarManufacturersController</title>
<path fill="none" stroke="black" d="M48.1325,62.5825C54.3542,86.0111 66.9026,127.807 84.6137,160.424 120.925,227.298 134.382,243.136 188.937,296.187 268.174,373.24 379.146,444.257 431.453,475.953"/>
</g>
<!-- CarModelsController -->
<g id="node19" class="node"><title>CarModelsController</title>
<ellipse fill="none" stroke="black" cx="-866.995" cy="-390.668" rx="85.5119" ry="18"/>
<text text-anchor="middle" x="-866.995" y="-386.468" font-family="Times,serif" font-size="14.00">CarModelsController</text>
</g>
<!-- ApplicationController&#45;&gt;CarModelsController -->
<g id="edge17" class="edge"><title>ApplicationController&#45;&gt;CarModelsController</title>
<path fill="none" stroke="black" d="M-12.0142,30.4618C-56.607,18.2171 -120.194,-1.37784 -172.9,-25.8778 -183.444,-30.7788 -185.381,-33.3353 -195.125,-39.679 -294.148,-104.148 -311.568,-131.931 -414.774,-189.466 -559.82,-270.324 -743.578,-343.76 -824.948,-374.902"/>
</g>
<!-- CarTypesController -->
<g id="node20" class="node"><title>CarTypesController</title>
<ellipse fill="none" stroke="black" cx="-682.672" cy="-189.486" rx="80.4402" ry="18"/>
<text text-anchor="middle" x="-682.672" y="-185.286" font-family="Times,serif" font-size="14.00">CarTypesController</text>
</g>
<!-- ApplicationController&#45;&gt;CarTypesController -->
<g id="edge18" class="edge"><title>ApplicationController&#45;&gt;CarTypesController</title>
<path fill="none" stroke="black" d="M-12.0142,30.4618C-56.607,18.2171 -120.194,-1.37784 -172.9,-25.8778 -206.441,-41.4688 -209.455,-55.4596 -243.468,-69.993 -372.269,-125.029 -533.263,-161.137 -620.123,-178.144"/>
</g>
<!-- CarsController -->
<g id="node21" class="node"><title>CarsController</title>
<ellipse fill="none" stroke="black" cx="-459.762" cy="-175.469" rx="62.8339" ry="18"/>
<text text-anchor="middle" x="-459.762" y="-171.269" font-family="Times,serif" font-size="14.00">CarsController</text>
</g>
<!-- ApplicationController&#45;&gt;CarsController -->
<g id="edge19" class="edge"><title>ApplicationController&#45;&gt;CarsController</title>
<path fill="none" stroke="black" d="M-12.0142,30.4618C-56.607,18.2171 -120.194,-1.37784 -172.9,-25.8778 -195.647,-36.4513 -199.253,-42.8707 -220.519,-56.1745 -289.769,-99.4981 -376.88,-139.637 -424.562,-160.493"/>
</g>
<!-- CompaniesController -->
<g id="node22" class="node"><title>CompaniesController</title>
<ellipse fill="none" stroke="black" cx="-48.0956" cy="167.5" rx="86.4964" ry="18"/>
<text text-anchor="middle" x="-48.0956" y="171.7" font-family="Times,serif" font-size="14.00">CompaniesController</text>
</g>
<!-- ApplicationController&#45;&gt;CompaniesController -->
<g id="edge20" class="edge"><title>ApplicationController&#45;&gt;CompaniesController</title>
<path fill="none" stroke="black" d="M30.3294,62.4531C12.9307,85.758 -17.3288,126.289 -34.7355,149.605"/>
</g>
<!-- ConversationsController -->
<g id="node23" class="node"><title>ConversationsController</title>
<ellipse fill="none" stroke="black" cx="-578.897" cy="243.827" rx="97.1121" ry="18"/>
<text text-anchor="middle" x="-578.897" y="248.027" font-family="Times,serif" font-size="14.00">ConversationsController</text>
</g>
<!-- ApplicationController&#45;&gt;ConversationsController -->
<g id="edge21" class="edge"><title>ApplicationController&#45;&gt;ConversationsController</title>
<path fill="none" stroke="black" d="M11.1825,61.4512C-29.2266,81.9217 -100.726,116.472 -164.864,138.907 -284.729,180.835 -429.502,213.618 -512.221,230.729"/>
</g>
<!-- DeviceManufacturersController -->
<g id="node24" class="node"><title>DeviceManufacturersController</title>
<ellipse fill="none" stroke="black" cx="158.863" cy="-234.197" rx="123.119" ry="18"/>
<text text-anchor="middle" x="158.863" y="-229.997" font-family="Times,serif" font-size="14.00">DeviceManufacturersController</text>
</g>
<!-- ApplicationController&#45;&gt;DeviceManufacturersController -->
<g id="edge22" class="edge"><title>ApplicationController&#45;&gt;DeviceManufacturersController</title>
<path fill="none" stroke="black" d="M57.4192,26.3894C77.5568,-1.18056 114.834,-55.8799 134.691,-108.081 148.721,-144.963 154.905,-191.133 157.386,-216.116"/>
</g>
<!-- DeviceModelsController -->
<g id="node25" class="node"><title>DeviceModelsController</title>
<ellipse fill="none" stroke="black" cx="487.978" cy="-426.329" rx="98.0553" ry="18"/>
<text text-anchor="middle" x="487.978" y="-422.129" font-family="Times,serif" font-size="14.00">DeviceModelsController</text>
</g>
<!-- ApplicationController&#45;&gt;DeviceModelsController -->
<g id="edge23" class="edge"><title>ApplicationController&#45;&gt;DeviceModelsController</title>
<path fill="none" stroke="black" d="M60.5482,26.6942C130.927,-47.8988 400.676,-333.8 471.087,-408.426"/>
</g>
<!-- DeviceTypesController -->
<g id="node26" class="node"><title>DeviceTypesController</title>
<ellipse fill="none" stroke="black" cx="-149.162" cy="-438.982" rx="92.4837" ry="18"/>
<text text-anchor="middle" x="-149.162" y="-434.782" font-family="Times,serif" font-size="14.00">DeviceTypesController</text>
</g>
<!-- ApplicationController&#45;&gt;DeviceTypesController -->
<g id="edge24" class="edge"><title>ApplicationController&#45;&gt;DeviceTypesController</title>
<path fill="none" stroke="black" d="M26.1902,26.7359C-13.4834,-15.1344 -109.634,-124.727 -145.19,-237.823 -165.566,-302.635 -157.273,-385.081 -152.112,-420.953"/>
</g>
<!-- DevicesController -->
<g id="node27" class="node"><title>DevicesController</title>
<ellipse fill="none" stroke="black" cx="202.149" cy="502.883" rx="74.8776" ry="18"/>
<text text-anchor="middle" x="202.149" y="507.083" font-family="Times,serif" font-size="14.00">DevicesController</text>
</g>
<!-- ApplicationController&#45;&gt;DevicesController -->
<g id="edge25" class="edge"><title>ApplicationController&#45;&gt;DevicesController</title>
<path fill="none" stroke="black" d="M49.3546,62.9116C56.6855,85.9834 70.2181,126.677 84.6137,160.424 115.414,232.629 138.279,244.023 164.084,318.16 184.643,377.225 195.713,450.981 200.009,484.628"/>
</g>
<!-- FeaturesController -->
<g id="node28" class="node"><title>FeaturesController</title>
<ellipse fill="none" stroke="black" cx="789.625" cy="-397.506" rx="76.3312" ry="18"/>
<text text-anchor="middle" x="789.625" y="-393.306" font-family="Times,serif" font-size="14.00">FeaturesController</text>
</g>
<!-- ApplicationController&#45;&gt;FeaturesController -->
<g id="edge26" class="edge"><title>ApplicationController&#45;&gt;FeaturesController</title>
<path fill="none" stroke="black" d="M61.5626,26.8502C78.2272,10.4943 103.909,-14.3079 127.035,-34.9599 194.8,-95.4741 211.788,-110.771 283.916,-166.012 432.826,-280.056 646.921,-354.315 741.541,-383.503"/>
</g>
<!-- GroupsController -->
<g id="node29" class="node"><title>GroupsController</title>
<ellipse fill="none" stroke="black" cx="-121.034" cy="-39.8749" rx="72.4894" ry="18"/>
<text text-anchor="middle" x="-121.034" y="-35.6749" font-family="Times,serif" font-size="14.00">GroupsController</text>
</g>
<!-- ApplicationController&#45;&gt;GroupsController -->
<g id="edge27" class="edge"><title>ApplicationController&#45;&gt;GroupsController</title>
<path fill="none" stroke="black" d="M10.7383,27.6918C-18.3639,12.7694 -60.5318,-8.8523 -89.275,-23.5905"/>
</g>
<!-- HomeController -->
<g id="node30" class="node"><title>HomeController</title>
<ellipse fill="none" stroke="black" cx="-361.207" cy="279.638" rx="68.1374" ry="18"/>
<text text-anchor="middle" x="-361.207" y="283.838" font-family="Times,serif" font-size="14.00">HomeController</text>
</g>
<!-- ApplicationController&#45;&gt;HomeController -->
<g id="edge28" class="edge"><title>ApplicationController&#45;&gt;HomeController</title>
<path fill="none" stroke="black" d="M14.2293,61.6735C-60.9254,105.305 -259.119,220.369 -332.955,263.235"/>
</g>
<!-- NotificationsController -->
<g id="node32" class="node"><title>NotificationsController</title>
<ellipse fill="none" stroke="black" cx="779.222" cy="462.724" rx="92.293" ry="18"/>
<text text-anchor="middle" x="779.222" y="466.924" font-family="Times,serif" font-size="14.00">NotificationsController</text>
</g>
<!-- ApplicationController&#45;&gt;NotificationsController -->
<g id="edge30" class="edge"><title>ApplicationController&#45;&gt;NotificationsController</title>
<path fill="none" stroke="black" d="M75.0387,61.456C115.276,83.3269 186.984,123.051 246.544,160.033 308.31,198.385 319.804,214.118 382.115,251.58 512.774,330.134 675.126,411.686 744.822,445.967"/>
</g>
<!-- ParametersController -->
<g id="node33" class="node"><title>ParametersController</title>
<ellipse fill="none" stroke="black" cx="-57.8473" cy="-237.836" rx="85.986" ry="18"/>
<text text-anchor="middle" x="-57.8473" y="-233.636" font-family="Times,serif" font-size="14.00">ParametersController</text>
</g>
<!-- ApplicationController&#45;&gt;ParametersController -->
<g id="edge31" class="edge"><title>ApplicationController&#45;&gt;ParametersController</title>
<path fill="none" stroke="black" d="M29.4913,26.5908C8.83745,-0.720761 -28.9063,-55.0871 -45.9357,-108.026 -58.2717,-146.374 -59.2118,-194.152 -58.6394,-219.707"/>
</g>
<!-- PlanTypesController -->
<g id="node34" class="node"><title>PlanTypesController</title>
<ellipse fill="none" stroke="black" cx="211.806" cy="-35.1261" rx="83.3471" ry="18"/>
<text text-anchor="middle" x="211.806" y="-30.9261" font-family="Times,serif" font-size="14.00">PlanTypesController</text>
</g>
<!-- ApplicationController&#45;&gt;PlanTypesController -->
<g id="edge32" class="edge"><title>ApplicationController&#45;&gt;PlanTypesController</title>
<path fill="none" stroke="black" d="M78.9195,27.8705C107.807,14.1758 148.465,-5.09858 177.182,-18.7123"/>
</g>
<!-- PlansController -->
<g id="node35" class="node"><title>PlansController</title>
<ellipse fill="none" stroke="black" cx="-280.254" cy="500.488" rx="65.7408" ry="18"/>
<text text-anchor="middle" x="-280.254" y="504.688" font-family="Times,serif" font-size="14.00">PlansController</text>
</g>
<!-- ApplicationController&#45;&gt;PlansController -->
<g id="edge33" class="edge"><title>ApplicationController&#45;&gt;PlansController</title>
<path fill="none" stroke="black" d="M45.5748,62.8326C47.5487,87.1366 49.1766,131.257 39.7504,167.373 21.3823,237.749 11.0789,256.875 -35.6269,312.632 -100.271,389.804 -201.898,454.942 -251.326,484.101"/>
</g>
<!-- RegionsController -->
<g id="node36" class="node"><title>RegionsController</title>
<ellipse fill="none" stroke="black" cx="-297.561" cy="-56.0363" rx="75.388" ry="18"/>
<text text-anchor="middle" x="-297.561" y="-51.8363" font-family="Times,serif" font-size="14.00">RegionsController</text>
</g>
<!-- ApplicationController&#45;&gt;RegionsController -->
<g id="edge34" class="edge"><title>ApplicationController&#45;&gt;RegionsController</title>
<path fill="none" stroke="black" d="M-6.67684,29.7332C-72.2124,10.4095 -185.915,-23.1167 -250.032,-42.0222"/>
</g>
<!-- RulesController -->
<g id="node38" class="node"><title>RulesController</title>
<ellipse fill="none" stroke="black" cx="352.116" cy="-166.08" rx="66.7012" ry="18"/>
<text text-anchor="middle" x="352.116" y="-161.88" font-family="Times,serif" font-size="14.00">RulesController</text>
</g>
<!-- ApplicationController&#45;&gt;RulesController -->
<g id="edge36" class="edge"><title>ApplicationController&#45;&gt;RulesController</title>
<path fill="none" stroke="black" d="M60.1698,26.5617C76.2673,9.55357 101.934,-16.0862 127.035,-34.9599 191.195,-83.2008 274.59,-127.581 319.702,-150.262"/>
</g>
<!-- SimcardsController -->
<g id="node39" class="node"><title>SimcardsController</title>
<ellipse fill="none" stroke="black" cx="165.579" cy="160.229" rx="79.2385" ry="18"/>
<text text-anchor="middle" x="165.579" y="164.429" font-family="Times,serif" font-size="14.00">SimcardsController</text>
</g>
<!-- ApplicationController&#45;&gt;SimcardsController -->
<g id="edge37" class="edge"><title>ApplicationController&#45;&gt;SimcardsController</title>
<path fill="none" stroke="black" d="M62.454,62.3961C85.429,84.1921 124.084,120.863 146.977,142.581"/>
</g>
<!-- SimulationsController -->
<g id="node40" class="node"><title>SimulationsController</title>
<ellipse fill="none" stroke="black" cx="44.3777" cy="-108.053" rx="88.9275" ry="18"/>
<text text-anchor="middle" x="44.3777" y="-103.853" font-family="Times,serif" font-size="14.00">SimulationsController</text>
</g>
<!-- ApplicationController&#45;&gt;SimulationsController -->
<g id="edge38" class="edge"><title>ApplicationController&#45;&gt;SimulationsController</title>
<path fill="none" stroke="black" d="M43.757,26.471C43.8925,-2.9045 44.1588,-60.6082 44.2942,-89.9685"/>
</g>
<!-- SubscriptionsController -->
<g id="node41" class="node"><title>SubscriptionsController</title>
<ellipse fill="none" stroke="black" cx="269.259" cy="-424.372" rx="94.7155" ry="18"/>
<text text-anchor="middle" x="269.259" y="-420.172" font-family="Times,serif" font-size="14.00">SubscriptionsController</text>
</g>
<!-- ApplicationController&#45;&gt;SubscriptionsController -->
<g id="edge39" class="edge"><title>ApplicationController&#45;&gt;SubscriptionsController</title>
<path fill="none" stroke="black" d="M62.0938,26.9703C114.597,-23.7545 262.574,-170.625 283.52,-234.326 303.415,-294.831 285.326,-371.801 275.128,-406.262"/>
</g>
<!-- TeleprovidersController -->
<g id="node42" class="node"><title>TeleprovidersController</title>
<ellipse fill="none" stroke="black" cx="-602.269" cy="19.617" rx="94.8977" ry="18"/>
<text text-anchor="middle" x="-602.269" y="23.817" font-family="Times,serif" font-size="14.00">TeleprovidersController</text>
</g>
<!-- ApplicationController&#45;&gt;TeleprovidersController -->
<g id="edge40" class="edge"><title>ApplicationController&#45;&gt;TeleprovidersController</title>
<path fill="none" stroke="black" d="M-43.1059,41.2258C-164.563,36.5321 -384.338,28.0389 -509.126,23.2165"/>
</g>
<!-- UsersController -->
<g id="node43" class="node"><title>UsersController</title>
<ellipse fill="none" stroke="black" cx="-855.613" cy="208.153" rx="66.6925" ry="18"/>
<text text-anchor="middle" x="-855.613" y="212.353" font-family="Times,serif" font-size="14.00">UsersController</text>
</g>
<!-- ApplicationController&#45;&gt;UsersController -->
<g id="edge41" class="edge"><title>ApplicationController&#45;&gt;UsersController</title>
<path fill="none" stroke="black" d="M-22.4533,56.6073C-192.511,87.5394 -642.709,169.427 -800.238,198.08"/>
</g>
<!-- VerticesController -->
<g id="node44" class="node"><title>VerticesController</title>
<ellipse fill="none" stroke="black" cx="-246.305" cy="-225.455" rx="74.8776" ry="18"/>
<text text-anchor="middle" x="-246.305" y="-221.255" font-family="Times,serif" font-size="14.00">VerticesController</text>
</g>
<!-- ApplicationController&#45;&gt;VerticesController -->
<g id="edge42" class="edge"><title>ApplicationController&#45;&gt;VerticesController</title>
<path fill="none" stroke="black" d="M24.5928,26.7312C6.26297,9.59102 -22.2171,-17.026 -46.9427,-40.0707 -113.153,-101.781 -191.865,-174.903 -227.325,-207.833"/>
</g>
<!-- WorkHoursController -->
<g id="node45" class="node"><title>WorkHoursController</title>
<ellipse fill="none" stroke="black" cx="-573.323" cy="-421.629" rx="87.5088" ry="18"/>
<text text-anchor="middle" x="-573.323" y="-417.429" font-family="Times,serif" font-size="14.00">WorkHoursController</text>
</g>
<!-- ApplicationController&#45;&gt;WorkHoursController -->
<g id="edge43" class="edge"><title>ApplicationController&#45;&gt;WorkHoursController</title>
<path fill="none" stroke="black" d="M26.3805,26.8342C8.68289,9.06438 -19.9711,-18.6458 -46.9427,-40.0707 -162.586,-131.932 -203.332,-138.508 -322.841,-225.282 -409.805,-288.425 -509.214,-368.961 -551.957,-404.011"/>
</g>
<!-- WorkScheduleGroupsController -->
<g id="node46" class="node"><title>WorkScheduleGroupsController</title>
<ellipse fill="none" stroke="black" cx="-414.212" cy="77.5928" rx="124.184" ry="18"/>
<text text-anchor="middle" x="-414.212" y="81.7928" font-family="Times,serif" font-size="14.00">WorkScheduleGroupsController</text>
</g>
<!-- ApplicationController&#45;&gt;WorkScheduleGroupsController -->
<g id="edge44" class="edge"><title>ApplicationController&#45;&gt;WorkScheduleGroupsController</title>
<path fill="none" stroke="black" d="M-39.5116,50.577C-113.252,55.8936 -221.527,63.7002 -302.746,69.5561"/>
</g>
<!-- WorkSchedulesController -->
<g id="node47" class="node"><title>WorkSchedulesController</title>
<ellipse fill="none" stroke="black" cx="808.257" cy="-96.4863" rx="101.992" ry="18"/>
<text text-anchor="middle" x="808.257" y="-92.2863" font-family="Times,serif" font-size="14.00">WorkSchedulesController</text>
</g>
<!-- ApplicationController&#45;&gt;WorkSchedulesController -->
<g id="edge45" class="edge"><title>ApplicationController&#45;&gt;WorkSchedulesController</title>
<path fill="none" stroke="black" d="M109.192,32.4912C252.055,6.13295 590.56,-56.3212 737.807,-83.4883"/>
</g>
<!-- InvitationsController -->
<g id="node31" class="node"><title>InvitationsController</title>
<ellipse fill="none" stroke="black" cx="683.945" cy="-618" rx="84.0668" ry="18"/>
<text text-anchor="middle" x="683.945" y="-613.8" font-family="Times,serif" font-size="14.00">InvitationsController</text>
</g>
<!-- RegistrationsController -->
<g id="node37" class="node"><title>RegistrationsController</title>
<ellipse fill="none" stroke="black" cx="468.527" cy="582" rx="93.2533" ry="18"/>
<text text-anchor="middle" x="468.527" y="586.2" font-family="Times,serif" font-size="14.00">RegistrationsController</text>
</g>
<!-- DeviseController -->
<g id="node48" class="node"><title>DeviseController</title>
<ellipse fill="none" stroke="black" cx="855.615" cy="-618" rx="71.0272" ry="18"/>
<text text-anchor="middle" x="855.615" y="-613.8" font-family="Times,serif" font-size="14.00">DeviseController</text>
</g>
<!-- DeviseController&#45;&gt;InvitationsController -->
<g id="edge29" class="edge"><title>DeviseController&#45;&gt;InvitationsController</title>
<path fill="none" stroke="black" d="M784.303,-618C779.052,-618 773.726,-618 768.408,-618"/>
</g>
<!-- Devise::RegistrationsController -->
<g id="node49" class="node"><title>Devise::RegistrationsController</title>
<ellipse fill="none" stroke="black" cx="706.024" cy="582" rx="122.695" ry="18"/>
<text text-anchor="middle" x="706.024" y="586.2" font-family="Times,serif" font-size="14.00">Devise::RegistrationsController</text>
</g>
<!-- Devise::RegistrationsController&#45;&gt;RegistrationsController -->
<g id="edge35" class="edge"><title>Devise::RegistrationsController&#45;&gt;RegistrationsController</title>
<path fill="none" stroke="black" d="M583.101,582C575.97,582 568.86,582 561.872,582"/>
</g>
</g>
</svg>
