<?xml version="1.0" encoding="UTF-8" standalone="no"?>
<!DOCTYPE svg PUBLIC "-//W3C//DTD SVG 1.1//EN"
 "http://www.w3.org/Graphics/SVG/1.1/DTD/svg11.dtd">
<!-- Generated by graphviz version 2.38.0 (20140413.2041)
 -->
<!-- Title: models_diagram Pages: 1 -->
<svg width="3510pt" height="2211pt"
 viewBox="0.00 0.00 3510.41 2211.00" xmlns="http://www.w3.org/2000/svg" xmlns:xlink="http://www.w3.org/1999/xlink">
<g id="graph0" class="graph" transform="scale(1 1) rotate(0) translate(4 2207)">
<title>models_diagram</title>
<polygon fill="white" stroke="none" points="-4,4 -4,-2207 3506.41,-2207 3506.41,4 -4,4"/>
<!-- _diagram_info -->
<g id="node1" class="node"><title>_diagram_info</title>
<text text-anchor="start" x="8" y="-2188.6" font-family="Times,serif" font-size="13.00">Models diagram</text>
<text text-anchor="start" x="8" y="-2175.6" font-family="Times,serif" font-size="13.00">Date: Oct 15 2014 &#45; 11:48</text>
<text text-anchor="start" x="8" y="-2162.6" font-family="Times,serif" font-size="13.00">Migration version: 20140925103916</text>
<text text-anchor="start" x="8" y="-2149.6" font-family="Times,serif" font-size="13.00">Generated by RailRoady 1.1.1</text>
<text text-anchor="start" x="8" y="-2136.6" font-family="Times,serif" font-size="13.00">http://railroady.prestonlee.com</text>
</g>
<!-- Ability -->
<g id="node2" class="node"><title>Ability</title>
<polygon fill="none" stroke="black" points="65.8533,-2006.5 65.8533,-2050.5 121.522,-2050.5 121.522,-2006.5 65.8533,-2006.5"/>
<text text-anchor="middle" x="93.6877" y="-2035.3" font-family="Times,serif" font-size="14.00">Ability</text>
<polyline fill="none" stroke="black" points="65.8533,-2028.5 121.522,-2028.5 "/>
<text text-anchor="middle" x="93.6877" y="-2013.3" font-family="Times,serif" font-size="14.00"> </text>
</g>
<!-- Alarm::Movement -->
<g id="node3" class="node"><title>Alarm::Movement</title>
<polygon fill="none" stroke="black" points="139.588,-2006.5 139.588,-2050.5 259.788,-2050.5 259.788,-2006.5 139.588,-2006.5"/>
<text text-anchor="middle" x="199.688" y="-2035.3" font-family="Times,serif" font-size="14.00">Alarm::Movement</text>
<polyline fill="none" stroke="black" points="139.588,-2028.5 259.788,-2028.5 "/>
<text text-anchor="middle" x="199.688" y="-2013.3" font-family="Times,serif" font-size="14.00"> </text>
</g>
<!-- Alarm -->
<g id="node4" class="node"><title>Alarm</title>
<path fill="none" stroke="black" d="M1172.18,-1971.5C1172.18,-1971.5 1281.19,-1971.5 1281.19,-1971.5 1287.19,-1971.5 1293.19,-1977.5 1293.19,-1983.5 1293.19,-1983.5 1293.19,-2073.5 1293.19,-2073.5 1293.19,-2079.5 1287.19,-2085.5 1281.19,-2085.5 1281.19,-2085.5 1172.18,-2085.5 1172.18,-2085.5 1166.18,-2085.5 1160.18,-2079.5 1160.18,-2073.5 1160.18,-2073.5 1160.18,-1983.5 1160.18,-1983.5 1160.18,-1977.5 1166.18,-1971.5 1172.18,-1971.5"/>
<text text-anchor="middle" x="1226.69" y="-2070.3" font-family="Times,serif" font-size="14.00">Alarm</text>
<polyline fill="none" stroke="black" points="1160.18,-2063.5 1293.19,-2063.5 "/>
<text text-anchor="start" x="1168.18" y="-2048.3" font-family="Times,serif" font-size="14.00">id :integer</text>
<text text-anchor="start" x="1168.18" y="-2034.3" font-family="Times,serif" font-size="14.00">name :string</text>
<text text-anchor="start" x="1168.18" y="-2020.3" font-family="Times,serif" font-size="14.00">created_at :datetime</text>
<text text-anchor="start" x="1168.18" y="-2006.3" font-family="Times,serif" font-size="14.00">updated_at :datetime</text>
<text text-anchor="start" x="1168.18" y="-1992.3" font-family="Times,serif" font-size="14.00">description :string</text>
<text text-anchor="start" x="1168.18" y="-1978.3" font-family="Times,serif" font-size="14.00">deleted_at :datetime</text>
</g>
<!-- AlarmNotification -->
<g id="node7" class="node"><title>AlarmNotification</title>
<path fill="none" stroke="black" d="M1047.18,-965.5C1047.18,-965.5 1156.19,-965.5 1156.19,-965.5 1162.19,-965.5 1168.19,-971.5 1168.19,-977.5 1168.19,-977.5 1168.19,-1095.5 1168.19,-1095.5 1168.19,-1101.5 1162.19,-1107.5 1156.19,-1107.5 1156.19,-1107.5 1047.18,-1107.5 1047.18,-1107.5 1041.18,-1107.5 1035.18,-1101.5 1035.18,-1095.5 1035.18,-1095.5 1035.18,-977.5 1035.18,-977.5 1035.18,-971.5 1041.18,-965.5 1047.18,-965.5"/>
<text text-anchor="middle" x="1101.69" y="-1092.3" font-family="Times,serif" font-size="14.00">AlarmNotification</text>
<polyline fill="none" stroke="black" points="1035.18,-1085.5 1168.19,-1085.5 "/>
<text text-anchor="start" x="1043.18" y="-1070.3" font-family="Times,serif" font-size="14.00">id :integer</text>
<text text-anchor="start" x="1043.18" y="-1056.3" font-family="Times,serif" font-size="14.00">car_id :integer</text>
<text text-anchor="start" x="1043.18" y="-1042.3" font-family="Times,serif" font-size="14.00">driver_id :integer</text>
<text text-anchor="start" x="1043.18" y="-1028.3" font-family="Times,serif" font-size="14.00">alarm_id :integer</text>
<text text-anchor="start" x="1043.18" y="-1014.3" font-family="Times,serif" font-size="14.00">created_at :datetime</text>
<text text-anchor="start" x="1043.18" y="-1000.3" font-family="Times,serif" font-size="14.00">updated_at :datetime</text>
<text text-anchor="start" x="1043.18" y="-986.3" font-family="Times,serif" font-size="14.00">company_id :integer</text>
<text text-anchor="start" x="1043.18" y="-972.3" font-family="Times,serif" font-size="14.00">archived :boolean</text>
</g>
<!-- Alarm&#45;&gt;AlarmNotification -->
<g id="edge5" class="edge"><title>Alarm&#45;&gt;AlarmNotification</title>
<path fill="none" stroke="#29bdbd" d="M1153.24,-1986.67C1103.44,-1954.4 1041.77,-1904.29 1013.69,-1841 984.772,-1775.82 1057.23,-1307.71 1088.33,-1117.52"/>
<ellipse fill="none" stroke="#29bdbd" cx="1156.81" cy="-1988.95" rx="4.00002" ry="4.00002"/>
<polygon fill="#29bdbd" stroke="#29bdbd" points="1088.34,-1117.45 1094.4,-1108.31 1089.15,-1112.51 1089.96,-1107.58 1089.96,-1107.58 1089.96,-1107.58 1089.15,-1112.51 1085.52,-1106.85 1088.34,-1117.45 1088.34,-1117.45"/>
</g>
<!-- AlarmRule -->
<g id="node8" class="node"><title>AlarmRule</title>
<path fill="none" stroke="black" d="M1310.13,-1418.5C1310.13,-1418.5 1415.24,-1418.5 1415.24,-1418.5 1421.24,-1418.5 1427.24,-1424.5 1427.24,-1430.5 1427.24,-1430.5 1427.24,-1520.5 1427.24,-1520.5 1427.24,-1526.5 1421.24,-1532.5 1415.24,-1532.5 1415.24,-1532.5 1310.13,-1532.5 1310.13,-1532.5 1304.13,-1532.5 1298.13,-1526.5 1298.13,-1520.5 1298.13,-1520.5 1298.13,-1430.5 1298.13,-1430.5 1298.13,-1424.5 1304.13,-1418.5 1310.13,-1418.5"/>
<text text-anchor="middle" x="1362.69" y="-1517.3" font-family="Times,serif" font-size="14.00">AlarmRule</text>
<polyline fill="none" stroke="black" points="1298.13,-1510.5 1427.24,-1510.5 "/>
<text text-anchor="start" x="1306.13" y="-1495.3" font-family="Times,serif" font-size="14.00">id :integer</text>
<text text-anchor="start" x="1306.13" y="-1481.3" font-family="Times,serif" font-size="14.00">rule_id :integer</text>
<text text-anchor="start" x="1306.13" y="-1467.3" font-family="Times,serif" font-size="14.00">alarm_id :integer</text>
<text text-anchor="start" x="1306.13" y="-1453.3" font-family="Times,serif" font-size="14.00">conjunction :string</text>
<text text-anchor="start" x="1306.13" y="-1439.3" font-family="Times,serif" font-size="14.00">params :string</text>
<text text-anchor="start" x="1306.13" y="-1425.3" font-family="Times,serif" font-size="14.00">deleted_at :datetime</text>
</g>
<!-- Alarm&#45;&gt;AlarmRule -->
<g id="edge4" class="edge"><title>Alarm&#45;&gt;AlarmRule</title>
<path fill="none" stroke="#aa84dc" d="M1275.35,-1963.83C1278.53,-1957.99 1281.37,-1952 1283.69,-1946 1345.06,-1786.74 1292.59,-1731.13 1331.69,-1565 1333.44,-1557.53 1335.6,-1549.82 1337.96,-1542.2"/>
<ellipse fill="none" stroke="#aa84dc" cx="1273.15" cy="-1967.67" rx="4.00002" ry="4.00002"/>
<polygon fill="#aa84dc" stroke="#aa84dc" points="1337.98,-1542.15 1345.32,-1534 1339.5,-1537.39 1341.03,-1532.63 1341.03,-1532.63 1341.03,-1532.63 1339.5,-1537.39 1336.75,-1531.25 1337.98,-1542.15 1337.98,-1542.15"/>
</g>
<!-- Car -->
<g id="node9" class="node"><title>Car</title>
<path fill="none" stroke="black" d="M1319.24,-680.5C1319.24,-680.5 1460.14,-680.5 1460.14,-680.5 1466.14,-680.5 1472.14,-686.5 1472.14,-692.5 1472.14,-692.5 1472.14,-908.5 1472.14,-908.5 1472.14,-914.5 1466.14,-920.5 1460.14,-920.5 1460.14,-920.5 1319.24,-920.5 1319.24,-920.5 1313.24,-920.5 1307.24,-914.5 1307.24,-908.5 1307.24,-908.5 1307.24,-692.5 1307.24,-692.5 1307.24,-686.5 1313.24,-680.5 1319.24,-680.5"/>
<text text-anchor="middle" x="1389.69" y="-905.3" font-family="Times,serif" font-size="14.00">Car</text>
<polyline fill="none" stroke="black" points="1307.24,-898.5 1472.14,-898.5 "/>
<text text-anchor="start" x="1315.24" y="-883.3" font-family="Times,serif" font-size="14.00">id :integer</text>
<text text-anchor="start" x="1315.24" y="-869.3" font-family="Times,serif" font-size="14.00">mileage :float</text>
<text text-anchor="start" x="1315.24" y="-855.3" font-family="Times,serif" font-size="14.00">numberplate :string</text>
<text text-anchor="start" x="1315.24" y="-841.3" font-family="Times,serif" font-size="14.00">car_model_id :integer</text>
<text text-anchor="start" x="1315.24" y="-827.3" font-family="Times,serif" font-size="14.00">car_type_id :integer</text>
<text text-anchor="start" x="1315.24" y="-813.3" font-family="Times,serif" font-size="14.00">registration_no :string</text>
<text text-anchor="start" x="1315.24" y="-799.3" font-family="Times,serif" font-size="14.00">year :integer</text>
<text text-anchor="start" x="1315.24" y="-785.3" font-family="Times,serif" font-size="14.00">color :string</text>
<text text-anchor="start" x="1315.24" y="-771.3" font-family="Times,serif" font-size="14.00">group_id :integer</text>
<text text-anchor="start" x="1315.24" y="-757.3" font-family="Times,serif" font-size="14.00">created_at :datetime</text>
<text text-anchor="start" x="1315.24" y="-743.3" font-family="Times,serif" font-size="14.00">updated_at :datetime</text>
<text text-anchor="start" x="1315.24" y="-729.3" font-family="Times,serif" font-size="14.00">company_id :integer</text>
<text text-anchor="start" x="1315.24" y="-715.3" font-family="Times,serif" font-size="14.00">work_schedule_id :integer</text>
<text text-anchor="start" x="1315.24" y="-701.3" font-family="Times,serif" font-size="14.00">name :string</text>
<text text-anchor="start" x="1315.24" y="-687.3" font-family="Times,serif" font-size="14.00">deleted_at :datetime</text>
</g>
<!-- Alarm&#45;&gt;Car -->
<g id="edge8" class="edge"><title>Alarm&#45;&gt;Car</title>
<path fill="none" stroke="#9f8610" d="M1149.96,-2016.6C1105.16,-2006.13 1051.38,-1985.72 1019.69,-1946 946.926,-1854.81 980.307,-1798.29 1003.69,-1684 1061.76,-1400.12 1218.06,-1096.23 1313.01,-929.471"/>
<polygon fill="#9f8610" stroke="#9f8610" points="1150.19,-2016.65 1158.99,-2023.2 1155.07,-2017.73 1159.96,-2018.81 1159.96,-2018.81 1159.96,-2018.81 1155.07,-2017.73 1160.93,-2014.42 1150.19,-2016.65 1150.19,-2016.65"/>
<polygon fill="#9f8610" stroke="#9f8610" points="1313.09,-929.336 1321.95,-922.884 1315.57,-924.994 1318.05,-920.652 1318.05,-920.652 1318.05,-920.652 1315.57,-924.994 1314.14,-918.42 1313.09,-929.336 1313.09,-929.336"/>
</g>
<!-- Group -->
<g id="node19" class="node"><title>Group</title>
<path fill="none" stroke="black" d="M1335.18,-986.5C1335.18,-986.5 1444.19,-986.5 1444.19,-986.5 1450.19,-986.5 1456.19,-992.5 1456.19,-998.5 1456.19,-998.5 1456.19,-1074.5 1456.19,-1074.5 1456.19,-1080.5 1450.19,-1086.5 1444.19,-1086.5 1444.19,-1086.5 1335.18,-1086.5 1335.18,-1086.5 1329.18,-1086.5 1323.18,-1080.5 1323.18,-1074.5 1323.18,-1074.5 1323.18,-998.5 1323.18,-998.5 1323.18,-992.5 1329.18,-986.5 1335.18,-986.5"/>
<text text-anchor="middle" x="1389.69" y="-1071.3" font-family="Times,serif" font-size="14.00">Group</text>
<polyline fill="none" stroke="black" points="1323.18,-1064.5 1456.19,-1064.5 "/>
<text text-anchor="start" x="1331.18" y="-1049.3" font-family="Times,serif" font-size="14.00">id :integer</text>
<text text-anchor="start" x="1331.18" y="-1035.3" font-family="Times,serif" font-size="14.00">name :string</text>
<text text-anchor="start" x="1331.18" y="-1021.3" font-family="Times,serif" font-size="14.00">created_at :datetime</text>
<text text-anchor="start" x="1331.18" y="-1007.3" font-family="Times,serif" font-size="14.00">updated_at :datetime</text>
<text text-anchor="start" x="1331.18" y="-993.3" font-family="Times,serif" font-size="14.00">company_id :integer</text>
</g>
<!-- Alarm&#45;&gt;Group -->
<g id="edge7" class="edge"><title>Alarm&#45;&gt;Group</title>
<path fill="none" stroke="#383307" d="M1243.55,-1961.32C1255.6,-1908.21 1269.69,-1831.56 1269.69,-1763.5 1269.69,-1763.5 1269.69,-1763.5 1269.69,-1215.5 1269.69,-1169.44 1297.66,-1126.36 1326.59,-1094.13"/>
<polygon fill="#383307" stroke="#383307" points="1243.49,-1961.54 1236.86,-1970.27 1242.37,-1966.41 1241.25,-1971.28 1241.25,-1971.28 1241.25,-1971.28 1242.37,-1966.41 1245.63,-1972.3 1243.49,-1961.54 1243.49,-1961.54"/>
<polygon fill="#383307" stroke="#383307" points="1326.77,-1093.94 1336.86,-1089.64 1330.16,-1090.26 1333.55,-1086.59 1333.55,-1086.59 1333.55,-1086.59 1330.16,-1090.26 1330.25,-1083.54 1326.77,-1093.94 1326.77,-1093.94"/>
</g>
<!-- Rule -->
<g id="node27" class="node"><title>Rule</title>
<path fill="none" stroke="black" d="M1385.39,-1705.5C1385.39,-1705.5 1495.98,-1705.5 1495.98,-1705.5 1501.98,-1705.5 1507.98,-1711.5 1507.98,-1717.5 1507.98,-1717.5 1507.98,-1807.5 1507.98,-1807.5 1507.98,-1813.5 1501.98,-1819.5 1495.98,-1819.5 1495.98,-1819.5 1385.39,-1819.5 1385.39,-1819.5 1379.39,-1819.5 1373.39,-1813.5 1373.39,-1807.5 1373.39,-1807.5 1373.39,-1717.5 1373.39,-1717.5 1373.39,-1711.5 1379.39,-1705.5 1385.39,-1705.5"/>
<text text-anchor="middle" x="1440.69" y="-1804.3" font-family="Times,serif" font-size="14.00">Rule</text>
<polyline fill="none" stroke="black" points="1373.39,-1797.5 1507.98,-1797.5 "/>
<text text-anchor="start" x="1381.39" y="-1782.3" font-family="Times,serif" font-size="14.00">id :integer</text>
<text text-anchor="start" x="1381.39" y="-1768.3" font-family="Times,serif" font-size="14.00">name :string</text>
<text text-anchor="start" x="1381.39" y="-1754.3" font-family="Times,serif" font-size="14.00">method_name :string</text>
<text text-anchor="start" x="1381.39" y="-1740.3" font-family="Times,serif" font-size="14.00">created_at :datetime</text>
<text text-anchor="start" x="1381.39" y="-1726.3" font-family="Times,serif" font-size="14.00">updated_at :datetime</text>
<text text-anchor="start" x="1381.39" y="-1712.3" font-family="Times,serif" font-size="14.00">description :string</text>
</g>
<!-- Alarm&#45;&gt;Rule -->
<g id="edge3" class="edge"><title>Alarm&#45;&gt;Rule</title>
<path fill="none" stroke="#9dc97a" d="M1296.47,-1963.71C1302.1,-1957.86 1307.59,-1951.91 1312.69,-1946 1344.64,-1908.97 1376.23,-1864.03 1400.04,-1828.01"/>
<polygon fill="#9dc97a" stroke="#9dc97a" points="1296.27,-1963.92 1286.06,-1967.91 1292.77,-1967.49 1289.27,-1971.06 1289.27,-1971.06 1289.27,-1971.06 1292.77,-1967.49 1292.48,-1974.21 1296.27,-1963.92 1296.27,-1963.92"/>
<polygon fill="#9dc97a" stroke="#9dc97a" points="1400.12,-1827.89 1409.37,-1822 1402.87,-1823.71 1405.61,-1819.53 1405.61,-1819.53 1405.61,-1819.53 1402.87,-1823.71 1401.85,-1817.06 1400.12,-1827.89 1400.12,-1827.89"/>
</g>
<!-- GroupAlarm -->
<g id="node42" class="node"><title>GroupAlarm</title>
<ellipse fill="none" stroke="black" cx="1077.69" cy="-1762.5" rx="55.0922" ry="18"/>
<text text-anchor="middle" x="1077.69" y="-1758.3" font-family="Times,serif" font-size="14.00">GroupAlarm</text>
</g>
<!-- Alarm&#45;&gt;GroupAlarm -->
<g id="edge6" class="edge"><title>Alarm&#45;&gt;GroupAlarm</title>
<path fill="none" stroke="#972eae" d="M1190.82,-1963.95C1159.21,-1907.95 1114.78,-1829.22 1092.16,-1789.14"/>
<ellipse fill="none" stroke="#972eae" cx="1192.94" cy="-1967.71" rx="4.00002" ry="4.00002"/>
<polygon fill="#972eae" stroke="#972eae" points="1092.07,-1788.98 1091.07,-1778.06 1089.61,-1784.63 1087.15,-1780.27 1087.15,-1780.27 1087.15,-1780.27 1089.61,-1784.63 1083.23,-1782.48 1092.07,-1788.98 1092.07,-1788.98"/>
</g>
<!-- CarAlarm -->
<g id="node43" class="node"><title>CarAlarm</title>
<ellipse fill="none" stroke="black" cx="1196.69" cy="-1762.5" rx="45.4355" ry="18"/>
<text text-anchor="middle" x="1196.69" y="-1758.3" font-family="Times,serif" font-size="14.00">CarAlarm</text>
</g>
<!-- Alarm&#45;&gt;CarAlarm -->
<g id="edge9" class="edge"><title>Alarm&#45;&gt;CarAlarm</title>
<path fill="none" stroke="#312e4d" d="M1219.38,-1963.23C1213.11,-1907.99 1204.36,-1831.05 1199.78,-1790.69"/>
<ellipse fill="none" stroke="#312e4d" cx="1219.84" cy="-1967.21" rx="4.00001" ry="4.00001"/>
<polygon fill="#312e4d" stroke="#312e4d" points="1199.75,-1790.49 1203.1,-1780.05 1199.19,-1785.52 1198.63,-1780.55 1198.63,-1780.55 1198.63,-1780.55 1199.19,-1785.52 1194.15,-1781.06 1199.75,-1790.49 1199.75,-1790.49"/>
</g>
<!-- AlarmCar -->
<g id="node5" class="node"><title>AlarmCar</title>
<path fill="none" stroke="black" d="M1457.24,-375.5C1457.24,-375.5 1556.14,-375.5 1556.14,-375.5 1562.14,-375.5 1568.14,-381.5 1568.14,-387.5 1568.14,-387.5 1568.14,-463.5 1568.14,-463.5 1568.14,-469.5 1562.14,-475.5 1556.14,-475.5 1556.14,-475.5 1457.24,-475.5 1457.24,-475.5 1451.24,-475.5 1445.24,-469.5 1445.24,-463.5 1445.24,-463.5 1445.24,-387.5 1445.24,-387.5 1445.24,-381.5 1451.24,-375.5 1457.24,-375.5"/>
<text text-anchor="middle" x="1506.69" y="-460.3" font-family="Times,serif" font-size="14.00">AlarmCar</text>
<polyline fill="none" stroke="black" points="1445.24,-453.5 1568.14,-453.5 "/>
<text text-anchor="start" x="1453.24" y="-438.3" font-family="Times,serif" font-size="14.00">id :integer</text>
<text text-anchor="start" x="1453.24" y="-424.3" font-family="Times,serif" font-size="14.00">car_id :integer</text>
<text text-anchor="start" x="1453.24" y="-410.3" font-family="Times,serif" font-size="14.00">alarm_id :integer</text>
<text text-anchor="start" x="1453.24" y="-396.3" font-family="Times,serif" font-size="14.00">status :string</text>
<text text-anchor="start" x="1453.24" y="-382.3" font-family="Times,serif" font-size="14.00">last_alert :datetime</text>
</g>
<!-- AlarmGroup -->
<g id="node6" class="node"><title>AlarmGroup</title>
<path fill="none" stroke="black" d="M1551.24,-750.5C1551.24,-750.5 1650.14,-750.5 1650.14,-750.5 1656.14,-750.5 1662.14,-756.5 1662.14,-762.5 1662.14,-762.5 1662.14,-838.5 1662.14,-838.5 1662.14,-844.5 1656.14,-850.5 1650.14,-850.5 1650.14,-850.5 1551.24,-850.5 1551.24,-850.5 1545.24,-850.5 1539.24,-844.5 1539.24,-838.5 1539.24,-838.5 1539.24,-762.5 1539.24,-762.5 1539.24,-756.5 1545.24,-750.5 1551.24,-750.5"/>
<text text-anchor="middle" x="1600.69" y="-835.3" font-family="Times,serif" font-size="14.00">AlarmGroup</text>
<polyline fill="none" stroke="black" points="1539.24,-828.5 1662.14,-828.5 "/>
<text text-anchor="start" x="1547.24" y="-813.3" font-family="Times,serif" font-size="14.00">id :integer</text>
<text text-anchor="start" x="1547.24" y="-799.3" font-family="Times,serif" font-size="14.00">group_id :integer</text>
<text text-anchor="start" x="1547.24" y="-785.3" font-family="Times,serif" font-size="14.00">alarm_id :integer</text>
<text text-anchor="start" x="1547.24" y="-771.3" font-family="Times,serif" font-size="14.00">status :string</text>
<text text-anchor="start" x="1547.24" y="-757.3" font-family="Times,serif" font-size="14.00">last_alert :datetime</text>
</g>
<!-- Car&#45;&gt;AlarmCar -->
<g id="edge20" class="edge"><title>Car&#45;&gt;AlarmCar</title>
<path fill="none" stroke="#593f20" d="M1429.47,-672.684C1449.37,-609.229 1472.51,-535.47 1488.23,-485.353"/>
<ellipse fill="none" stroke="#593f20" cx="1428.23" cy="-676.638" rx="4.00001" ry="4.00001"/>
<polygon fill="#593f20" stroke="#593f20" points="1488.28,-485.196 1495.56,-477.001 1489.77,-480.425 1491.27,-475.654 1491.27,-475.654 1491.27,-475.654 1489.77,-480.425 1486.98,-474.307 1488.28,-485.196 1488.28,-485.196"/>
</g>
<!-- Device -->
<g id="node14" class="node"><title>Device</title>
<path fill="none" stroke="black" d="M2454.35,-319.5C2454.35,-319.5 2589.02,-319.5 2589.02,-319.5 2595.02,-319.5 2601.02,-325.5 2601.02,-331.5 2601.02,-331.5 2601.02,-519.5 2601.02,-519.5 2601.02,-525.5 2595.02,-531.5 2589.02,-531.5 2589.02,-531.5 2454.35,-531.5 2454.35,-531.5 2448.35,-531.5 2442.35,-525.5 2442.35,-519.5 2442.35,-519.5 2442.35,-331.5 2442.35,-331.5 2442.35,-325.5 2448.35,-319.5 2454.35,-319.5"/>
<text text-anchor="middle" x="2521.69" y="-516.3" font-family="Times,serif" font-size="14.00">Device</text>
<polyline fill="none" stroke="black" points="2442.35,-509.5 2601.02,-509.5 "/>
<text text-anchor="start" x="2450.35" y="-494.3" font-family="Times,serif" font-size="14.00">id :integer</text>
<text text-anchor="start" x="2450.35" y="-480.3" font-family="Times,serif" font-size="14.00">name :string</text>
<text text-anchor="start" x="2450.35" y="-466.3" font-family="Times,serif" font-size="14.00">emei :string</text>
<text text-anchor="start" x="2450.35" y="-452.3" font-family="Times,serif" font-size="14.00">cost_price :float</text>
<text text-anchor="start" x="2450.35" y="-438.3" font-family="Times,serif" font-size="14.00">created_at :datetime</text>
<text text-anchor="start" x="2450.35" y="-424.3" font-family="Times,serif" font-size="14.00">updated_at :datetime</text>
<text text-anchor="start" x="2450.35" y="-410.3" font-family="Times,serif" font-size="14.00">device_model_id :integer</text>
<text text-anchor="start" x="2450.35" y="-396.3" font-family="Times,serif" font-size="14.00">device_type_id :integer</text>
<text text-anchor="start" x="2450.35" y="-382.3" font-family="Times,serif" font-size="14.00">car_id :integer</text>
<text text-anchor="start" x="2450.35" y="-368.3" font-family="Times,serif" font-size="14.00">company_id :integer</text>
<text text-anchor="start" x="2450.35" y="-354.3" font-family="Times,serif" font-size="14.00">movement :boolean</text>
<text text-anchor="start" x="2450.35" y="-340.3" font-family="Times,serif" font-size="14.00">last_checked :datetime</text>
<text text-anchor="start" x="2450.35" y="-326.3" font-family="Times,serif" font-size="14.00">deleted_at :datetime</text>
</g>
<!-- Car&#45;&gt;Device -->
<g id="edge17" class="edge"><title>Car&#45;&gt;Device</title>
<path fill="none" stroke="#46a918" d="M1478.63,-711.226C1494.9,-699.001 1512.51,-687.934 1530.69,-680 1591.82,-653.311 1614.27,-675.021 1679.69,-662 1959.58,-606.29 2282.51,-505.387 2434.29,-455.721"/>
<ellipse fill="none" stroke="#46a918" cx="1475.4" cy="-713.713" rx="4.00002" ry="4.00002"/>
<ellipse fill="#46a918" stroke="#46a918" cx="2438.47" cy="-454.351" rx="4.00001" ry="4.00001"/>
</g>
<!-- State -->
<g id="node31" class="node"><title>State</title>
<path fill="none" stroke="black" d="M2303.18,-7.5C2303.18,-7.5 2412.19,-7.5 2412.19,-7.5 2418.19,-7.5 2424.19,-13.5 2424.19,-19.5 2424.19,-19.5 2424.19,-151.5 2424.19,-151.5 2424.19,-157.5 2418.19,-163.5 2412.19,-163.5 2412.19,-163.5 2303.18,-163.5 2303.18,-163.5 2297.18,-163.5 2291.18,-157.5 2291.18,-151.5 2291.18,-151.5 2291.18,-19.5 2291.18,-19.5 2291.18,-13.5 2297.18,-7.5 2303.18,-7.5"/>
<text text-anchor="middle" x="2357.69" y="-148.3" font-family="Times,serif" font-size="14.00">State</text>
<polyline fill="none" stroke="black" points="2291.18,-141.5 2424.19,-141.5 "/>
<text text-anchor="start" x="2299.18" y="-126.3" font-family="Times,serif" font-size="14.00">id :integer</text>
<text text-anchor="start" x="2299.18" y="-112.3" font-family="Times,serif" font-size="14.00">no_data :boolean</text>
<text text-anchor="start" x="2299.18" y="-98.3" font-family="Times,serif" font-size="14.00">moving :boolean</text>
<text text-anchor="start" x="2299.18" y="-84.3" font-family="Times,serif" font-size="14.00">car_id :integer</text>
<text text-anchor="start" x="2299.18" y="-70.3" font-family="Times,serif" font-size="14.00">created_at :datetime</text>
<text text-anchor="start" x="2299.18" y="-56.3" font-family="Times,serif" font-size="14.00">updated_at :datetime</text>
<text text-anchor="start" x="2299.18" y="-42.3" font-family="Times,serif" font-size="14.00">speed :float</text>
<text text-anchor="start" x="2299.18" y="-28.3" font-family="Times,serif" font-size="14.00">driver_id :integer</text>
<text text-anchor="start" x="2299.18" y="-14.3" font-family="Times,serif" font-size="14.00">device_id :integer</text>
</g>
<!-- Car&#45;&gt;State -->
<g id="edge19" class="edge"><title>Car&#45;&gt;State</title>
<path fill="none" stroke="#05c749" d="M1359.07,-672.089C1335.92,-541.264 1324.68,-340.406 1436.69,-221 1550.92,-99.2202 2080.9,-86.4067 2280.96,-85.9915"/>
<ellipse fill="none" stroke="#05c749" cx="1359.83" cy="-676.277" rx="4.00001" ry="4.00001"/>
<polygon fill="#05c749" stroke="#05c749" points="2281.09,-85.9914 2291.1,-90.4805 2286.09,-85.986 2291.09,-85.9805 2291.09,-85.9805 2291.09,-85.9805 2286.09,-85.986 2291.09,-81.4805 2281.09,-85.9914 2281.09,-85.9914"/>
</g>
<!-- User -->
<g id="node35" class="node"><title>User</title>
<path fill="none" stroke="black" d="M888.41,-221.5C888.41,-221.5 1068.97,-221.5 1068.97,-221.5 1074.97,-221.5 1080.97,-227.5 1080.97,-233.5 1080.97,-233.5 1080.97,-617.5 1080.97,-617.5 1080.97,-623.5 1074.97,-629.5 1068.97,-629.5 1068.97,-629.5 888.41,-629.5 888.41,-629.5 882.41,-629.5 876.41,-623.5 876.41,-617.5 876.41,-617.5 876.41,-233.5 876.41,-233.5 876.41,-227.5 882.41,-221.5 888.41,-221.5"/>
<text text-anchor="middle" x="978.688" y="-614.3" font-family="Times,serif" font-size="14.00">User</text>
<polyline fill="none" stroke="black" points="876.41,-607.5 1080.97,-607.5 "/>
<text text-anchor="start" x="884.41" y="-592.3" font-family="Times,serif" font-size="14.00">id :integer</text>
<text text-anchor="start" x="884.41" y="-578.3" font-family="Times,serif" font-size="14.00">email :string</text>
<text text-anchor="start" x="884.41" y="-564.3" font-family="Times,serif" font-size="14.00">password :string</text>
<text text-anchor="start" x="884.41" y="-550.3" font-family="Times,serif" font-size="14.00">created_at :datetime</text>
<text text-anchor="start" x="884.41" y="-536.3" font-family="Times,serif" font-size="14.00">updated_at :datetime</text>
<text text-anchor="start" x="884.41" y="-522.3" font-family="Times,serif" font-size="14.00">encrypted_password :string</text>
<text text-anchor="start" x="884.41" y="-508.3" font-family="Times,serif" font-size="14.00">reset_password_token :string</text>
<text text-anchor="start" x="884.41" y="-494.3" font-family="Times,serif" font-size="14.00">reset_password_sent_at :datetime</text>
<text text-anchor="start" x="884.41" y="-480.3" font-family="Times,serif" font-size="14.00">remember_created_at :datetime</text>
<text text-anchor="start" x="884.41" y="-466.3" font-family="Times,serif" font-size="14.00">sign_in_count :integer</text>
<text text-anchor="start" x="884.41" y="-452.3" font-family="Times,serif" font-size="14.00">current_sign_in_at :datetime</text>
<text text-anchor="start" x="884.41" y="-438.3" font-family="Times,serif" font-size="14.00">last_sign_in_at :datetime</text>
<text text-anchor="start" x="884.41" y="-424.3" font-family="Times,serif" font-size="14.00">current_sign_in_ip :string</text>
<text text-anchor="start" x="884.41" y="-410.3" font-family="Times,serif" font-size="14.00">last_sign_in_ip :string</text>
<text text-anchor="start" x="884.41" y="-396.3" font-family="Times,serif" font-size="14.00">company_id :integer</text>
<text text-anchor="start" x="884.41" y="-382.3" font-family="Times,serif" font-size="14.00">invitation_token :string</text>
<text text-anchor="start" x="884.41" y="-368.3" font-family="Times,serif" font-size="14.00">invitation_created_at :datetime</text>
<text text-anchor="start" x="884.41" y="-354.3" font-family="Times,serif" font-size="14.00">invitation_sent_at :datetime</text>
<text text-anchor="start" x="884.41" y="-340.3" font-family="Times,serif" font-size="14.00">invitation_accepted_at :datetime</text>
<text text-anchor="start" x="884.41" y="-326.3" font-family="Times,serif" font-size="14.00">invitation_limit :integer</text>
<text text-anchor="start" x="884.41" y="-312.3" font-family="Times,serif" font-size="14.00">invited_by_id :integer</text>
<text text-anchor="start" x="884.41" y="-298.3" font-family="Times,serif" font-size="14.00">invited_by_type :string</text>
<text text-anchor="start" x="884.41" y="-284.3" font-family="Times,serif" font-size="14.00">invitations_count :integer</text>
<text text-anchor="start" x="884.41" y="-270.3" font-family="Times,serif" font-size="14.00">roles_mask :integer</text>
<text text-anchor="start" x="884.41" y="-256.3" font-family="Times,serif" font-size="14.00">car_id :integer</text>
<text text-anchor="start" x="884.41" y="-242.3" font-family="Times,serif" font-size="14.00">first_name :string</text>
<text text-anchor="start" x="884.41" y="-228.3" font-family="Times,serif" font-size="14.00">last_name :string</text>
</g>
<!-- Car&#45;&gt;User -->
<g id="edge18" class="edge"><title>Car&#45;&gt;User</title>
<path fill="none" stroke="#20a488" d="M1298.91,-780.938C1227.89,-762.091 1131.11,-726.254 1069.26,-662 1061.62,-654.064 1054.61,-645.414 1048.17,-636.268"/>
<ellipse fill="none" stroke="#20a488" cx="1303.14" cy="-782.036" rx="4.00001" ry="4.00001"/>
<ellipse fill="#20a488" stroke="#20a488" cx="1045.84" cy="-632.832" rx="4.00002" ry="4.00002"/>
<text text-anchor="middle" x="1086.4" y="-650.8" font-family="Times,serif" font-size="14.00">driver</text>
</g>
<!-- Mailboxer::Message -->
<g id="node45" class="node"><title>Mailboxer::Message</title>
<ellipse fill="none" stroke="black" cx="1188.69" cy="-85.5" rx="82.6045" ry="18"/>
<text text-anchor="middle" x="1188.69" y="-81.3" font-family="Times,serif" font-size="14.00">Mailboxer::Message</text>
</g>
<!-- Car&#45;&gt;Mailboxer::Message -->
<g id="edge15" class="edge"><title>Car&#45;&gt;Mailboxer::Message</title>
<path fill="none" stroke="#ac1178" d="M1302.49,-691.733C1289.85,-672.08 1278.28,-651.093 1269.81,-630 1194.86,-443.367 1188.34,-195.555 1188.37,-113.881"/>
<ellipse fill="none" stroke="#ac1178" cx="1304.8" cy="-695.279" rx="4.00002" ry="4.00002"/>
<polygon fill="#ac1178" stroke="#ac1178" points="1188.37,-113.694 1192.91,-103.712 1188.39,-108.694 1188.41,-103.694 1188.41,-103.694 1188.41,-103.694 1188.39,-108.694 1183.91,-103.676 1188.37,-113.694 1188.37,-113.694"/>
<text text-anchor="middle" x="1296.13" y="-421.3" font-family="Times,serif" font-size="14.00">messages</text>
</g>
<!-- Mailboxer::Receipt -->
<g id="node46" class="node"><title>Mailboxer::Receipt</title>
<ellipse fill="none" stroke="black" cx="1001.69" cy="-85.5" rx="78.7367" ry="18"/>
<text text-anchor="middle" x="1001.69" y="-81.3" font-family="Times,serif" font-size="14.00">Mailboxer::Receipt</text>
</g>
<!-- Car&#45;&gt;Mailboxer::Receipt -->
<g id="edge16" class="edge"><title>Car&#45;&gt;Mailboxer::Receipt</title>
<path fill="none" stroke="#ea263e" d="M1299.94,-760.873C1245.73,-732.691 1180.34,-689.079 1144.16,-630 1048.38,-473.613 1153.58,-392.892 1089.69,-221 1074.14,-179.171 1043.68,-137.115 1023,-111.439"/>
<ellipse fill="none" stroke="#ea263e" cx="1303.61" cy="-762.752" rx="4.00002" ry="4.00002"/>
<polygon fill="#ea263e" stroke="#ea263e" points="1022.74,-111.118 1019.88,-100.531 1019.57,-107.251 1016.4,-103.383 1016.4,-103.383 1016.4,-103.383 1019.57,-107.251 1012.92,-106.236 1022.74,-111.118 1022.74,-111.118"/>
<text text-anchor="middle" x="1165.45" y="-421.3" font-family="Times,serif" font-size="14.00">receipts</text>
</g>
<!-- CarManufacturer -->
<g id="node10" class="node"><title>CarManufacturer</title>
<path fill="none" stroke="black" d="M1576.18,-1985.5C1576.18,-1985.5 1685.19,-1985.5 1685.19,-1985.5 1691.19,-1985.5 1697.19,-1991.5 1697.19,-1997.5 1697.19,-1997.5 1697.19,-2059.5 1697.19,-2059.5 1697.19,-2065.5 1691.19,-2071.5 1685.19,-2071.5 1685.19,-2071.5 1576.18,-2071.5 1576.18,-2071.5 1570.18,-2071.5 1564.18,-2065.5 1564.18,-2059.5 1564.18,-2059.5 1564.18,-1997.5 1564.18,-1997.5 1564.18,-1991.5 1570.18,-1985.5 1576.18,-1985.5"/>
<text text-anchor="middle" x="1630.69" y="-2056.3" font-family="Times,serif" font-size="14.00">CarManufacturer</text>
<polyline fill="none" stroke="black" points="1564.18,-2049.5 1697.19,-2049.5 "/>
<text text-anchor="start" x="1572.18" y="-2034.3" font-family="Times,serif" font-size="14.00">id :integer</text>
<text text-anchor="start" x="1572.18" y="-2020.3" font-family="Times,serif" font-size="14.00">name :string</text>
<text text-anchor="start" x="1572.18" y="-2006.3" font-family="Times,serif" font-size="14.00">created_at :datetime</text>
<text text-anchor="start" x="1572.18" y="-1992.3" font-family="Times,serif" font-size="14.00">updated_at :datetime</text>
</g>
<!-- CarModel -->
<g id="node11" class="node"><title>CarModel</title>
<path fill="none" stroke="black" d="M1575.26,-1712.5C1575.26,-1712.5 1730.12,-1712.5 1730.12,-1712.5 1736.12,-1712.5 1742.12,-1718.5 1742.12,-1724.5 1742.12,-1724.5 1742.12,-1800.5 1742.12,-1800.5 1742.12,-1806.5 1736.12,-1812.5 1730.12,-1812.5 1730.12,-1812.5 1575.26,-1812.5 1575.26,-1812.5 1569.26,-1812.5 1563.26,-1806.5 1563.26,-1800.5 1563.26,-1800.5 1563.26,-1724.5 1563.26,-1724.5 1563.26,-1718.5 1569.26,-1712.5 1575.26,-1712.5"/>
<text text-anchor="middle" x="1652.69" y="-1797.3" font-family="Times,serif" font-size="14.00">CarModel</text>
<polyline fill="none" stroke="black" points="1563.26,-1790.5 1742.12,-1790.5 "/>
<text text-anchor="start" x="1571.26" y="-1775.3" font-family="Times,serif" font-size="14.00">id :integer</text>
<text text-anchor="start" x="1571.26" y="-1761.3" font-family="Times,serif" font-size="14.00">name :string</text>
<text text-anchor="start" x="1571.26" y="-1747.3" font-family="Times,serif" font-size="14.00">car_manufacturer_id :integer</text>
<text text-anchor="start" x="1571.26" y="-1733.3" font-family="Times,serif" font-size="14.00">created_at :datetime</text>
<text text-anchor="start" x="1571.26" y="-1719.3" font-family="Times,serif" font-size="14.00">updated_at :datetime</text>
</g>
<!-- CarManufacturer&#45;&gt;CarModel -->
<g id="edge22" class="edge"><title>CarManufacturer&#45;&gt;CarModel</title>
<path fill="none" stroke="#7977cb" d="M1634.89,-1977.12C1638.55,-1933.16 1643.87,-1869.31 1647.74,-1822.88"/>
<ellipse fill="none" stroke="#7977cb" cx="1634.53" cy="-1981.39" rx="4" ry="4"/>
<polygon fill="#7977cb" stroke="#7977cb" points="1647.76,-1822.62 1653.08,-1813.03 1648.18,-1817.64 1648.59,-1812.66 1648.59,-1812.66 1648.59,-1812.66 1648.18,-1817.64 1644.11,-1812.29 1647.76,-1822.62 1647.76,-1822.62"/>
</g>
<!-- CarModel&#45;&gt;Car -->
<g id="edge24" class="edge"><title>CarModel&#45;&gt;Car</title>
<path fill="none" stroke="#c80cac" d="M1662.28,-1704.27C1671.06,-1646.86 1682.69,-1555.81 1682.69,-1476.5 1682.69,-1476.5 1682.69,-1476.5 1682.69,-1035.5 1682.69,-984.522 1662.8,-967.724 1620.69,-939 1586.99,-916.016 1567.41,-938.751 1530.69,-921 1513.34,-912.617 1496.38,-901.594 1480.57,-889.63"/>
<ellipse fill="none" stroke="#c80cac" cx="1661.62" cy="-1708.54" rx="4.00001" ry="4.00001"/>
<polygon fill="#c80cac" stroke="#c80cac" points="1480.31,-889.429 1475.17,-879.742 1476.36,-886.363 1472.41,-883.296 1472.41,-883.296 1472.41,-883.296 1476.36,-886.363 1469.65,-886.851 1480.31,-889.429 1480.31,-889.429"/>
</g>
<!-- CarType -->
<g id="node12" class="node"><title>CarType</title>
<path fill="none" stroke="black" d="M1735.18,-1859.5C1735.18,-1859.5 1844.19,-1859.5 1844.19,-1859.5 1850.19,-1859.5 1856.19,-1865.5 1856.19,-1871.5 1856.19,-1871.5 1856.19,-1933.5 1856.19,-1933.5 1856.19,-1939.5 1850.19,-1945.5 1844.19,-1945.5 1844.19,-1945.5 1735.18,-1945.5 1735.18,-1945.5 1729.18,-1945.5 1723.18,-1939.5 1723.18,-1933.5 1723.18,-1933.5 1723.18,-1871.5 1723.18,-1871.5 1723.18,-1865.5 1729.18,-1859.5 1735.18,-1859.5"/>
<text text-anchor="middle" x="1789.69" y="-1930.3" font-family="Times,serif" font-size="14.00">CarType</text>
<polyline fill="none" stroke="black" points="1723.18,-1923.5 1856.19,-1923.5 "/>
<text text-anchor="start" x="1731.18" y="-1908.3" font-family="Times,serif" font-size="14.00">id :integer</text>
<text text-anchor="start" x="1731.18" y="-1894.3" font-family="Times,serif" font-size="14.00">name :string</text>
<text text-anchor="start" x="1731.18" y="-1880.3" font-family="Times,serif" font-size="14.00">created_at :datetime</text>
<text text-anchor="start" x="1731.18" y="-1866.3" font-family="Times,serif" font-size="14.00">updated_at :datetime</text>
</g>
<!-- CarType&#45;&gt;Car -->
<g id="edge26" class="edge"><title>CarType&#45;&gt;Car</title>
<path fill="none" stroke="#868d69" d="M1794.81,-1850.95C1800.13,-1794.02 1807.69,-1698.72 1807.69,-1616.5 1807.69,-1616.5 1807.69,-1616.5 1807.69,-1035.5 1807.69,-975.332 1750.78,-984.357 1696.69,-958 1670.78,-945.375 1662.72,-945.693 1634.69,-939 1589.06,-928.106 1573.18,-940.862 1530.69,-921 1513.24,-912.843 1496.21,-901.94 1480.38,-890.027"/>
<ellipse fill="none" stroke="#868d69" cx="1794.42" cy="-1855.08" rx="4" ry="4"/>
<polygon fill="#868d69" stroke="#868d69" points="1480.13,-889.83 1474.97,-880.155 1476.17,-886.773 1472.22,-883.715 1472.22,-883.715 1472.22,-883.715 1476.17,-886.773 1469.46,-887.275 1480.13,-889.83 1480.13,-889.83"/>
</g>
<!-- Company -->
<g id="node13" class="node"><title>Company</title>
<path fill="none" stroke="black" d="M883.182,-1152.5C883.182,-1152.5 992.193,-1152.5 992.193,-1152.5 998.193,-1152.5 1004.19,-1158.5 1004.19,-1164.5 1004.19,-1164.5 1004.19,-1268.5 1004.19,-1268.5 1004.19,-1274.5 998.193,-1280.5 992.193,-1280.5 992.193,-1280.5 883.182,-1280.5 883.182,-1280.5 877.182,-1280.5 871.182,-1274.5 871.182,-1268.5 871.182,-1268.5 871.182,-1164.5 871.182,-1164.5 871.182,-1158.5 877.182,-1152.5 883.182,-1152.5"/>
<text text-anchor="middle" x="937.688" y="-1265.3" font-family="Times,serif" font-size="14.00">Company</text>
<polyline fill="none" stroke="black" points="871.182,-1258.5 1004.19,-1258.5 "/>
<text text-anchor="start" x="879.182" y="-1243.3" font-family="Times,serif" font-size="14.00">id :integer</text>
<text text-anchor="start" x="879.182" y="-1229.3" font-family="Times,serif" font-size="14.00">name :string</text>
<text text-anchor="start" x="879.182" y="-1215.3" font-family="Times,serif" font-size="14.00">subdomain :string</text>
<text text-anchor="start" x="879.182" y="-1201.3" font-family="Times,serif" font-size="14.00">created_at :datetime</text>
<text text-anchor="start" x="879.182" y="-1187.3" font-family="Times,serif" font-size="14.00">updated_at :datetime</text>
<text text-anchor="start" x="879.182" y="-1173.3" font-family="Times,serif" font-size="14.00">plan_id :integer</text>
<text text-anchor="start" x="879.182" y="-1159.3" font-family="Times,serif" font-size="14.00">time_zone :string</text>
</g>
<!-- Company&#45;&gt;AlarmNotification -->
<g id="edge34" class="edge"><title>Company&#45;&gt;AlarmNotification</title>
<path fill="none" stroke="#a6ce50" d="M1001.43,-1146.32C1010.82,-1136.12 1020.56,-1125.55 1030.1,-1115.19"/>
<ellipse fill="none" stroke="#a6ce50" cx="998.449" cy="-1149.55" rx="4.00002" ry="4.00002"/>
<polygon fill="#a6ce50" stroke="#a6ce50" points="1030.24,-1115.05 1040.32,-1110.75 1033.62,-1111.37 1037.01,-1107.7 1037.01,-1107.7 1037.01,-1107.7 1033.62,-1111.37 1033.7,-1104.65 1030.24,-1115.05 1030.24,-1115.05"/>
</g>
<!-- Company&#45;&gt;Car -->
<g id="edge29" class="edge"><title>Company&#45;&gt;Car</title>
<path fill="none" stroke="#e931b8" d="M972.251,-1144.8C973.797,-1141.16 975.285,-1137.55 976.688,-1134 1006.51,-1058.48 972.39,-1019.26 1025.69,-958 1095.65,-877.589 1214.28,-837.185 1297.02,-817.816"/>
<ellipse fill="none" stroke="#e931b8" cx="970.603" cy="-1148.59" rx="4.00002" ry="4.00002"/>
<polygon fill="#e931b8" stroke="#e931b8" points="1297.18,-817.78 1307.93,-819.944 1302.05,-816.668 1306.93,-815.557 1306.93,-815.557 1306.93,-815.557 1302.05,-816.668 1305.93,-811.169 1297.18,-817.78 1297.18,-817.78"/>
</g>
<!-- Company&#45;&gt;Device -->
<g id="edge30" class="edge"><title>Company&#45;&gt;Device</title>
<path fill="none" stroke="#a07fc4" d="M944.815,-1144.04C952.239,-1079.19 965.23,-989.126 982.688,-958 1074.19,-794.851 1130.23,-761.319 1298.69,-680 1411.74,-625.425 1453.53,-654.329 1576.69,-630 1892.28,-567.659 2265.07,-484.585 2432.47,-446.776"/>
<ellipse fill="none" stroke="#a07fc4" cx="944.341" cy="-1148.23" rx="4.00001" ry="4.00001"/>
<polygon fill="#a07fc4" stroke="#a07fc4" points="2432.47,-446.776 2443.22,-448.961 2437.35,-445.674 2442.23,-444.571 2442.23,-444.571 2442.23,-444.571 2437.35,-445.674 2441.24,-440.182 2432.47,-446.776 2432.47,-446.776"/>
</g>
<!-- Company&#45;&gt;Group -->
<g id="edge32" class="edge"><title>Company&#45;&gt;Group</title>
<path fill="none" stroke="#814cb9" d="M1012.06,-1186.21C1095.35,-1153.41 1229.63,-1100.53 1313.61,-1067.46"/>
<ellipse fill="none" stroke="#814cb9" cx="1008.1" cy="-1187.77" rx="4.00001" ry="4.00001"/>
<polygon fill="#814cb9" stroke="#814cb9" points="1313.78,-1067.39 1324.74,-1067.91 1318.44,-1065.56 1323.09,-1063.73 1323.09,-1063.73 1323.09,-1063.73 1318.44,-1065.56 1321.44,-1059.54 1313.78,-1067.39 1313.78,-1067.39"/>
</g>
<!-- Simcard -->
<g id="node29" class="node"><title>Simcard</title>
<path fill="none" stroke="black" d="M2453.95,-0.5C2453.95,-0.5 2589.42,-0.5 2589.42,-0.5 2595.42,-0.5 2601.42,-6.5 2601.42,-12.5 2601.42,-12.5 2601.42,-158.5 2601.42,-158.5 2601.42,-164.5 2595.42,-170.5 2589.42,-170.5 2589.42,-170.5 2453.95,-170.5 2453.95,-170.5 2447.95,-170.5 2441.95,-164.5 2441.95,-158.5 2441.95,-158.5 2441.95,-12.5 2441.95,-12.5 2441.95,-6.5 2447.95,-0.5 2453.95,-0.5"/>
<text text-anchor="middle" x="2521.69" y="-155.3" font-family="Times,serif" font-size="14.00">Simcard</text>
<polyline fill="none" stroke="black" points="2441.95,-148.5 2601.42,-148.5 "/>
<text text-anchor="start" x="2449.95" y="-133.3" font-family="Times,serif" font-size="14.00">id :integer</text>
<text text-anchor="start" x="2449.95" y="-119.3" font-family="Times,serif" font-size="14.00">telephone_number :string</text>
<text text-anchor="start" x="2449.95" y="-105.3" font-family="Times,serif" font-size="14.00">teleprovider_id :integer</text>
<text text-anchor="start" x="2449.95" y="-91.3" font-family="Times,serif" font-size="14.00">monthly_price :float</text>
<text text-anchor="start" x="2449.95" y="-77.3" font-family="Times,serif" font-size="14.00">device_id :integer</text>
<text text-anchor="start" x="2449.95" y="-63.3" font-family="Times,serif" font-size="14.00">created_at :datetime</text>
<text text-anchor="start" x="2449.95" y="-49.3" font-family="Times,serif" font-size="14.00">updated_at :datetime</text>
<text text-anchor="start" x="2449.95" y="-35.3" font-family="Times,serif" font-size="14.00">company_id :integer</text>
<text text-anchor="start" x="2449.95" y="-21.3" font-family="Times,serif" font-size="14.00">deleted_at :datetime</text>
<text text-anchor="start" x="2449.95" y="-7.3" font-family="Times,serif" font-size="14.00">name :string</text>
</g>
<!-- Company&#45;&gt;Simcard -->
<g id="edge31" class="edge"><title>Company&#45;&gt;Simcard</title>
<path fill="none" stroke="#4b58aa" d="M935.445,-1144.02C932.989,-1013.14 936.104,-742.639 1000.69,-680 1017.84,-663.365 1083.15,-666.114 1106.69,-662 1185.87,-648.16 1223.03,-681.562 1284.69,-630 1433.46,-505.601 1280.28,-335.648 1436.69,-221 1523.87,-157.091 2291.4,-212.026 2432.05,-170.559"/>
<ellipse fill="none" stroke="#4b58aa" cx="935.526" cy="-1148.06" rx="4" ry="4"/>
<polygon fill="#4b58aa" stroke="#4b58aa" points="2432.32,-170.464 2443.25,-171.359 2437.03,-168.791 2441.75,-167.118 2441.75,-167.118 2441.75,-167.118 2437.03,-168.791 2440.24,-162.877 2432.32,-170.464 2432.32,-170.464"/>
</g>
<!-- Subscription -->
<g id="node32" class="node"><title>Subscription</title>
<path fill="none" stroke="black" d="M630.182,-958.5C630.182,-958.5 739.193,-958.5 739.193,-958.5 745.193,-958.5 751.193,-964.5 751.193,-970.5 751.193,-970.5 751.193,-1102.5 751.193,-1102.5 751.193,-1108.5 745.193,-1114.5 739.193,-1114.5 739.193,-1114.5 630.182,-1114.5 630.182,-1114.5 624.182,-1114.5 618.182,-1108.5 618.182,-1102.5 618.182,-1102.5 618.182,-970.5 618.182,-970.5 618.182,-964.5 624.182,-958.5 630.182,-958.5"/>
<text text-anchor="middle" x="684.688" y="-1099.3" font-family="Times,serif" font-size="14.00">Subscription</text>
<polyline fill="none" stroke="black" points="618.182,-1092.5 751.193,-1092.5 "/>
<text text-anchor="start" x="626.182" y="-1077.3" font-family="Times,serif" font-size="14.00">id :integer</text>
<text text-anchor="start" x="626.182" y="-1063.3" font-family="Times,serif" font-size="14.00">email :string</text>
<text text-anchor="start" x="626.182" y="-1049.3" font-family="Times,serif" font-size="14.00">name :string</text>
<text text-anchor="start" x="626.182" y="-1035.3" font-family="Times,serif" font-size="14.00">paymill_id :string</text>
<text text-anchor="start" x="626.182" y="-1021.3" font-family="Times,serif" font-size="14.00">created_at :datetime</text>
<text text-anchor="start" x="626.182" y="-1007.3" font-family="Times,serif" font-size="14.00">updated_at :datetime</text>
<text text-anchor="start" x="626.182" y="-993.3" font-family="Times,serif" font-size="14.00">plan_id :integer</text>
<text text-anchor="start" x="626.182" y="-979.3" font-family="Times,serif" font-size="14.00">company_id :integer</text>
<text text-anchor="start" x="626.182" y="-965.3" font-family="Times,serif" font-size="14.00">active :boolean</text>
</g>
<!-- Company&#45;&gt;Subscription -->
<g id="edge33" class="edge"><title>Company&#45;&gt;Subscription</title>
<path fill="none" stroke="#bb9a85" d="M864.312,-1163.88C831.453,-1140.76 792.75,-1113.53 759.7,-1090.28"/>
<ellipse fill="none" stroke="#bb9a85" cx="867.613" cy="-1166.2" rx="4.00002" ry="4.00002"/>
<polygon fill="#bb9a85" stroke="#bb9a85" points="759.605,-1090.21 754.016,-1080.77 755.516,-1087.33 751.427,-1084.45 751.427,-1084.45 751.427,-1084.45 755.516,-1087.33 748.837,-1088.14 759.605,-1090.21 759.605,-1090.21"/>
</g>
<!-- Company&#45;&gt;User -->
<g id="edge28" class="edge"><title>Company&#45;&gt;User</title>
<path fill="none" stroke="#e776cc" d="M918.221,-1144.17C917.629,-1140.75 917.112,-1137.34 916.688,-1134 908.967,-1073.09 920.177,-700.907 922.688,-680 924.277,-666.766 926.246,-653.207 928.486,-639.575"/>
<ellipse fill="none" stroke="#e776cc" cx="918.987" cy="-1148.25" rx="4.00001" ry="4.00001"/>
<polygon fill="#e776cc" stroke="#e776cc" points="928.499,-639.499 934.601,-630.388 929.331,-634.569 930.164,-629.639 930.164,-629.639 930.164,-629.639 929.331,-634.569 925.726,-628.89 928.499,-639.499 928.499,-639.499"/>
</g>
<!-- Device&#45;&gt;Simcard -->
<g id="edge36" class="edge"><title>Device&#45;&gt;Simcard</title>
<path fill="none" stroke="#6b0954" d="M2521.69,-311.2C2521.69,-268.117 2521.69,-219.597 2521.69,-178.698"/>
<ellipse fill="none" stroke="#6b0954" cx="2521.69" cy="-315.407" rx="4" ry="4"/>
<ellipse fill="#6b0954" stroke="#6b0954" cx="2521.69" cy="-174.624" rx="4" ry="4"/>
</g>
<!-- Device&#45;&gt;State -->
<g id="edge37" class="edge"><title>Device&#45;&gt;State</title>
<path fill="none" stroke="#a31931" d="M2467.09,-311.966C2445.07,-266.594 2420.08,-215.087 2399.55,-172.768"/>
<ellipse fill="none" stroke="#a31931" cx="2468.95" cy="-315.809" rx="4.00002" ry="4.00002"/>
<polygon fill="#a31931" stroke="#a31931" points="2399.47,-172.604 2399.15,-161.643 2397.28,-168.106 2395.1,-163.607 2395.1,-163.607 2395.1,-163.607 2397.28,-168.106 2391.05,-165.572 2399.47,-172.604 2399.47,-172.604"/>
</g>
<!-- DeviceManufacturer -->
<g id="node15" class="node"><title>DeviceManufacturer</title>
<path fill="none" stroke="black" d="M2279.18,-1985.5C2279.18,-1985.5 2388.19,-1985.5 2388.19,-1985.5 2394.19,-1985.5 2400.19,-1991.5 2400.19,-1997.5 2400.19,-1997.5 2400.19,-2059.5 2400.19,-2059.5 2400.19,-2065.5 2394.19,-2071.5 2388.19,-2071.5 2388.19,-2071.5 2279.18,-2071.5 2279.18,-2071.5 2273.18,-2071.5 2267.18,-2065.5 2267.18,-2059.5 2267.18,-2059.5 2267.18,-1997.5 2267.18,-1997.5 2267.18,-1991.5 2273.18,-1985.5 2279.18,-1985.5"/>
<text text-anchor="middle" x="2333.69" y="-2056.3" font-family="Times,serif" font-size="14.00">DeviceManufacturer</text>
<polyline fill="none" stroke="black" points="2267.18,-2049.5 2400.19,-2049.5 "/>
<text text-anchor="start" x="2275.18" y="-2034.3" font-family="Times,serif" font-size="14.00">id :integer</text>
<text text-anchor="start" x="2275.18" y="-2020.3" font-family="Times,serif" font-size="14.00">name :string</text>
<text text-anchor="start" x="2275.18" y="-2006.3" font-family="Times,serif" font-size="14.00">created_at :datetime</text>
<text text-anchor="start" x="2275.18" y="-1992.3" font-family="Times,serif" font-size="14.00">updated_at :datetime</text>
</g>
<!-- DeviceModel -->
<g id="node16" class="node"><title>DeviceModel</title>
<path fill="none" stroke="black" d="M2440.54,-1705.5C2440.54,-1705.5 2614.84,-1705.5 2614.84,-1705.5 2620.84,-1705.5 2626.84,-1711.5 2626.84,-1717.5 2626.84,-1717.5 2626.84,-1807.5 2626.84,-1807.5 2626.84,-1813.5 2620.84,-1819.5 2614.84,-1819.5 2614.84,-1819.5 2440.54,-1819.5 2440.54,-1819.5 2434.54,-1819.5 2428.54,-1813.5 2428.54,-1807.5 2428.54,-1807.5 2428.54,-1717.5 2428.54,-1717.5 2428.54,-1711.5 2434.54,-1705.5 2440.54,-1705.5"/>
<text text-anchor="middle" x="2527.69" y="-1804.3" font-family="Times,serif" font-size="14.00">DeviceModel</text>
<polyline fill="none" stroke="black" points="2428.54,-1797.5 2626.84,-1797.5 "/>
<text text-anchor="start" x="2436.54" y="-1782.3" font-family="Times,serif" font-size="14.00">id :integer</text>
<text text-anchor="start" x="2436.54" y="-1768.3" font-family="Times,serif" font-size="14.00">name :string</text>
<text text-anchor="start" x="2436.54" y="-1754.3" font-family="Times,serif" font-size="14.00">device_manufacturer_id :integer</text>
<text text-anchor="start" x="2436.54" y="-1740.3" font-family="Times,serif" font-size="14.00">protocol :string</text>
<text text-anchor="start" x="2436.54" y="-1726.3" font-family="Times,serif" font-size="14.00">created_at :datetime</text>
<text text-anchor="start" x="2436.54" y="-1712.3" font-family="Times,serif" font-size="14.00">updated_at :datetime</text>
</g>
<!-- DeviceManufacturer&#45;&gt;DeviceModel -->
<g id="edge39" class="edge"><title>DeviceManufacturer&#45;&gt;DeviceModel</title>
<path fill="none" stroke="#0a7d24" d="M2351.26,-1977.49C2365.14,-1942.22 2386.8,-1895.03 2414.69,-1859 2423.44,-1847.69 2433.72,-1836.79 2444.46,-1826.65"/>
<ellipse fill="none" stroke="#0a7d24" cx="2349.69" cy="-1981.54" rx="4.00001" ry="4.00001"/>
<polygon fill="#0a7d24" stroke="#0a7d24" points="2444.6,-1826.52 2455.01,-1823.06 2448.28,-1823.14 2451.96,-1819.75 2451.96,-1819.75 2451.96,-1819.75 2448.28,-1823.14 2448.91,-1816.44 2444.6,-1826.52 2444.6,-1826.52"/>
</g>
<!-- DeviceModel&#45;&gt;Device -->
<g id="edge41" class="edge"><title>DeviceModel&#45;&gt;Device</title>
<path fill="none" stroke="#46af22" d="M2526.62,-1696.96C2525.76,-1639.19 2524.69,-1552.2 2524.69,-1476.5 2524.69,-1476.5 2524.69,-1476.5 2524.69,-799.5 2524.69,-713.219 2523.88,-615.716 2523.1,-542.041"/>
<ellipse fill="none" stroke="#46af22" cx="2526.69" cy="-1701.26" rx="4" ry="4"/>
<polygon fill="#46af22" stroke="#46af22" points="2523.09,-541.807 2527.49,-531.759 2523.04,-536.807 2522.99,-531.807 2522.99,-531.807 2522.99,-531.807 2523.04,-536.807 2518.49,-531.856 2523.09,-541.807 2523.09,-541.807"/>
</g>
<!-- DeviceType -->
<g id="node17" class="node"><title>DeviceType</title>
<path fill="none" stroke="black" d="M2615.18,-1299.5C2615.18,-1299.5 2724.19,-1299.5 2724.19,-1299.5 2730.19,-1299.5 2736.19,-1305.5 2736.19,-1311.5 2736.19,-1311.5 2736.19,-1373.5 2736.19,-1373.5 2736.19,-1379.5 2730.19,-1385.5 2724.19,-1385.5 2724.19,-1385.5 2615.18,-1385.5 2615.18,-1385.5 2609.18,-1385.5 2603.18,-1379.5 2603.18,-1373.5 2603.18,-1373.5 2603.18,-1311.5 2603.18,-1311.5 2603.18,-1305.5 2609.18,-1299.5 2615.18,-1299.5"/>
<text text-anchor="middle" x="2669.69" y="-1370.3" font-family="Times,serif" font-size="14.00">DeviceType</text>
<polyline fill="none" stroke="black" points="2603.18,-1363.5 2736.19,-1363.5 "/>
<text text-anchor="start" x="2611.18" y="-1348.3" font-family="Times,serif" font-size="14.00">id :integer</text>
<text text-anchor="start" x="2611.18" y="-1334.3" font-family="Times,serif" font-size="14.00">name :string</text>
<text text-anchor="start" x="2611.18" y="-1320.3" font-family="Times,serif" font-size="14.00">created_at :datetime</text>
<text text-anchor="start" x="2611.18" y="-1306.3" font-family="Times,serif" font-size="14.00">updated_at :datetime</text>
</g>
<!-- DeviceType&#45;&gt;Device -->
<g id="edge43" class="edge"><title>DeviceType&#45;&gt;Device</title>
<path fill="none" stroke="#5afb69" d="M2649.57,-1291.87C2634.58,-1250.39 2616.69,-1189.3 2616.69,-1134 2616.69,-1134 2616.69,-1134 2616.69,-799.5 2616.69,-710.925 2591.22,-614.077 2566.66,-541.269"/>
<ellipse fill="none" stroke="#5afb69" cx="2650.95" cy="-1295.63" rx="4.00001" ry="4.00001"/>
<polygon fill="#5afb69" stroke="#5afb69" points="2566.59,-541.073 2567.61,-530.155 2564.97,-536.342 2563.36,-531.611 2563.36,-531.611 2563.36,-531.611 2564.97,-536.342 2559.1,-533.066 2566.59,-541.073 2566.59,-541.073"/>
</g>
<!-- Feature -->
<g id="node18" class="node"><title>Feature</title>
<path fill="none" stroke="black" d="M520.182,-1978.5C520.182,-1978.5 629.193,-1978.5 629.193,-1978.5 635.193,-1978.5 641.193,-1984.5 641.193,-1990.5 641.193,-1990.5 641.193,-2066.5 641.193,-2066.5 641.193,-2072.5 635.193,-2078.5 629.193,-2078.5 629.193,-2078.5 520.182,-2078.5 520.182,-2078.5 514.182,-2078.5 508.182,-2072.5 508.182,-2066.5 508.182,-2066.5 508.182,-1990.5 508.182,-1990.5 508.182,-1984.5 514.182,-1978.5 520.182,-1978.5"/>
<text text-anchor="middle" x="574.688" y="-2063.3" font-family="Times,serif" font-size="14.00">Feature</text>
<polyline fill="none" stroke="black" points="508.182,-2056.5 641.193,-2056.5 "/>
<text text-anchor="start" x="516.182" y="-2041.3" font-family="Times,serif" font-size="14.00">id :integer</text>
<text text-anchor="start" x="516.182" y="-2027.3" font-family="Times,serif" font-size="14.00">name :string</text>
<text text-anchor="start" x="516.182" y="-2013.3" font-family="Times,serif" font-size="14.00">role :string</text>
<text text-anchor="start" x="516.182" y="-1999.3" font-family="Times,serif" font-size="14.00">created_at :datetime</text>
<text text-anchor="start" x="516.182" y="-1985.3" font-family="Times,serif" font-size="14.00">updated_at :datetime</text>
</g>
<!-- PlanType -->
<g id="node24" class="node"><title>PlanType</title>
<path fill="none" stroke="black" d="M558.182,-1719.5C558.182,-1719.5 667.193,-1719.5 667.193,-1719.5 673.193,-1719.5 679.193,-1725.5 679.193,-1731.5 679.193,-1731.5 679.193,-1793.5 679.193,-1793.5 679.193,-1799.5 673.193,-1805.5 667.193,-1805.5 667.193,-1805.5 558.182,-1805.5 558.182,-1805.5 552.182,-1805.5 546.182,-1799.5 546.182,-1793.5 546.182,-1793.5 546.182,-1731.5 546.182,-1731.5 546.182,-1725.5 552.182,-1719.5 558.182,-1719.5"/>
<text text-anchor="middle" x="612.688" y="-1790.3" font-family="Times,serif" font-size="14.00">PlanType</text>
<polyline fill="none" stroke="black" points="546.182,-1783.5 679.193,-1783.5 "/>
<text text-anchor="start" x="554.182" y="-1768.3" font-family="Times,serif" font-size="14.00">id :integer</text>
<text text-anchor="start" x="554.182" y="-1754.3" font-family="Times,serif" font-size="14.00">name :string</text>
<text text-anchor="start" x="554.182" y="-1740.3" font-family="Times,serif" font-size="14.00">created_at :datetime</text>
<text text-anchor="start" x="554.182" y="-1726.3" font-family="Times,serif" font-size="14.00">updated_at :datetime</text>
</g>
<!-- Feature&#45;&gt;PlanType -->
<g id="edge45" class="edge"><title>Feature&#45;&gt;PlanType</title>
<path fill="none" stroke="#f0e487" d="M583.173,-1968.55C589.772,-1922.7 598.841,-1859.7 605.178,-1815.67"/>
<polygon fill="#f0e487" stroke="#f0e487" points="583.171,-1968.56 577.292,-1977.82 582.459,-1973.51 581.746,-1978.46 581.746,-1978.46 581.746,-1978.46 582.459,-1973.51 586.2,-1979.1 583.171,-1968.56 583.171,-1968.56"/>
<polygon fill="#f0e487" stroke="#f0e487" points="605.182,-1815.64 611.061,-1806.38 605.895,-1810.69 606.607,-1805.74 606.607,-1805.74 606.607,-1805.74 605.895,-1810.69 602.153,-1805.1 605.182,-1815.64 605.182,-1815.64"/>
</g>
<!-- Group&#45;&gt;AlarmGroup -->
<g id="edge47" class="edge"><title>Group&#45;&gt;AlarmGroup</title>
<path fill="none" stroke="#89673b" d="M1439.5,-980.262C1472.54,-943.618 1515.8,-895.642 1549.18,-858.618"/>
<ellipse fill="none" stroke="#89673b" cx="1436.6" cy="-983.475" rx="4.00002" ry="4.00002"/>
<polygon fill="#89673b" stroke="#89673b" points="1549.45,-858.319 1559.49,-853.905 1552.8,-854.605 1556.15,-850.892 1556.15,-850.892 1556.15,-850.892 1552.8,-854.605 1552.81,-847.878 1549.45,-858.319 1549.45,-858.319"/>
</g>
<!-- Group&#45;&gt;Car -->
<g id="edge48" class="edge"><title>Group&#45;&gt;Car</title>
<path fill="none" stroke="#746876" d="M1389.69,-978.091C1389.69,-963.653 1389.69,-947.563 1389.69,-931.137"/>
<ellipse fill="none" stroke="#746876" cx="1389.69" cy="-982.446" rx="4" ry="4"/>
<polygon fill="#746876" stroke="#746876" points="1389.69,-930.878 1394.19,-920.878 1389.69,-925.878 1389.69,-920.878 1389.69,-920.878 1389.69,-920.878 1389.69,-925.878 1385.19,-920.878 1389.69,-930.878 1389.69,-930.878"/>
</g>
<!-- GroupWorkHour -->
<g id="node20" class="node"><title>GroupWorkHour</title>
<path fill="none" stroke="black" d="M2468.85,-1964.5C2468.85,-1964.5 2582.52,-1964.5 2582.52,-1964.5 2588.52,-1964.5 2594.52,-1970.5 2594.52,-1976.5 2594.52,-1976.5 2594.52,-2080.5 2594.52,-2080.5 2594.52,-2086.5 2588.52,-2092.5 2582.52,-2092.5 2582.52,-2092.5 2468.85,-2092.5 2468.85,-2092.5 2462.85,-2092.5 2456.85,-2086.5 2456.85,-2080.5 2456.85,-2080.5 2456.85,-1976.5 2456.85,-1976.5 2456.85,-1970.5 2462.85,-1964.5 2468.85,-1964.5"/>
<text text-anchor="middle" x="2525.69" y="-2077.3" font-family="Times,serif" font-size="14.00">GroupWorkHour</text>
<polyline fill="none" stroke="black" points="2456.85,-2070.5 2594.52,-2070.5 "/>
<text text-anchor="start" x="2464.85" y="-2055.3" font-family="Times,serif" font-size="14.00">id :integer</text>
<text text-anchor="start" x="2464.85" y="-2041.3" font-family="Times,serif" font-size="14.00">day_of_week :integer</text>
<text text-anchor="start" x="2464.85" y="-2027.3" font-family="Times,serif" font-size="14.00">starts_at :datetime</text>
<text text-anchor="start" x="2464.85" y="-2013.3" font-family="Times,serif" font-size="14.00">ends_at :datetime</text>
<text text-anchor="start" x="2464.85" y="-1999.3" font-family="Times,serif" font-size="14.00">group_id :integer</text>
<text text-anchor="start" x="2464.85" y="-1985.3" font-family="Times,serif" font-size="14.00">created_at :datetime</text>
<text text-anchor="start" x="2464.85" y="-1971.3" font-family="Times,serif" font-size="14.00">updated_at :datetime</text>
</g>
<!-- Parameter -->
<g id="node21" class="node"><title>Parameter</title>
<path fill="none" stroke="black" d="M1457.18,-1411.5C1457.18,-1411.5 1566.19,-1411.5 1566.19,-1411.5 1572.19,-1411.5 1578.19,-1417.5 1578.19,-1423.5 1578.19,-1423.5 1578.19,-1527.5 1578.19,-1527.5 1578.19,-1533.5 1572.19,-1539.5 1566.19,-1539.5 1566.19,-1539.5 1457.18,-1539.5 1457.18,-1539.5 1451.18,-1539.5 1445.18,-1533.5 1445.18,-1527.5 1445.18,-1527.5 1445.18,-1423.5 1445.18,-1423.5 1445.18,-1417.5 1451.18,-1411.5 1457.18,-1411.5"/>
<text text-anchor="middle" x="1511.69" y="-1524.3" font-family="Times,serif" font-size="14.00">Parameter</text>
<polyline fill="none" stroke="black" points="1445.18,-1517.5 1578.19,-1517.5 "/>
<text text-anchor="start" x="1453.18" y="-1502.3" font-family="Times,serif" font-size="14.00">id :integer</text>
<text text-anchor="start" x="1453.18" y="-1488.3" font-family="Times,serif" font-size="14.00">name :string</text>
<text text-anchor="start" x="1453.18" y="-1474.3" font-family="Times,serif" font-size="14.00">data_type :string</text>
<text text-anchor="start" x="1453.18" y="-1460.3" font-family="Times,serif" font-size="14.00">rule_id :integer</text>
<text text-anchor="start" x="1453.18" y="-1446.3" font-family="Times,serif" font-size="14.00">created_at :datetime</text>
<text text-anchor="start" x="1453.18" y="-1432.3" font-family="Times,serif" font-size="14.00">updated_at :datetime</text>
<text text-anchor="start" x="1453.18" y="-1418.3" font-family="Times,serif" font-size="14.00">description :string</text>
</g>
<!-- Payment -->
<g id="node22" class="node"><title>Payment</title>
<path fill="none" stroke="black" d="M2624.18,-1985.5C2624.18,-1985.5 2733.19,-1985.5 2733.19,-1985.5 2739.19,-1985.5 2745.19,-1991.5 2745.19,-1997.5 2745.19,-1997.5 2745.19,-2059.5 2745.19,-2059.5 2745.19,-2065.5 2739.19,-2071.5 2733.19,-2071.5 2733.19,-2071.5 2624.18,-2071.5 2624.18,-2071.5 2618.18,-2071.5 2612.18,-2065.5 2612.18,-2059.5 2612.18,-2059.5 2612.18,-1997.5 2612.18,-1997.5 2612.18,-1991.5 2618.18,-1985.5 2624.18,-1985.5"/>
<text text-anchor="middle" x="2678.69" y="-2056.3" font-family="Times,serif" font-size="14.00">Payment</text>
<polyline fill="none" stroke="black" points="2612.18,-2049.5 2745.19,-2049.5 "/>
<text text-anchor="start" x="2620.18" y="-2034.3" font-family="Times,serif" font-size="14.00">id :integer</text>
<text text-anchor="start" x="2620.18" y="-2020.3" font-family="Times,serif" font-size="14.00">company_id :integer</text>
<text text-anchor="start" x="2620.18" y="-2006.3" font-family="Times,serif" font-size="14.00">created_at :datetime</text>
<text text-anchor="start" x="2620.18" y="-1992.3" font-family="Times,serif" font-size="14.00">updated_at :datetime</text>
</g>
<!-- Plan -->
<g id="node23" class="node"><title>Plan</title>
<path fill="none" stroke="black" d="M691.01,-1404.5C691.01,-1404.5 802.365,-1404.5 802.365,-1404.5 808.365,-1404.5 814.365,-1410.5 814.365,-1416.5 814.365,-1416.5 814.365,-1534.5 814.365,-1534.5 814.365,-1540.5 808.365,-1546.5 802.365,-1546.5 802.365,-1546.5 691.01,-1546.5 691.01,-1546.5 685.01,-1546.5 679.01,-1540.5 679.01,-1534.5 679.01,-1534.5 679.01,-1416.5 679.01,-1416.5 679.01,-1410.5 685.01,-1404.5 691.01,-1404.5"/>
<text text-anchor="middle" x="746.688" y="-1531.3" font-family="Times,serif" font-size="14.00">Plan</text>
<polyline fill="none" stroke="black" points="679.01,-1524.5 814.365,-1524.5 "/>
<text text-anchor="start" x="687.01" y="-1509.3" font-family="Times,serif" font-size="14.00">id :integer</text>
<text text-anchor="start" x="687.01" y="-1495.3" font-family="Times,serif" font-size="14.00">plan_type_id :integer</text>
<text text-anchor="start" x="687.01" y="-1481.3" font-family="Times,serif" font-size="14.00">interval :string</text>
<text text-anchor="start" x="687.01" y="-1467.3" font-family="Times,serif" font-size="14.00">currency :string</text>
<text text-anchor="start" x="687.01" y="-1453.3" font-family="Times,serif" font-size="14.00">price :float</text>
<text text-anchor="start" x="687.01" y="-1439.3" font-family="Times,serif" font-size="14.00">paymill_id :string</text>
<text text-anchor="start" x="687.01" y="-1425.3" font-family="Times,serif" font-size="14.00">created_at :datetime</text>
<text text-anchor="start" x="687.01" y="-1411.3" font-family="Times,serif" font-size="14.00">updated_at :datetime</text>
</g>
<!-- Plan&#45;&gt;Company -->
<g id="edge53" class="edge"><title>Plan&#45;&gt;Company</title>
<path fill="none" stroke="#c6dc8d" d="M796.548,-1397.43C817.426,-1366.28 842.444,-1330.35 866.688,-1299 869.409,-1295.48 872.234,-1291.92 875.122,-1288.34"/>
<ellipse fill="none" stroke="#c6dc8d" cx="794.106" cy="-1401.09" rx="4.00002" ry="4.00002"/>
<polygon fill="#c6dc8d" stroke="#c6dc8d" points="875.191,-1288.26 885.008,-1283.37 878.359,-1284.39 881.526,-1280.52 881.526,-1280.52 881.526,-1280.52 878.359,-1284.39 878.045,-1277.67 875.191,-1288.26 875.191,-1288.26"/>
</g>
<!-- Plan&#45;&gt;Subscription -->
<g id="edge54" class="edge"><title>Plan&#45;&gt;Subscription</title>
<path fill="none" stroke="#48e5d3" d="M735.584,-1396.23C724.742,-1319.82 708.277,-1203.77 697.03,-1124.49"/>
<ellipse fill="none" stroke="#48e5d3" cx="736.164" cy="-1400.33" rx="4.00001" ry="4.00001"/>
<polygon fill="#48e5d3" stroke="#48e5d3" points="697.021,-1124.43 700.072,-1113.9 696.319,-1119.48 695.616,-1114.53 695.616,-1114.53 695.616,-1114.53 696.319,-1119.48 691.161,-1115.16 697.021,-1124.43 697.021,-1124.43"/>
</g>
<!-- PlanType&#45;&gt;Plan -->
<g id="edge56" class="edge"><title>PlanType&#45;&gt;Plan</title>
<path fill="none" stroke="#de7748" d="M635.946,-1712.03C656.172,-1669.01 685.846,-1605.9 709.387,-1555.83"/>
<ellipse fill="none" stroke="#de7748" cx="634.162" cy="-1715.83" rx="4.00002" ry="4.00002"/>
<polygon fill="#de7748" stroke="#de7748" points="709.453,-1555.69 717.78,-1548.56 711.58,-1551.17 713.708,-1546.64 713.708,-1546.64 713.708,-1546.64 711.58,-1551.17 709.636,-1544.73 709.453,-1555.69 709.453,-1555.69"/>
</g>
<!-- PlanType&#45;&gt;Subscription -->
<g id="edge57" class="edge"><title>PlanType&#45;&gt;Subscription</title>
<path fill="none" stroke="#f659e5" d="M607.503,-1711.32C597.884,-1603.44 582.831,-1342.22 636.688,-1133 637.45,-1130.04 638.312,-1127.07 639.259,-1124.09"/>
<ellipse fill="none" stroke="#f659e5" cx="607.879" cy="-1715.46" rx="4" ry="4"/>
<polygon fill="#f659e5" stroke="#f659e5" points="639.271,-1124.06 646.802,-1116.09 640.911,-1119.33 642.551,-1114.61 642.551,-1114.61 642.551,-1114.61 640.911,-1119.33 638.3,-1113.13 639.271,-1124.06 639.271,-1124.06"/>
</g>
<!-- Region -->
<g id="node25" class="node"><title>Region</title>
<path fill="none" stroke="black" d="M3344.18,-1971.5C3344.18,-1971.5 3453.19,-1971.5 3453.19,-1971.5 3459.19,-1971.5 3465.19,-1977.5 3465.19,-1983.5 3465.19,-1983.5 3465.19,-2073.5 3465.19,-2073.5 3465.19,-2079.5 3459.19,-2085.5 3453.19,-2085.5 3453.19,-2085.5 3344.18,-2085.5 3344.18,-2085.5 3338.18,-2085.5 3332.18,-2079.5 3332.18,-2073.5 3332.18,-2073.5 3332.18,-1983.5 3332.18,-1983.5 3332.18,-1977.5 3338.18,-1971.5 3344.18,-1971.5"/>
<text text-anchor="middle" x="3398.69" y="-2070.3" font-family="Times,serif" font-size="14.00">Region</text>
<polyline fill="none" stroke="black" points="3332.18,-2063.5 3465.19,-2063.5 "/>
<text text-anchor="start" x="3340.18" y="-2048.3" font-family="Times,serif" font-size="14.00">id :integer</text>
<text text-anchor="start" x="3340.18" y="-2034.3" font-family="Times,serif" font-size="14.00">name :string</text>
<text text-anchor="start" x="3340.18" y="-2020.3" font-family="Times,serif" font-size="14.00">created_at :datetime</text>
<text text-anchor="start" x="3340.18" y="-2006.3" font-family="Times,serif" font-size="14.00">updated_at :datetime</text>
<text text-anchor="start" x="3340.18" y="-1992.3" font-family="Times,serif" font-size="14.00">company_id :integer</text>
<text text-anchor="start" x="3340.18" y="-1978.3" font-family="Times,serif" font-size="14.00">deleted_at :datetime</text>
</g>
<!-- Vertex -->
<g id="node37" class="node"><title>Vertex</title>
<path fill="none" stroke="black" d="M3273.18,-1698.5C3273.18,-1698.5 3382.19,-1698.5 3382.19,-1698.5 3388.19,-1698.5 3394.19,-1704.5 3394.19,-1710.5 3394.19,-1710.5 3394.19,-1814.5 3394.19,-1814.5 3394.19,-1820.5 3388.19,-1826.5 3382.19,-1826.5 3382.19,-1826.5 3273.18,-1826.5 3273.18,-1826.5 3267.18,-1826.5 3261.18,-1820.5 3261.18,-1814.5 3261.18,-1814.5 3261.18,-1710.5 3261.18,-1710.5 3261.18,-1704.5 3267.18,-1698.5 3273.18,-1698.5"/>
<text text-anchor="middle" x="3327.69" y="-1811.3" font-family="Times,serif" font-size="14.00">Vertex</text>
<polyline fill="none" stroke="black" points="3261.18,-1804.5 3394.19,-1804.5 "/>
<text text-anchor="start" x="3269.18" y="-1789.3" font-family="Times,serif" font-size="14.00">id :integer</text>
<text text-anchor="start" x="3269.18" y="-1775.3" font-family="Times,serif" font-size="14.00">latitude :float</text>
<text text-anchor="start" x="3269.18" y="-1761.3" font-family="Times,serif" font-size="14.00">longitude :float</text>
<text text-anchor="start" x="3269.18" y="-1747.3" font-family="Times,serif" font-size="14.00">region_id :integer</text>
<text text-anchor="start" x="3269.18" y="-1733.3" font-family="Times,serif" font-size="14.00">created_at :datetime</text>
<text text-anchor="start" x="3269.18" y="-1719.3" font-family="Times,serif" font-size="14.00">updated_at :datetime</text>
<text text-anchor="start" x="3269.18" y="-1705.3" font-family="Times,serif" font-size="14.00">company_id :integer</text>
</g>
<!-- Region&#45;&gt;Vertex -->
<g id="edge59" class="edge"><title>Region&#45;&gt;Vertex</title>
<path fill="none" stroke="#7f4db0" d="M3381.43,-1963.32C3371.13,-1925.04 3358.03,-1876.32 3347.34,-1836.57"/>
<ellipse fill="none" stroke="#7f4db0" cx="3382.5" cy="-1967.33" rx="4.00001" ry="4.00001"/>
<polygon fill="#7f4db0" stroke="#7f4db0" points="3347.27,-1836.32 3349.02,-1825.5 3345.97,-1831.49 3344.68,-1826.67 3344.68,-1826.67 3344.68,-1826.67 3345.97,-1831.49 3340.33,-1827.84 3347.27,-1836.32 3347.27,-1836.32"/>
</g>
<!-- Role -->
<g id="node26" class="node"><title>Role</title>
<path fill="none" stroke="black" d="M2852.18,-1985.5C2852.18,-1985.5 2961.19,-1985.5 2961.19,-1985.5 2967.19,-1985.5 2973.19,-1991.5 2973.19,-1997.5 2973.19,-1997.5 2973.19,-2059.5 2973.19,-2059.5 2973.19,-2065.5 2967.19,-2071.5 2961.19,-2071.5 2961.19,-2071.5 2852.18,-2071.5 2852.18,-2071.5 2846.18,-2071.5 2840.18,-2065.5 2840.18,-2059.5 2840.18,-2059.5 2840.18,-1997.5 2840.18,-1997.5 2840.18,-1991.5 2846.18,-1985.5 2852.18,-1985.5"/>
<text text-anchor="middle" x="2906.69" y="-2056.3" font-family="Times,serif" font-size="14.00">Role</text>
<polyline fill="none" stroke="black" points="2840.18,-2049.5 2973.19,-2049.5 "/>
<text text-anchor="start" x="2848.18" y="-2034.3" font-family="Times,serif" font-size="14.00">id :integer</text>
<text text-anchor="start" x="2848.18" y="-2020.3" font-family="Times,serif" font-size="14.00">name :string</text>
<text text-anchor="start" x="2848.18" y="-2006.3" font-family="Times,serif" font-size="14.00">created_at :datetime</text>
<text text-anchor="start" x="2848.18" y="-1992.3" font-family="Times,serif" font-size="14.00">updated_at :datetime</text>
</g>
<!-- Rule&#45;&gt;AlarmRule -->
<g id="edge62" class="edge"><title>Rule&#45;&gt;AlarmRule</title>
<path fill="none" stroke="#f3065f" d="M1423.15,-1697.41C1410.5,-1651.2 1393.48,-1589.01 1380.72,-1542.39"/>
<ellipse fill="none" stroke="#f3065f" cx="1424.22" cy="-1701.34" rx="4.00001" ry="4.00001"/>
<polygon fill="#f3065f" stroke="#f3065f" points="1380.71,-1542.34 1382.41,-1531.5 1379.39,-1537.51 1378.07,-1532.69 1378.07,-1532.69 1378.07,-1532.69 1379.39,-1537.51 1373.73,-1533.88 1380.71,-1542.34 1380.71,-1542.34"/>
</g>
<!-- Rule&#45;&gt;Parameter -->
<g id="edge63" class="edge"><title>Rule&#45;&gt;Parameter</title>
<path fill="none" stroke="#249895" d="M1456.71,-1697.19C1467.64,-1653.3 1482.15,-1595.08 1493.51,-1549.46"/>
<ellipse fill="none" stroke="#249895" cx="1455.68" cy="-1701.31" rx="4.00001" ry="4.00001"/>
<polygon fill="#249895" stroke="#249895" points="1493.54,-1549.34 1500.33,-1540.72 1494.75,-1544.49 1495.96,-1539.63 1495.96,-1539.63 1495.96,-1539.63 1494.75,-1544.49 1491.59,-1538.55 1493.54,-1549.34 1493.54,-1549.34"/>
</g>
<!-- RuleNotification -->
<g id="node28" class="node"><title>RuleNotification</title>
<path fill="none" stroke="black" d="M3003.18,-1978.5C3003.18,-1978.5 3112.19,-1978.5 3112.19,-1978.5 3118.19,-1978.5 3124.19,-1984.5 3124.19,-1990.5 3124.19,-1990.5 3124.19,-2066.5 3124.19,-2066.5 3124.19,-2072.5 3118.19,-2078.5 3112.19,-2078.5 3112.19,-2078.5 3003.18,-2078.5 3003.18,-2078.5 2997.18,-2078.5 2991.18,-2072.5 2991.18,-2066.5 2991.18,-2066.5 2991.18,-1990.5 2991.18,-1990.5 2991.18,-1984.5 2997.18,-1978.5 3003.18,-1978.5"/>
<text text-anchor="middle" x="3057.69" y="-2063.3" font-family="Times,serif" font-size="14.00">RuleNotification</text>
<polyline fill="none" stroke="black" points="2991.18,-2056.5 3124.19,-2056.5 "/>
<text text-anchor="start" x="2999.18" y="-2041.3" font-family="Times,serif" font-size="14.00">id :integer</text>
<text text-anchor="start" x="2999.18" y="-2027.3" font-family="Times,serif" font-size="14.00">rule_id :integer</text>
<text text-anchor="start" x="2999.18" y="-2013.3" font-family="Times,serif" font-size="14.00">car_id :integer</text>
<text text-anchor="start" x="2999.18" y="-1999.3" font-family="Times,serif" font-size="14.00">created_at :datetime</text>
<text text-anchor="start" x="2999.18" y="-1985.3" font-family="Times,serif" font-size="14.00">updated_at :datetime</text>
</g>
<!-- Simulation -->
<g id="node30" class="node"><title>Simulation</title>
<polygon fill="none" stroke="black" points="277.964,-2006.5 277.964,-2050.5 355.412,-2050.5 355.412,-2006.5 277.964,-2006.5"/>
<text text-anchor="middle" x="316.688" y="-2035.3" font-family="Times,serif" font-size="14.00">Simulation</text>
<polyline fill="none" stroke="black" points="277.964,-2028.5 355.412,-2028.5 "/>
<text text-anchor="middle" x="316.688" y="-2013.3" font-family="Times,serif" font-size="14.00"> </text>
</g>
<!-- Teleprovider -->
<g id="node33" class="node"><title>Teleprovider</title>
<path fill="none" stroke="black" d="M3139.18,-1565.5C3139.18,-1565.5 3248.19,-1565.5 3248.19,-1565.5 3254.19,-1565.5 3260.19,-1571.5 3260.19,-1577.5 3260.19,-1577.5 3260.19,-1653.5 3260.19,-1653.5 3260.19,-1659.5 3254.19,-1665.5 3248.19,-1665.5 3248.19,-1665.5 3139.18,-1665.5 3139.18,-1665.5 3133.18,-1665.5 3127.18,-1659.5 3127.18,-1653.5 3127.18,-1653.5 3127.18,-1577.5 3127.18,-1577.5 3127.18,-1571.5 3133.18,-1565.5 3139.18,-1565.5"/>
<text text-anchor="middle" x="3193.69" y="-1650.3" font-family="Times,serif" font-size="14.00">Teleprovider</text>
<polyline fill="none" stroke="black" points="3127.18,-1643.5 3260.19,-1643.5 "/>
<text text-anchor="start" x="3135.18" y="-1628.3" font-family="Times,serif" font-size="14.00">id :integer</text>
<text text-anchor="start" x="3135.18" y="-1614.3" font-family="Times,serif" font-size="14.00">name :string</text>
<text text-anchor="start" x="3135.18" y="-1600.3" font-family="Times,serif" font-size="14.00">apn :string</text>
<text text-anchor="start" x="3135.18" y="-1586.3" font-family="Times,serif" font-size="14.00">created_at :datetime</text>
<text text-anchor="start" x="3135.18" y="-1572.3" font-family="Times,serif" font-size="14.00">updated_at :datetime</text>
</g>
<!-- Teleprovider&#45;&gt;Simcard -->
<g id="edge70" class="edge"><title>Teleprovider&#45;&gt;Simcard</title>
<path fill="none" stroke="#650b84" d="M3132.66,-1559.7C3083.2,-1509.01 3021.69,-1428.81 3021.69,-1343.5 3021.69,-1343.5 3021.69,-1343.5 3021.69,-424.5 3021.69,-228.807 2755.56,-138.75 2611.61,-104.353"/>
<ellipse fill="none" stroke="#650b84" cx="3135.51" cy="-1562.58" rx="4.00002" ry="4.00002"/>
<polygon fill="#650b84" stroke="#650b84" points="2611.2,-104.257 2602.5,-97.591 2606.33,-103.114 2601.47,-101.972 2601.47,-101.972 2601.47,-101.972 2606.33,-103.114 2600.44,-106.353 2611.2,-104.257 2611.2,-104.257"/>
</g>
<!-- Traccar::Location -->
<g id="node34" class="node"><title>Traccar::Location</title>
<path fill="none" stroke="black" d="M3154.18,-1978.5C3154.18,-1978.5 3263.19,-1978.5 3263.19,-1978.5 3269.19,-1978.5 3275.19,-1984.5 3275.19,-1990.5 3275.19,-1990.5 3275.19,-2066.5 3275.19,-2066.5 3275.19,-2072.5 3269.19,-2078.5 3263.19,-2078.5 3263.19,-2078.5 3154.18,-2078.5 3154.18,-2078.5 3148.18,-2078.5 3142.18,-2072.5 3142.18,-2066.5 3142.18,-2066.5 3142.18,-1990.5 3142.18,-1990.5 3142.18,-1984.5 3148.18,-1978.5 3154.18,-1978.5"/>
<text text-anchor="middle" x="3208.69" y="-2063.3" font-family="Times,serif" font-size="14.00">Traccar::Location</text>
<polyline fill="none" stroke="black" points="3142.18,-2056.5 3275.19,-2056.5 "/>
<text text-anchor="start" x="3150.18" y="-2041.3" font-family="Times,serif" font-size="14.00">id :integer</text>
<text text-anchor="start" x="3150.18" y="-2027.3" font-family="Times,serif" font-size="14.00">address :string</text>
<text text-anchor="start" x="3150.18" y="-2013.3" font-family="Times,serif" font-size="14.00">position_id :integer</text>
<text text-anchor="start" x="3150.18" y="-1999.3" font-family="Times,serif" font-size="14.00">created_at :datetime</text>
<text text-anchor="start" x="3150.18" y="-1985.3" font-family="Times,serif" font-size="14.00">updated_at :datetime</text>
</g>
<!-- User&#45;&gt;Mailboxer::Message -->
<g id="edge73" class="edge"><title>User&#45;&gt;Mailboxer::Message</title>
<path fill="none" stroke="#567522" d="M1085.35,-235.94C1088.47,-230.891 1091.59,-225.903 1094.69,-221 1119.32,-182.065 1150.34,-138.648 1169.85,-111.949"/>
<ellipse fill="none" stroke="#567522" cx="1083.19" cy="-239.453" rx="4.00002" ry="4.00002"/>
<polygon fill="#567522" stroke="#567522" points="1170.09,-111.629 1179.63,-106.227 1173.04,-107.597 1176,-103.566 1176,-103.566 1176,-103.566 1173.04,-107.597 1172.37,-100.904 1170.09,-111.629 1170.09,-111.629"/>
<text text-anchor="middle" x="1141.13" y="-191.8" font-family="Times,serif" font-size="14.00">messages</text>
</g>
<!-- User&#45;&gt;Mailboxer::Receipt -->
<g id="edge74" class="edge"><title>User&#45;&gt;Mailboxer::Receipt</title>
<path fill="none" stroke="#8486d1" d="M993.075,-213.068C995.765,-173.536 998.23,-137.316 999.827,-113.846"/>
<ellipse fill="none" stroke="#8486d1" cx="992.803" cy="-217.067" rx="4" ry="4"/>
<polygon fill="#8486d1" stroke="#8486d1" points="999.839,-113.668 1005.01,-103.997 1000.18,-108.68 1000.52,-103.691 1000.52,-103.691 1000.52,-103.691 1000.18,-108.68 996.028,-103.386 999.839,-113.668 999.839,-113.668"/>
<text text-anchor="middle" x="1016.45" y="-191.8" font-family="Times,serif" font-size="14.00">receipts</text>
</g>
<!-- UserConversation -->
<g id="node36" class="node"><title>UserConversation</title>
<polygon fill="none" stroke="black" points="373.143,-2006.5 373.143,-2050.5 490.233,-2050.5 490.233,-2006.5 373.143,-2006.5"/>
<text text-anchor="middle" x="431.688" y="-2035.3" font-family="Times,serif" font-size="14.00">UserConversation</text>
<polyline fill="none" stroke="black" points="373.143,-2028.5 490.233,-2028.5 "/>
<text text-anchor="middle" x="431.688" y="-2013.3" font-family="Times,serif" font-size="14.00"> </text>
</g>
<!-- WorkHour -->
<g id="node38" class="node"><title>WorkHour</title>
<path fill="none" stroke="black" d="M2144.24,-1684.5C2144.24,-1684.5 2285.14,-1684.5 2285.14,-1684.5 2291.14,-1684.5 2297.14,-1690.5 2297.14,-1696.5 2297.14,-1696.5 2297.14,-1828.5 2297.14,-1828.5 2297.14,-1834.5 2291.14,-1840.5 2285.14,-1840.5 2285.14,-1840.5 2144.24,-1840.5 2144.24,-1840.5 2138.24,-1840.5 2132.24,-1834.5 2132.24,-1828.5 2132.24,-1828.5 2132.24,-1696.5 2132.24,-1696.5 2132.24,-1690.5 2138.24,-1684.5 2144.24,-1684.5"/>
<text text-anchor="middle" x="2214.69" y="-1825.3" font-family="Times,serif" font-size="14.00">WorkHour</text>
<polyline fill="none" stroke="black" points="2132.24,-1818.5 2297.14,-1818.5 "/>
<text text-anchor="start" x="2140.24" y="-1803.3" font-family="Times,serif" font-size="14.00">id :integer</text>
<text text-anchor="start" x="2140.24" y="-1789.3" font-family="Times,serif" font-size="14.00">day_of_week :integer</text>
<text text-anchor="start" x="2140.24" y="-1775.3" font-family="Times,serif" font-size="14.00">starts_at :datetime</text>
<text text-anchor="start" x="2140.24" y="-1761.3" font-family="Times,serif" font-size="14.00">ends_at :datetime</text>
<text text-anchor="start" x="2140.24" y="-1747.3" font-family="Times,serif" font-size="14.00">created_at :datetime</text>
<text text-anchor="start" x="2140.24" y="-1733.3" font-family="Times,serif" font-size="14.00">updated_at :datetime</text>
<text text-anchor="start" x="2140.24" y="-1719.3" font-family="Times,serif" font-size="14.00">work_schedule_id :integer</text>
<text text-anchor="start" x="2140.24" y="-1705.3" font-family="Times,serif" font-size="14.00">company_id :integer</text>
<text text-anchor="start" x="2140.24" y="-1691.3" font-family="Times,serif" font-size="14.00">deleted_at :datetime</text>
</g>
<!-- WorkSchedule -->
<g id="node39" class="node"><title>WorkSchedule</title>
<path fill="none" stroke="black" d="M1937.18,-1971.5C1937.18,-1971.5 2046.19,-1971.5 2046.19,-1971.5 2052.19,-1971.5 2058.19,-1977.5 2058.19,-1983.5 2058.19,-1983.5 2058.19,-2073.5 2058.19,-2073.5 2058.19,-2079.5 2052.19,-2085.5 2046.19,-2085.5 2046.19,-2085.5 1937.18,-2085.5 1937.18,-2085.5 1931.18,-2085.5 1925.18,-2079.5 1925.18,-2073.5 1925.18,-2073.5 1925.18,-1983.5 1925.18,-1983.5 1925.18,-1977.5 1931.18,-1971.5 1937.18,-1971.5"/>
<text text-anchor="middle" x="1991.69" y="-2070.3" font-family="Times,serif" font-size="14.00">WorkSchedule</text>
<polyline fill="none" stroke="black" points="1925.18,-2063.5 2058.19,-2063.5 "/>
<text text-anchor="start" x="1933.18" y="-2048.3" font-family="Times,serif" font-size="14.00">id :integer</text>
<text text-anchor="start" x="1933.18" y="-2034.3" font-family="Times,serif" font-size="14.00">name :string</text>
<text text-anchor="start" x="1933.18" y="-2020.3" font-family="Times,serif" font-size="14.00">created_at :datetime</text>
<text text-anchor="start" x="1933.18" y="-2006.3" font-family="Times,serif" font-size="14.00">updated_at :datetime</text>
<text text-anchor="start" x="1933.18" y="-1992.3" font-family="Times,serif" font-size="14.00">company_id :integer</text>
<text text-anchor="start" x="1933.18" y="-1978.3" font-family="Times,serif" font-size="14.00">deleted_at :datetime</text>
</g>
<!-- WorkSchedule&#45;&gt;Car -->
<g id="edge79" class="edge"><title>WorkSchedule&#45;&gt;Car</title>
<path fill="none" stroke="#d72e5b" d="M1971.87,-1963.31C1961.41,-1927.58 1949.04,-1882.13 1940.69,-1841 1938.22,-1828.87 1830.47,-966.717 1821.69,-958 1775.42,-912.079 1590.35,-947.269 1530.69,-921 1513.18,-913.292 1496.18,-902.695 1480.41,-890.971"/>
<ellipse fill="none" stroke="#d72e5b" cx="1973.07" cy="-1967.41" rx="4.00001" ry="4.00001"/>
<polygon fill="#d72e5b" stroke="#d72e5b" points="1480.21,-890.823 1475,-881.173 1476.24,-887.785 1472.27,-884.747 1472.27,-884.747 1472.27,-884.747 1476.24,-887.785 1469.54,-888.321 1480.21,-890.823 1480.21,-890.823"/>
</g>
<!-- WorkSchedule&#45;&gt;WorkHour -->
<g id="edge80" class="edge"><title>WorkSchedule&#45;&gt;WorkHour</title>
<path fill="none" stroke="#a020af" d="M2031.49,-1964.54C2053.31,-1931.81 2081.76,-1891.89 2110.69,-1859 2115.2,-1853.87 2119.97,-1848.72 2124.87,-1843.62"/>
<ellipse fill="none" stroke="#a020af" cx="2029.14" cy="-1968.07" rx="4.00002" ry="4.00002"/>
<polygon fill="#a020af" stroke="#a020af" points="2125.15,-1843.34 2135.37,-1839.35 2128.65,-1839.77 2132.15,-1836.2 2132.15,-1836.2 2132.15,-1836.2 2128.65,-1839.77 2128.94,-1833.05 2125.15,-1843.34 2125.15,-1843.34"/>
</g>
<!-- WorkScheduleGroup -->
<g id="node40" class="node"><title>WorkScheduleGroup</title>
<path fill="none" stroke="black" d="M1961.24,-1705.5C1961.24,-1705.5 2102.14,-1705.5 2102.14,-1705.5 2108.14,-1705.5 2114.14,-1711.5 2114.14,-1717.5 2114.14,-1717.5 2114.14,-1807.5 2114.14,-1807.5 2114.14,-1813.5 2108.14,-1819.5 2102.14,-1819.5 2102.14,-1819.5 1961.24,-1819.5 1961.24,-1819.5 1955.24,-1819.5 1949.24,-1813.5 1949.24,-1807.5 1949.24,-1807.5 1949.24,-1717.5 1949.24,-1717.5 1949.24,-1711.5 1955.24,-1705.5 1961.24,-1705.5"/>
<text text-anchor="middle" x="2031.69" y="-1804.3" font-family="Times,serif" font-size="14.00">WorkScheduleGroup</text>
<polyline fill="none" stroke="black" points="1949.24,-1797.5 2114.14,-1797.5 "/>
<text text-anchor="start" x="1957.24" y="-1782.3" font-family="Times,serif" font-size="14.00">id :integer</text>
<text text-anchor="start" x="1957.24" y="-1768.3" font-family="Times,serif" font-size="14.00">company_id :integer</text>
<text text-anchor="start" x="1957.24" y="-1754.3" font-family="Times,serif" font-size="14.00">work_schedule_id :integer</text>
<text text-anchor="start" x="1957.24" y="-1740.3" font-family="Times,serif" font-size="14.00">created_at :datetime</text>
<text text-anchor="start" x="1957.24" y="-1726.3" font-family="Times,serif" font-size="14.00">updated_at :datetime</text>
<text text-anchor="start" x="1957.24" y="-1712.3" font-family="Times,serif" font-size="14.00">name :string</text>
</g>
<!-- WorkSchedule&#45;&gt;WorkScheduleGroup -->
<g id="edge81" class="edge"><title>WorkSchedule&#45;&gt;WorkScheduleGroup</title>
<path fill="none" stroke="#5cc606" d="M2001.44,-1963.16C2007.56,-1922.72 2015.45,-1870.66 2021.64,-1829.85"/>
<ellipse fill="none" stroke="#5cc606" cx="2000.82" cy="-1967.23" rx="4.00001" ry="4.00001"/>
<polygon fill="#5cc606" stroke="#5cc606" points="2021.67,-1829.61 2027.62,-1820.4 2022.42,-1824.67 2023.17,-1819.72 2023.17,-1819.72 2023.17,-1819.72 2022.42,-1824.67 2018.72,-1819.05 2021.67,-1829.61 2021.67,-1829.61"/>
</g>
<!-- Object -->
<g id="node41" class="node"><title>Object</title>
<ellipse fill="none" stroke="black" cx="258.688" cy="-2166.5" rx="33.8596" ry="18"/>
<text text-anchor="middle" x="258.688" y="-2162.3" font-family="Times,serif" font-size="14.00">Object</text>
</g>
<!-- Object&#45;&gt;Ability -->
<g id="edge1" class="edge"><title>Object&#45;&gt;Ability</title>
<path fill="none" stroke="black" d="M243.194,-2150.49C235.613,-2143.66 226.106,-2135.83 216.688,-2130 181.302,-2108.11 161.839,-2120.59 130.688,-2093 117.697,-2081.5 108.066,-2064.29 101.892,-2050.69"/>
</g>
<!-- Object&#45;&gt;Alarm::Movement -->
<g id="edge2" class="edge"><title>Object&#45;&gt;Alarm::Movement</title>
<path fill="none" stroke="black" d="M251.453,-2148.82C240.745,-2124.14 220.679,-2077.89 208.923,-2050.79"/>
</g>
<!-- Object&#45;&gt;Simulation -->
<g id="edge67" class="edge"><title>Object&#45;&gt;Simulation</title>
<path fill="none" stroke="black" d="M265.8,-2148.82C276.326,-2124.14 296.052,-2077.89 307.609,-2050.79"/>
</g>
<!-- Object&#45;&gt;UserConversation -->
<g id="edge76" class="edge"><title>Object&#45;&gt;UserConversation</title>
<path fill="none" stroke="black" d="M280.107,-2152.27C302.034,-2138.41 336.759,-2115.55 364.688,-2093 381.022,-2079.81 398.184,-2063.49 411.049,-2050.7"/>
</g>
<!-- ActiveRecord::Base -->
<g id="node44" class="node"><title>ActiveRecord::Base</title>
<ellipse fill="none" stroke="black" cx="1991.69" cy="-2166.5" rx="81.1422" ry="18"/>
<text text-anchor="middle" x="1991.69" y="-2162.3" font-family="Times,serif" font-size="14.00">ActiveRecord::Base</text>
</g>
<!-- ActiveRecord::Base&#45;&gt;Alarm -->
<g id="edge10" class="edge"><title>ActiveRecord::Base&#45;&gt;Alarm</title>
<path fill="none" stroke="black" d="M1910.76,-2164.41C1759.62,-2161.47 1440.49,-2150.74 1337.69,-2112 1320.95,-2105.69 1304.55,-2096.07 1289.72,-2085.59"/>
</g>
<!-- ActiveRecord::Base&#45;&gt;AlarmCar -->
<g id="edge11" class="edge"><title>ActiveRecord::Base&#45;&gt;AlarmCar</title>
<path fill="none" stroke="black" d="M1953.92,-2150.46C1929.95,-2138.7 1900.88,-2119.83 1886.69,-2093 1856.13,-2035.25 1885.91,-2011.33 1885.69,-1946 1884.43,-1576.66 1890.2,-1484.34 1891.69,-1115 1891.97,-1045.22 1913.2,-1024.38 1891.69,-958 1825.55,-753.96 1648.5,-562.598 1559.41,-475.601"/>
</g>
<!-- ActiveRecord::Base&#45;&gt;AlarmGroup -->
<g id="edge12" class="edge"><title>ActiveRecord::Base&#45;&gt;AlarmGroup</title>
<path fill="none" stroke="black" d="M2037.9,-2151.63C2068.52,-2140.3 2107.53,-2121.46 2132.69,-2093 2151.04,-2072.25 2197.7,-1877.08 2218.69,-1859 2248.6,-1833.22 2280.76,-1871.62 2305.69,-1841 2349.75,-1786.89 2326.65,-1750.55 2305.69,-1684 2212.96,-1389.65 2052.3,-1387.63 1907.69,-1115 1872.68,-1049.01 1895.11,-1015.71 1847.69,-958 1828.04,-934.086 1814.86,-937.524 1788.69,-921 1746.5,-894.365 1699.09,-864.23 1662.44,-840.885"/>
</g>
<!-- ActiveRecord::Base&#45;&gt;AlarmNotification -->
<g id="edge13" class="edge"><title>ActiveRecord::Base&#45;&gt;AlarmNotification</title>
<path fill="none" stroke="black" d="M1910.71,-2164.81C1727.47,-2162.24 1286.44,-2150.12 1150.69,-2093 1056.43,-2053.34 1018.02,-2038.15 973.688,-1946 879.469,-1750.15 1050.68,-1182.03 1058.69,-1152 1062.57,-1137.43 1067.61,-1122.14 1072.86,-1107.64"/>
</g>
<!-- ActiveRecord::Base&#45;&gt;AlarmRule -->
<g id="edge14" class="edge"><title>ActiveRecord::Base&#45;&gt;AlarmRule</title>
<path fill="none" stroke="black" d="M1910.17,-2166.1C1773.48,-2165.32 1506.52,-2155.56 1440.69,-2093 1355.89,-2012.42 1382.08,-1956.68 1364.69,-1841 1348.44,-1732.89 1353.21,-1604.71 1358.03,-1532.77"/>
</g>
<!-- ActiveRecord::Base&#45;&gt;Car -->
<g id="edge21" class="edge"><title>ActiveRecord::Base&#45;&gt;Car</title>
<path fill="none" stroke="black" d="M1910.85,-2164.08C1797.31,-2160.19 1599.45,-2145.8 1554.69,-2093 1437.14,-1954.34 1532.43,-1864.41 1554.69,-1684 1566.33,-1589.64 1606.69,-1571.57 1606.69,-1476.5 1606.69,-1476.5 1606.69,-1476.5 1606.69,-1035.5 1606.69,-994.362 1533.67,-922.212 1472.35,-868.871"/>
</g>
<!-- ActiveRecord::Base&#45;&gt;CarManufacturer -->
<g id="edge23" class="edge"><title>ActiveRecord::Base&#45;&gt;CarManufacturer</title>
<path fill="none" stroke="black" d="M1911.73,-2162.88C1853.29,-2158.06 1773.75,-2145.24 1711.69,-2112 1693.29,-2102.14 1676.47,-2086.68 1662.98,-2071.79"/>
</g>
<!-- ActiveRecord::Base&#45;&gt;CarModel -->
<g id="edge25" class="edge"><title>ActiveRecord::Base&#45;&gt;CarModel</title>
<path fill="none" stroke="black" d="M1920.37,-2157.81C1858.15,-2149.7 1774.1,-2134.87 1749.69,-2112 1699.7,-2065.17 1733.04,-2027.23 1706.69,-1964 1703.17,-1955.55 1700.01,-1954.53 1696.69,-1946 1679.64,-1902.28 1667.85,-1850 1660.79,-1812.62"/>
</g>
<!-- ActiveRecord::Base&#45;&gt;CarType -->
<g id="edge27" class="edge"><title>ActiveRecord::Base&#45;&gt;CarType</title>
<path fill="none" stroke="black" d="M1926.19,-2155.68C1897.55,-2148.21 1865.74,-2135.07 1844.69,-2112 1802.79,-2066.1 1792.1,-1992.06 1789.77,-1945.67"/>
</g>
<!-- ActiveRecord::Base&#45;&gt;Company -->
<g id="edge35" class="edge"><title>ActiveRecord::Base&#45;&gt;Company</title>
<path fill="none" stroke="black" d="M1910.74,-2164.07C1665.35,-2159.4 944.029,-2143.07 904.688,-2112 874.719,-2088.33 880.688,-2067.69 880.688,-2029.5 880.688,-2029.5 880.688,-2029.5 880.688,-1474.5 880.688,-1407.09 899.61,-1332.04 915.65,-1280.54"/>
</g>
<!-- ActiveRecord::Base&#45;&gt;Device -->
<g id="edge38" class="edge"><title>ActiveRecord::Base&#45;&gt;Device</title>
<path fill="none" stroke="black" d="M2072.93,-2165.52C2207.84,-2164.21 2486.06,-2155.83 2716.69,-2112 2744.58,-2106.7 2755.8,-2111.09 2777.69,-2093 2802.37,-2072.61 2811.69,-2061.51 2811.69,-2029.5 2811.69,-2029.5 2811.69,-2029.5 2811.69,-799.5 2811.69,-661.901 2687.17,-544.472 2601.32,-479.862"/>
</g>
<!-- ActiveRecord::Base&#45;&gt;DeviceManufacturer -->
<g id="edge40" class="edge"><title>ActiveRecord::Base&#45;&gt;DeviceManufacturer</title>
<path fill="none" stroke="black" d="M2070.02,-2161.45C2124.12,-2155.86 2196.21,-2142.73 2252.69,-2112 2271.02,-2102.02 2287.83,-2086.53 2301.32,-2071.66"/>
</g>
<!-- ActiveRecord::Base&#45;&gt;DeviceModel -->
<g id="edge42" class="edge"><title>ActiveRecord::Base&#45;&gt;DeviceModel</title>
<path fill="none" stroke="black" d="M2070.38,-2161.59C2177.27,-2154.68 2360.69,-2136.68 2409.69,-2093 2454.3,-2053.23 2428.15,-2020.48 2447.69,-1964 2464.78,-1914.59 2487,-1859.49 2503.68,-1819.58"/>
</g>
<!-- ActiveRecord::Base&#45;&gt;DeviceType -->
<g id="edge44" class="edge"><title>ActiveRecord::Base&#45;&gt;DeviceType</title>
<path fill="none" stroke="black" d="M2071.6,-2162.9C2256.63,-2156.19 2702.72,-2135.73 2754.69,-2093 2777.44,-2074.29 2773.69,-2058.96 2773.69,-2029.5 2773.69,-2029.5 2773.69,-2029.5 2773.69,-1614.5 2773.69,-1528.83 2727.83,-1437.44 2697.01,-1385.7"/>
</g>
<!-- ActiveRecord::Base&#45;&gt;Feature -->
<g id="edge46" class="edge"><title>ActiveRecord::Base&#45;&gt;Feature</title>
<path fill="none" stroke="black" d="M1910.06,-2165.71C1637.57,-2165.94 769.95,-2162.66 655.688,-2112 638.989,-2104.6 623.927,-2092.03 611.449,-2078.91"/>
</g>
<!-- ActiveRecord::Base&#45;&gt;Group -->
<g id="edge49" class="edge"><title>ActiveRecord::Base&#45;&gt;Group</title>
<path fill="none" stroke="black" d="M1967.3,-2149.15C1949.92,-2136.1 1927.6,-2116.2 1915.69,-2093 1867.7,-1999.58 1909.22,-1960.62 1882.69,-1859 1797.4,-1532.29 1537.37,-1207.16 1433.36,-1086.54"/>
</g>
<!-- ActiveRecord::Base&#45;&gt;GroupWorkHour -->
<g id="edge50" class="edge"><title>ActiveRecord::Base&#45;&gt;GroupWorkHour</title>
<path fill="none" stroke="black" d="M2070.9,-2162.3C2182.33,-2156.75 2378.89,-2142.84 2442.69,-2112 2452.93,-2107.05 2462.67,-2100.32 2471.62,-2092.82"/>
</g>
<!-- ActiveRecord::Base&#45;&gt;Parameter -->
<g id="edge51" class="edge"><title>ActiveRecord::Base&#45;&gt;Parameter</title>
<path fill="none" stroke="black" d="M1924.75,-2156.28C1880.64,-2147.04 1824.3,-2128.78 1786.69,-2093 1741.78,-2050.28 1762.8,-2018.72 1733.69,-1964 1729.17,-1955.51 1724.47,-1955.2 1721.69,-1946 1710.48,-1908.99 1702.89,-1892.79 1721.69,-1859 1729.06,-1845.74 1743.31,-1854.26 1750.69,-1841 1784.61,-1780.02 1779.64,-1747.49 1750.69,-1684 1715.51,-1606.88 1635.96,-1547.36 1578.27,-1512.23"/>
</g>
<!-- ActiveRecord::Base&#45;&gt;Payment -->
<g id="edge52" class="edge"><title>ActiveRecord::Base&#45;&gt;Payment</title>
<path fill="none" stroke="black" d="M2070.53,-2161.9C2213.61,-2154.44 2509.9,-2134.38 2603.69,-2093 2615.55,-2087.77 2626.98,-2080.04 2637.19,-2071.77"/>
</g>
<!-- ActiveRecord::Base&#45;&gt;Plan -->
<g id="edge55" class="edge"><title>ActiveRecord::Base&#45;&gt;Plan</title>
<path fill="none" stroke="black" d="M1910.81,-2164.6C1653.51,-2161.39 868.438,-2148.6 828.688,-2112 747.417,-2037.16 742.896,-1695.89 744.951,-1546.68"/>
</g>
<!-- ActiveRecord::Base&#45;&gt;PlanType -->
<g id="edge58" class="edge"><title>ActiveRecord::Base&#45;&gt;PlanType</title>
<path fill="none" stroke="black" d="M1910.44,-2164.84C1633.44,-2162.24 740.61,-2150.87 693.688,-2112 681.774,-2102.13 639.337,-1896.51 621.108,-1805.83"/>
</g>
<!-- ActiveRecord::Base&#45;&gt;Region -->
<g id="edge60" class="edge"><title>ActiveRecord::Base&#45;&gt;Region</title>
<path fill="none" stroke="black" d="M2073.17,-2165.69C2344.15,-2165.83 3204.35,-2162.27 3317.69,-2112 3331.45,-2105.9 3344.1,-2096.29 3355.11,-2085.75"/>
</g>
<!-- ActiveRecord::Base&#45;&gt;Role -->
<g id="edge61" class="edge"><title>ActiveRecord::Base&#45;&gt;Role</title>
<path fill="none" stroke="black" d="M2072.25,-2163.6C2268.16,-2158.5 2758.37,-2142.82 2825.69,-2112 2845.22,-2103.06 2862.57,-2087.18 2876.16,-2071.72"/>
</g>
<!-- ActiveRecord::Base&#45;&gt;Rule -->
<g id="edge64" class="edge"><title>ActiveRecord::Base&#45;&gt;Rule</title>
<path fill="none" stroke="black" d="M1913.4,-2161.47C1787.29,-2154.27 1550.31,-2137.51 1521.69,-2112 1438.91,-2038.23 1432.19,-1897.9 1435.7,-1819.7"/>
</g>
<!-- ActiveRecord::Base&#45;&gt;RuleNotification -->
<g id="edge65" class="edge"><title>ActiveRecord::Base&#45;&gt;RuleNotification</title>
<path fill="none" stroke="black" d="M2071.04,-2162.33C2221.31,-2155.91 2557.62,-2139.6 2839.69,-2112 2903.5,-2105.76 2924.08,-2118.99 2982.69,-2093 2991.11,-2089.27 2999.32,-2084.28 3007.02,-2078.74"/>
</g>
<!-- ActiveRecord::Base&#45;&gt;Simcard -->
<g id="edge66" class="edge"><title>ActiveRecord::Base&#45;&gt;Simcard</title>
<path fill="none" stroke="black" d="M2063.99,-2158.18C2111.02,-2149.78 2170.48,-2131.75 2208.69,-2093 2251.75,-2049.33 2225.71,-2016.33 2257.69,-1964 2296.09,-1901.17 2337.64,-1907.77 2368.69,-1841 2423.99,-1722.07 2410.69,-1397.28 2410.69,-1134 2410.69,-1134 2410.69,-1134 2410.69,-424.5 2410.69,-333.48 2402.82,-306.627 2433.69,-221 2439.89,-203.805 2448.67,-186.605 2458.32,-170.527"/>
</g>
<!-- ActiveRecord::Base&#45;&gt;State -->
<g id="edge68" class="edge"><title>ActiveRecord::Base&#45;&gt;State</title>
<path fill="none" stroke="black" d="M2050.59,-2153.97C2088.67,-2143.76 2136.88,-2125.3 2168.69,-2093 2249.06,-2011.39 2190.09,-1933.98 2276.69,-1859 2296.13,-1842.16 2316.17,-1861.51 2331.69,-1841 2426.57,-1715.61 2360.69,-1291.24 2360.69,-1134 2360.69,-1134 2360.69,-1134 2360.69,-424.5 2360.69,-335.009 2359.62,-232.194 2358.76,-163.687"/>
</g>
<!-- ActiveRecord::Base&#45;&gt;Subscription -->
<g id="edge69" class="edge"><title>ActiveRecord::Base&#45;&gt;Subscription</title>
<path fill="none" stroke="black" d="M1910.43,-2164.68C1681.35,-2161.92 1033.44,-2150.8 824.688,-2112 798.434,-2107.12 785.161,-2113.19 767.688,-2093 747.522,-2069.7 672.421,-1577.7 669.688,-1547 664.052,-1483.69 668.388,-1467.54 669.688,-1404 671.732,-1304.04 676.911,-1188.84 680.61,-1114.69"/>
</g>
<!-- ActiveRecord::Base&#45;&gt;Teleprovider -->
<g id="edge71" class="edge"><title>ActiveRecord::Base&#45;&gt;Teleprovider</title>
<path fill="none" stroke="black" d="M2072.76,-2164.72C2375.95,-2161.4 3428.19,-2146.08 3474.69,-2093 3547.46,-2009.92 3457.87,-1741.69 3403.69,-1684 3366.72,-1644.64 3306.77,-1628.16 3260.37,-1621.3"/>
</g>
<!-- ActiveRecord::Base&#45;&gt;Traccar::Location -->
<g id="edge72" class="edge"><title>ActiveRecord::Base&#45;&gt;Traccar::Location</title>
<path fill="none" stroke="black" d="M2069.12,-2160.91C2220.72,-2151.89 2567.31,-2131.06 2858.69,-2112 2980.94,-2104 3020.18,-2139.1 3133.69,-2093 3142.54,-2089.41 3151.11,-2084.34 3159.09,-2078.63"/>
</g>
<!-- ActiveRecord::Base&#45;&gt;User -->
<g id="edge75" class="edge"><title>ActiveRecord::Base&#45;&gt;User</title>
<path fill="none" stroke="black" d="M1910.67,-2164.38C1673.96,-2160.69 994.277,-2147.15 900.688,-2112 858.729,-2096.24 842.688,-2074.32 842.688,-2029.5 842.688,-2029.5 842.688,-2029.5 842.688,-799.5 842.688,-742.29 856.984,-682.969 876.306,-628.918"/>
</g>
<!-- ActiveRecord::Base&#45;&gt;Vertex -->
<g id="edge77" class="edge"><title>ActiveRecord::Base&#45;&gt;Vertex</title>
<path fill="none" stroke="black" d="M2072.32,-2163.8C2348.26,-2157.62 3240.29,-2134.5 3284.69,-2093 3322.25,-2057.89 3328.35,-1911.93 3328.59,-1826.5"/>
</g>
<!-- ActiveRecord::Base&#45;&gt;WorkHour -->
<g id="edge78" class="edge"><title>ActiveRecord::Base&#45;&gt;WorkHour</title>
<path fill="none" stroke="black" d="M2023.44,-2149.79C2045.47,-2137.3 2073.79,-2117.83 2090.69,-2093 2119.32,-2050.94 2163.16,-1924.21 2190.32,-1840.74"/>
</g>
<!-- ActiveRecord::Base&#45;&gt;WorkSchedule -->
<g id="edge82" class="edge"><title>ActiveRecord::Base&#45;&gt;WorkSchedule</title>
<path fill="none" stroke="black" d="M1991.69,-2148.28C1991.69,-2132.48 1991.69,-2108.19 1991.69,-2085.68"/>
</g>
<!-- ActiveRecord::Base&#45;&gt;WorkScheduleGroup -->
<g id="edge83" class="edge"><title>ActiveRecord::Base&#45;&gt;WorkScheduleGroup</title>
<path fill="none" stroke="black" d="M2017.42,-2149.34C2035.23,-2136.51 2057.5,-2116.8 2067.69,-2093 2106.19,-2003.07 2077.68,-1887.27 2054.18,-1819.62"/>
</g>
</g>
</svg>
