<?xml version="1.0" encoding="UTF-8" standalone="no"?>
<!DOCTYPE svg PUBLIC "-//W3C//DTD SVG 1.1//EN"
 "http://www.w3.org/Graphics/SVG/1.1/DTD/svg11.dtd">
<!-- Generated by graphviz version 2.38.0 (20140413.2041)
 -->
<!-- Title: models_diagram Pages: 1 -->
<svg width="3296pt" height="796pt"
 viewBox="0.00 0.00 3295.69 796.00" xmlns="http://www.w3.org/2000/svg" xmlns:xlink="http://www.w3.org/1999/xlink">
<g id="graph0" class="graph" transform="scale(1 1) rotate(0) translate(4 792)">
<title>models_diagram</title>
<polygon fill="white" stroke="none" points="-4,4 -4,-792 3291.69,-792 3291.69,4 -4,4"/>
<!-- _diagram_info -->
<g id="node1" class="node"><title>_diagram_info</title>
<text text-anchor="start" x="8" y="-773.6" font-family="Times,serif" font-size="13.00">Models diagram</text>
<text text-anchor="start" x="8" y="-760.6" font-family="Times,serif" font-size="13.00">Date: Nov 17 2014 &#45; 20:16</text>
<text text-anchor="start" x="8" y="-747.6" font-family="Times,serif" font-size="13.00">Migration version: 20141009050727</text>
<text text-anchor="start" x="8" y="-734.6" font-family="Times,serif" font-size="13.00">Generated by RailRoady 1.1.1</text>
<text text-anchor="start" x="8" y="-721.6" font-family="Times,serif" font-size="13.00">http://railroady.prestonlee.com</text>
</g>
<!-- Ability -->
<g id="node2" class="node"><title>Ability</title>
<polygon fill="none" stroke="black" points="121.358,-678 66.0178,-678 66.0178,-642 121.358,-642 121.358,-678"/>
<text text-anchor="middle" x="93.6877" y="-655.8" font-family="Times,serif" font-size="14.00">Ability</text>
</g>
<!-- Alarm::Movement -->
<g id="node3" class="node"><title>Alarm::Movement</title>
<polygon fill="none" stroke="black" points="259.888,-678 139.487,-678 139.487,-642 259.888,-642 259.888,-678"/>
<text text-anchor="middle" x="199.688" y="-655.8" font-family="Times,serif" font-size="14.00">Alarm::Movement</text>
</g>
<!-- Alarm -->
<g id="node4" class="node"><title>Alarm</title>
<ellipse fill="none" stroke="black" cx="983.688" cy="-660" rx="32.8994" ry="18"/>
<text text-anchor="middle" x="983.688" y="-655.8" font-family="Times,serif" font-size="14.00">Alarm</text>
</g>
<!-- AlarmNotification -->
<g id="node7" class="node"><title>AlarmNotification</title>
<ellipse fill="none" stroke="black" cx="709.688" cy="-263" rx="74.8948" ry="18"/>
<text text-anchor="middle" x="709.688" y="-258.8" font-family="Times,serif" font-size="14.00">AlarmNotification</text>
</g>
<!-- Alarm&#45;&gt;AlarmNotification -->
<g id="edge5" class="edge"><title>Alarm&#45;&gt;AlarmNotification</title>
<path fill="none" stroke="#10caa5" d="M943.377,-656.029C861.344,-647.561 682.688,-615.721 682.688,-499 682.688,-499 682.688,-499 682.688,-335 682.688,-319.552 688.341,-303.375 694.474,-290.372"/>
<ellipse fill="none" stroke="#10caa5" cx="947.494" cy="-656.432" rx="4" ry="4"/>
<polygon fill="#10caa5" stroke="#10caa5" points="694.648,-290.029 703.185,-283.146 696.91,-285.57 699.172,-281.11 699.172,-281.11 699.172,-281.11 696.91,-285.57 695.158,-279.075 694.648,-290.029 694.648,-290.029"/>
</g>
<!-- AlarmRule -->
<g id="node8" class="node"><title>AlarmRule</title>
<ellipse fill="none" stroke="black" cx="886.688" cy="-444" rx="49.3032" ry="18"/>
<text text-anchor="middle" x="886.688" y="-439.8" font-family="Times,serif" font-size="14.00">AlarmRule</text>
</g>
<!-- Alarm&#45;&gt;AlarmRule -->
<g id="edge4" class="edge"><title>Alarm&#45;&gt;AlarmRule</title>
<path fill="none" stroke="#e4c913" d="M959.888,-638.912C941.947,-622.344 918.34,-597.212 905.688,-570 891.111,-538.651 887.279,-498.562 886.488,-472.353"/>
<ellipse fill="none" stroke="#e4c913" cx="963.241" cy="-641.937" rx="4.00002" ry="4.00002"/>
<polygon fill="#e4c913" stroke="#e4c913" points="886.482,-472.035 890.812,-461.96 886.397,-467.036 886.312,-462.036 886.312,-462.036 886.312,-462.036 886.397,-467.036 881.813,-462.113 886.482,-472.035 886.482,-472.035"/>
</g>
<!-- Car -->
<g id="node9" class="node"><title>Car</title>
<ellipse fill="none" stroke="black" cx="1391.69" cy="-190" rx="27" ry="18"/>
<text text-anchor="middle" x="1391.69" y="-185.8" font-family="Times,serif" font-size="14.00">Car</text>
</g>
<!-- Alarm&#45;&gt;Car -->
<g id="edge8" class="edge"><title>Alarm&#45;&gt;Car</title>
<path fill="none" stroke="#78ba9e" d="M996.886,-632.99C1011.4,-601.932 1032.69,-548.021 1032.69,-499 1032.69,-499 1032.69,-499 1032.69,-262 1032.69,-196.99 1262.11,-190.546 1354.15,-190.577"/>
<polygon fill="#78ba9e" stroke="#78ba9e" points="996.776,-633.22 988.391,-640.288 994.612,-637.728 992.448,-642.235 992.448,-642.235 992.448,-642.235 994.612,-637.728 996.505,-644.183 996.776,-633.22 996.776,-633.22"/>
<polygon fill="#78ba9e" stroke="#78ba9e" points="1354.41,-190.578 1364.4,-195.108 1359.41,-190.593 1364.41,-190.608 1364.41,-190.608 1364.41,-190.608 1359.41,-190.593 1364.42,-186.108 1354.41,-190.578 1354.41,-190.578"/>
</g>
<!-- Group -->
<g id="node19" class="node"><title>Group</title>
<ellipse fill="none" stroke="black" cx="1254.69" cy="-263" rx="32.9081" ry="18"/>
<text text-anchor="middle" x="1254.69" y="-258.8" font-family="Times,serif" font-size="14.00">Group</text>
</g>
<!-- Alarm&#45;&gt;Group -->
<g id="edge7" class="edge"><title>Alarm&#45;&gt;Group</title>
<path fill="none" stroke="#e30755" d="M1022.41,-648.053C1057.42,-635.692 1106.09,-611.655 1123.69,-570 1148.59,-511.038 1104.15,-486.274 1125.69,-426 1146.68,-367.261 1198.47,-313.732 1229.67,-285.33"/>
<polygon fill="#e30755" stroke="#e30755" points="1021.97,-648.202 1011.06,-647.111 1017.23,-649.79 1012.48,-651.378 1012.48,-651.378 1012.48,-651.378 1017.23,-649.79 1013.91,-655.645 1021.97,-648.202 1021.97,-648.202"/>
<polygon fill="#e30755" stroke="#e30755" points="1230.04,-284.994 1240.5,-281.688 1233.77,-281.663 1237.5,-278.332 1237.5,-278.332 1237.5,-278.332 1233.77,-281.663 1234.51,-274.976 1230.04,-284.994 1230.04,-284.994"/>
</g>
<!-- Rule -->
<g id="node27" class="node"><title>Rule</title>
<ellipse fill="none" stroke="black" cx="1087.69" cy="-552" rx="27" ry="18"/>
<text text-anchor="middle" x="1087.69" y="-547.8" font-family="Times,serif" font-size="14.00">Rule</text>
</g>
<!-- Alarm&#45;&gt;Rule -->
<g id="edge3" class="edge"><title>Alarm&#45;&gt;Rule</title>
<path fill="none" stroke="#e2e43a" d="M1016.59,-642.657C1025.32,-637.417 1034.35,-631.105 1041.69,-624 1055.28,-610.84 1066.83,-592.951 1074.97,-578.423"/>
<polygon fill="#e2e43a" stroke="#e2e43a" points="1016.37,-642.778 1005.45,-643.804 1012.02,-645.248 1007.67,-647.717 1007.67,-647.717 1007.67,-647.717 1012.02,-645.248 1009.9,-651.63 1016.37,-642.778 1016.37,-642.778"/>
<polygon fill="#e2e43a" stroke="#e2e43a" points="1075.06,-578.248 1083.76,-571.578 1077.43,-573.846 1079.8,-569.444 1079.8,-569.444 1079.8,-569.444 1077.43,-573.846 1075.84,-567.31 1075.06,-578.248 1075.06,-578.248"/>
</g>
<!-- GroupAlarm -->
<g id="node46" class="node"><title>GroupAlarm</title>
<ellipse fill="none" stroke="black" cx="803.688" cy="-552" rx="55.0922" ry="18"/>
<text text-anchor="middle" x="803.688" y="-547.8" font-family="Times,serif" font-size="14.00">GroupAlarm</text>
</g>
<!-- Alarm&#45;&gt;GroupAlarm -->
<g id="edge6" class="edge"><title>Alarm&#45;&gt;GroupAlarm</title>
<path fill="none" stroke="#fbda14" d="M944.829,-651.713C922.561,-646.359 894.746,-637.602 872.688,-624 853.06,-611.897 835.055,-592.98 822.362,-577.716"/>
<ellipse fill="none" stroke="#fbda14" cx="948.863" cy="-652.639" rx="4.00001" ry="4.00001"/>
<polygon fill="#fbda14" stroke="#fbda14" points="822.157,-577.462 819.383,-566.853 819.019,-573.57 815.88,-569.677 815.88,-569.677 815.88,-569.677 819.019,-573.57 812.377,-572.502 822.157,-577.462 822.157,-577.462"/>
</g>
<!-- CarAlarm -->
<g id="node47" class="node"><title>CarAlarm</title>
<ellipse fill="none" stroke="black" cx="959.688" cy="-552" rx="45.4355" ry="18"/>
<text text-anchor="middle" x="959.688" y="-547.8" font-family="Times,serif" font-size="14.00">CarAlarm</text>
</g>
<!-- Alarm&#45;&gt;CarAlarm -->
<g id="edge9" class="edge"><title>Alarm&#45;&gt;CarAlarm</title>
<path fill="none" stroke="#51af56" d="M978.029,-634.008C974.365,-617.823 969.593,-596.748 965.835,-580.152"/>
<ellipse fill="none" stroke="#51af56" cx="978.948" cy="-638.068" rx="4.00001" ry="4.00001"/>
<polygon fill="#51af56" stroke="#51af56" points="965.743,-579.742 967.923,-568.995 964.638,-574.865 963.534,-569.988 963.534,-569.988 963.534,-569.988 964.638,-574.865 959.145,-570.982 965.743,-579.742 965.743,-579.742"/>
</g>
<!-- AlarmCar -->
<g id="node5" class="node"><title>AlarmCar</title>
<ellipse fill="none" stroke="black" cx="531.688" cy="-104" rx="45.4355" ry="18"/>
<text text-anchor="middle" x="531.688" y="-99.8" font-family="Times,serif" font-size="14.00">AlarmCar</text>
</g>
<!-- AlarmGroup -->
<g id="node6" class="node"><title>AlarmGroup</title>
<ellipse fill="none" stroke="black" cx="906.688" cy="-190" rx="55.0922" ry="18"/>
<text text-anchor="middle" x="906.688" y="-185.8" font-family="Times,serif" font-size="14.00">AlarmGroup</text>
</g>
<!-- Car&#45;&gt;AlarmCar -->
<g id="edge20" class="edge"><title>Car&#45;&gt;AlarmCar</title>
<path fill="none" stroke="#ece518" d="M1356.95,-185.607C1223.98,-172.62 746.734,-126.005 585.411,-110.247"/>
<ellipse fill="none" stroke="#ece518" cx="1361.03" cy="-186.005" rx="4" ry="4"/>
<polygon fill="#ece518" stroke="#ece518" points="585.201,-110.227 575.686,-104.776 580.225,-109.741 575.248,-109.255 575.248,-109.255 575.248,-109.255 580.225,-109.741 574.811,-113.733 585.201,-110.227 585.201,-110.227"/>
</g>
<!-- Device -->
<g id="node14" class="node"><title>Device</title>
<ellipse fill="none" stroke="black" cx="2671.69" cy="-104" rx="35.2956" ry="18"/>
<text text-anchor="middle" x="2671.69" y="-99.8" font-family="Times,serif" font-size="14.00">Device</text>
</g>
<!-- Car&#45;&gt;Device -->
<g id="edge17" class="edge"><title>Car&#45;&gt;Device</title>
<path fill="none" stroke="#de65d0" d="M1426.62,-186.707C1606.91,-174.876 2431.22,-120.781 2628.96,-107.804"/>
<ellipse fill="none" stroke="#de65d0" cx="1422.41" cy="-186.984" rx="4" ry="4"/>
<ellipse fill="#de65d0" stroke="#de65d0" cx="2633.1" cy="-107.533" rx="4" ry="4"/>
</g>
<!-- State -->
<g id="node31" class="node"><title>State</title>
<ellipse fill="none" stroke="black" cx="2198.69" cy="-18" rx="27.5804" ry="18"/>
<text text-anchor="middle" x="2198.69" y="-13.8" font-family="Times,serif" font-size="14.00">State</text>
</g>
<!-- Car&#45;&gt;State -->
<g id="edge19" class="edge"><title>Car&#45;&gt;State</title>
<path fill="none" stroke="#b0002d" d="M1425.08,-181.966C1555.2,-154.556 2027.73,-55.0137 2162.55,-26.6127"/>
<ellipse fill="none" stroke="#b0002d" cx="1421.09" cy="-182.807" rx="4.00001" ry="4.00001"/>
<polygon fill="#b0002d" stroke="#b0002d" points="2162.6,-26.6018 2173.31,-28.9437 2167.49,-25.5711 2172.39,-24.5404 2172.39,-24.5404 2172.39,-24.5404 2167.49,-25.5711 2171.46,-20.137 2162.6,-26.6018 2162.6,-26.6018"/>
</g>
<!-- User -->
<g id="node39" class="node"><title>User</title>
<ellipse fill="none" stroke="black" cx="1369.69" cy="-104" rx="27" ry="18"/>
<text text-anchor="middle" x="1369.69" y="-99.8" font-family="Times,serif" font-size="14.00">User</text>
</g>
<!-- Car&#45;&gt;User -->
<g id="edge18" class="edge"><title>Car&#45;&gt;User</title>
<path fill="none" stroke="#778f16" d="M1385.14,-163.991C1382.31,-153.188 1379.01,-140.581 1376.18,-129.801"/>
<ellipse fill="none" stroke="#778f16" cx="1386.22" cy="-168.132" rx="4.00001" ry="4.00001"/>
<ellipse fill="#778f16" stroke="#778f16" cx="1375.15" cy="-125.843" rx="4.00001" ry="4.00001"/>
<text text-anchor="middle" x="1398.4" y="-142.8" font-family="Times,serif" font-size="14.00">driver</text>
</g>
<!-- Mailboxer::Message -->
<g id="node49" class="node"><title>Mailboxer::Message</title>
<ellipse fill="none" stroke="black" cx="1439.69" cy="-18" rx="82.6045" ry="18"/>
<text text-anchor="middle" x="1439.69" y="-13.8" font-family="Times,serif" font-size="14.00">Mailboxer::Message</text>
</g>
<!-- Car&#45;&gt;Mailboxer::Message -->
<g id="edge15" class="edge"><title>Car&#45;&gt;Mailboxer::Message</title>
<path fill="none" stroke="#99ab7d" d="M1410.62,-167.902C1413.74,-163.547 1416.62,-158.813 1418.69,-154 1433.73,-118.983 1438.16,-74.743 1439.38,-46.6506"/>
<ellipse fill="none" stroke="#99ab7d" cx="1408.05" cy="-171.225" rx="4.00002" ry="4.00002"/>
<polygon fill="#99ab7d" stroke="#99ab7d" points="1439.39,-46.3712 1444.21,-36.5215 1439.55,-41.3738 1439.71,-36.3764 1439.71,-36.3764 1439.71,-36.3764 1439.55,-41.3738 1435.21,-36.2312 1439.39,-46.3712 1439.39,-46.3712"/>
<text text-anchor="middle" x="1462.13" y="-99.8" font-family="Times,serif" font-size="14.00">messages</text>
</g>
<!-- Mailboxer::Receipt -->
<g id="node50" class="node"><title>Mailboxer::Receipt</title>
<ellipse fill="none" stroke="black" cx="1259.69" cy="-18" rx="78.7367" ry="18"/>
<text text-anchor="middle" x="1259.69" y="-13.8" font-family="Times,serif" font-size="14.00">Mailboxer::Receipt</text>
</g>
<!-- Car&#45;&gt;Mailboxer::Receipt -->
<g id="edge16" class="edge"><title>Car&#45;&gt;Mailboxer::Receipt</title>
<path fill="none" stroke="#ef08bb" d="M1361.93,-176.345C1339.14,-165.196 1308.57,-146.852 1290.16,-122 1273.65,-99.7221 1266.04,-68.5811 1262.56,-46.3852"/>
<ellipse fill="none" stroke="#ef08bb" cx="1365.72" cy="-178.138" rx="4.00002" ry="4.00002"/>
<polygon fill="#ef08bb" stroke="#ef08bb" points="1262.54,-46.1912 1265.62,-35.6686 1261.85,-41.2384 1261.16,-36.2857 1261.16,-36.2857 1261.16,-36.2857 1261.85,-41.2384 1256.71,-36.9027 1262.54,-46.1912 1262.54,-46.1912"/>
<text text-anchor="middle" x="1311.45" y="-99.8" font-family="Times,serif" font-size="14.00">receipts</text>
</g>
<!-- CarManufacturer -->
<g id="node10" class="node"><title>CarManufacturer</title>
<ellipse fill="none" stroke="black" cx="1254.69" cy="-660" rx="70.9927" ry="18"/>
<text text-anchor="middle" x="1254.69" y="-655.8" font-family="Times,serif" font-size="14.00">CarManufacturer</text>
</g>
<!-- CarModel -->
<g id="node11" class="node"><title>CarModel</title>
<ellipse fill="none" stroke="black" cx="1316.69" cy="-552" rx="45.9286" ry="18"/>
<text text-anchor="middle" x="1316.69" y="-547.8" font-family="Times,serif" font-size="14.00">CarModel</text>
</g>
<!-- CarManufacturer&#45;&gt;CarModel -->
<g id="edge22" class="edge"><title>CarManufacturer&#45;&gt;CarModel</title>
<path fill="none" stroke="#cd45a6" d="M1268.72,-635.014C1278.56,-618.188 1291.7,-595.723 1301.74,-578.559"/>
<ellipse fill="none" stroke="#cd45a6" cx="1266.67" cy="-638.517" rx="4.00002" ry="4.00002"/>
<polygon fill="#cd45a6" stroke="#cd45a6" points="1301.91,-578.271 1310.84,-571.911 1304.43,-573.955 1306.96,-569.639 1306.96,-569.639 1306.96,-569.639 1304.43,-573.955 1303.07,-567.367 1301.91,-578.271 1301.91,-578.271"/>
</g>
<!-- CarModel&#45;&gt;Car -->
<g id="edge24" class="edge"><title>CarModel&#45;&gt;Car</title>
<path fill="none" stroke="#c0b535" d="M1316.69,-525.475C1316.69,-504.005 1316.69,-472.496 1316.69,-445 1316.69,-445 1316.69,-445 1316.69,-262 1316.69,-236.385 1340.04,-217.249 1360.69,-205.337"/>
<ellipse fill="none" stroke="#c0b535" cx="1316.69" cy="-529.742" rx="4" ry="4"/>
<polygon fill="#c0b535" stroke="#c0b535" points="1360.79,-205.28 1371.73,-204.484 1365.19,-202.903 1369.59,-200.525 1369.59,-200.525 1369.59,-200.525 1365.19,-202.903 1367.45,-196.566 1360.79,-205.28 1360.79,-205.28"/>
</g>
<!-- CarType -->
<g id="node12" class="node"><title>CarType</title>
<ellipse fill="none" stroke="black" cx="1374.69" cy="-606" rx="40.3571" ry="18"/>
<text text-anchor="middle" x="1374.69" y="-601.8" font-family="Times,serif" font-size="14.00">CarType</text>
</g>
<!-- CarType&#45;&gt;Car -->
<g id="edge26" class="edge"><title>CarType&#45;&gt;Car</title>
<path fill="none" stroke="#349d2e" d="M1381.01,-579.942C1385.85,-558.577 1391.69,-526.971 1391.69,-499 1391.69,-499 1391.69,-499 1391.69,-262 1391.69,-247.651 1391.69,-231.671 1391.69,-218.511"/>
<ellipse fill="none" stroke="#349d2e" cx="1380.07" cy="-583.982" rx="4.00001" ry="4.00001"/>
<polygon fill="#349d2e" stroke="#349d2e" points="1391.69,-218.216 1396.19,-208.216 1391.69,-213.216 1391.69,-208.216 1391.69,-208.216 1391.69,-208.216 1391.69,-213.216 1387.19,-208.216 1391.69,-218.216 1391.69,-218.216"/>
</g>
<!-- Company -->
<g id="node13" class="node"><title>Company</title>
<ellipse fill="none" stroke="black" cx="1543.69" cy="-336" rx="44.4923" ry="18"/>
<text text-anchor="middle" x="1543.69" y="-331.8" font-family="Times,serif" font-size="14.00">Company</text>
</g>
<!-- Company&#45;&gt;AlarmNotification -->
<g id="edge34" class="edge"><title>Company&#45;&gt;AlarmNotification</title>
<path fill="none" stroke="#6284eb" d="M1492.33,-330.628C1351.53,-318.641 958.563,-285.187 789.115,-270.762"/>
<ellipse fill="none" stroke="#6284eb" cx="1496.62" cy="-330.993" rx="4" ry="4"/>
<polygon fill="#6284eb" stroke="#6284eb" points="788.978,-270.75 779.395,-265.418 783.996,-270.326 779.014,-269.902 779.014,-269.902 779.014,-269.902 783.996,-270.326 778.632,-274.386 788.978,-270.75 788.978,-270.75"/>
</g>
<!-- Company&#45;&gt;Car -->
<g id="edge29" class="edge"><title>Company&#45;&gt;Car</title>
<path fill="none" stroke="#89897f" d="M1525.58,-312.291C1506.54,-289.169 1475.05,-252.981 1443.69,-226 1436.3,-219.642 1427.71,-213.447 1419.67,-208.08"/>
<ellipse fill="none" stroke="#89897f" cx="1528.31" cy="-315.637" rx="4.00002" ry="4.00002"/>
<polygon fill="#89897f" stroke="#89897f" points="1419.63,-208.055 1413.69,-198.838 1415.44,-205.334 1411.24,-202.613 1411.24,-202.613 1411.24,-202.613 1415.44,-205.334 1408.79,-206.388 1419.63,-208.055 1419.63,-208.055"/>
</g>
<!-- Company&#45;&gt;Device -->
<g id="edge30" class="edge"><title>Company&#45;&gt;Device</title>
<path fill="none" stroke="#3b40cb" d="M1596.38,-334.735C1744.57,-333.641 2157.72,-328.081 2211.69,-300 2239.21,-285.677 2229.35,-262.917 2254.69,-245 2373.88,-160.702 2547.59,-124.234 2627.93,-111.17"/>
<ellipse fill="none" stroke="#3b40cb" cx="1592.26" cy="-334.764" rx="4" ry="4"/>
<polygon fill="#3b40cb" stroke="#3b40cb" points="2628.3,-111.112 2638.88,-113.994 2633.24,-110.331 2638.18,-109.549 2638.18,-109.549 2638.18,-109.549 2633.24,-110.331 2637.47,-105.105 2628.3,-111.112 2628.3,-111.112"/>
</g>
<!-- Company&#45;&gt;Group -->
<g id="edge32" class="edge"><title>Company&#45;&gt;Group</title>
<path fill="none" stroke="#3ee794" d="M1499.01,-324.024C1442.79,-310.213 1347.15,-286.716 1293.73,-273.592"/>
<ellipse fill="none" stroke="#3ee794" cx="1502.91" cy="-324.981" rx="4.00001" ry="4.00001"/>
<polygon fill="#3ee794" stroke="#3ee794" points="1293.66,-273.575 1285.02,-266.819 1288.81,-272.382 1283.95,-271.189 1283.95,-271.189 1283.95,-271.189 1288.81,-272.382 1282.88,-275.559 1293.66,-273.575 1293.66,-273.575"/>
</g>
<!-- Simcard -->
<g id="node29" class="node"><title>Simcard</title>
<ellipse fill="none" stroke="black" cx="3068.69" cy="-18" rx="39.6558" ry="18"/>
<text text-anchor="middle" x="3068.69" y="-13.8" font-family="Times,serif" font-size="14.00">Simcard</text>
</g>
<!-- Company&#45;&gt;Simcard -->
<g id="edge31" class="edge"><title>Company&#45;&gt;Simcard</title>
<path fill="none" stroke="#284422" d="M1588.45,-323.444C1736.1,-285.606 2221.39,-163.416 2627.69,-86 2769.84,-58.9151 2939.43,-35.6732 3020.67,-25.0946"/>
<ellipse fill="none" stroke="#284422" cx="1584.32" cy="-324.505" rx="4.00001" ry="4.00001"/>
<polygon fill="#284422" stroke="#284422" points="3021.15,-25.0325 3031.64,-28.2098 3026.11,-24.3898 3031.06,-23.7471 3031.06,-23.7471 3031.06,-23.7471 3026.11,-24.3898 3030.49,-19.2845 3021.15,-25.0325 3021.15,-25.0325"/>
</g>
<!-- Subscription -->
<g id="node32" class="node"><title>Subscription</title>
<ellipse fill="none" stroke="black" cx="2318.69" cy="-263" rx="54.6334" ry="18"/>
<text text-anchor="middle" x="2318.69" y="-258.8" font-family="Times,serif" font-size="14.00">Subscription</text>
</g>
<!-- Company&#45;&gt;Subscription -->
<g id="edge33" class="edge"><title>Company&#45;&gt;Subscription</title>
<path fill="none" stroke="#70c4b6" d="M1596.39,-335.173C1737.94,-335.194 2123.99,-332.206 2246.69,-300 2259.91,-296.528 2273.55,-290.452 2285.35,-284.268"/>
<ellipse fill="none" stroke="#70c4b6" cx="1592.22" cy="-335.171" rx="4" ry="4"/>
<polygon fill="#70c4b6" stroke="#70c4b6" points="2285.6,-284.131 2296.53,-283.283 2289.98,-281.733 2294.37,-279.334 2294.37,-279.334 2294.37,-279.334 2289.98,-281.733 2292.21,-275.386 2285.6,-284.131 2285.6,-284.131"/>
</g>
<!-- Company&#45;&gt;User -->
<g id="edge28" class="edge"><title>Company&#45;&gt;User</title>
<path fill="none" stroke="#b87ee5" d="M1534.01,-310.228C1532.34,-306.419 1530.54,-302.569 1528.69,-299 1489.13,-222.716 1479.64,-200.57 1418.69,-140 1412.29,-133.644 1404.64,-127.598 1397.31,-122.375"/>
<ellipse fill="none" stroke="#b87ee5" cx="1535.68" cy="-314.198" rx="4.00001" ry="4.00001"/>
<polygon fill="#b87ee5" stroke="#b87ee5" points="1397.2,-122.298 1391.49,-112.937 1393.07,-119.475 1388.95,-116.651 1388.95,-116.651 1388.95,-116.651 1393.07,-119.475 1386.41,-120.365 1397.2,-122.298 1397.2,-122.298"/>
</g>
<!-- Device&#45;&gt;Simcard -->
<g id="edge36" class="edge"><title>Device&#45;&gt;Simcard</title>
<path fill="none" stroke="#4f88bb" d="M2711.63,-94.5496C2786.65,-78.6754 2948.04,-44.5267 3025.49,-28.1394"/>
<ellipse fill="none" stroke="#4f88bb" cx="2707.42" cy="-95.4399" rx="4.00001" ry="4.00001"/>
<ellipse fill="#4f88bb" stroke="#4f88bb" cx="3029.7" cy="-27.2487" rx="4.00001" ry="4.00001"/>
</g>
<!-- Device&#45;&gt;State -->
<g id="edge37" class="edge"><title>Device&#45;&gt;State</title>
<path fill="none" stroke="#4aec54" d="M2630.88,-95.7531C2539.88,-79.592 2321.54,-40.8172 2234.95,-25.4404"/>
<ellipse fill="none" stroke="#4aec54" cx="2634.86" cy="-96.4605" rx="4.00001" ry="4.00001"/>
<polygon fill="#4aec54" stroke="#4aec54" points="2234.91,-25.4328 2225.85,-19.2535 2229.99,-24.5585 2225.06,-23.6842 2225.06,-23.6842 2225.06,-23.6842 2229.99,-24.5585 2224.28,-28.1149 2234.91,-25.4328 2234.91,-25.4328"/>
</g>
<!-- DeviceManufacturer -->
<g id="node15" class="node"><title>DeviceManufacturer</title>
<ellipse fill="none" stroke="black" cx="2996.69" cy="-660" rx="83.0374" ry="18"/>
<text text-anchor="middle" x="2996.69" y="-655.8" font-family="Times,serif" font-size="14.00">DeviceManufacturer</text>
</g>
<!-- DeviceModel -->
<g id="node16" class="node"><title>DeviceModel</title>
<ellipse fill="none" stroke="black" cx="3093.69" cy="-552" rx="58.4737" ry="18"/>
<text text-anchor="middle" x="3093.69" y="-547.8" font-family="Times,serif" font-size="14.00">DeviceModel</text>
</g>
<!-- DeviceManufacturer&#45;&gt;DeviceModel -->
<g id="edge39" class="edge"><title>DeviceManufacturer&#45;&gt;DeviceModel</title>
<path fill="none" stroke="#579d55" d="M3017.68,-636.057C3033.56,-618.71 3055.3,-594.947 3071.47,-577.281"/>
<ellipse fill="none" stroke="#579d55" cx="3014.97" cy="-639.018" rx="4.00002" ry="4.00002"/>
<polygon fill="#579d55" stroke="#579d55" points="3071.71,-577.016 3081.78,-572.677 3075.09,-573.328 3078.46,-569.639 3078.46,-569.639 3078.46,-569.639 3075.09,-573.328 3075.14,-566.601 3071.71,-577.016 3071.71,-577.016"/>
</g>
<!-- DeviceModel&#45;&gt;Device -->
<g id="edge41" class="edge"><title>DeviceModel&#45;&gt;Device</title>
<path fill="none" stroke="#d92f0b" d="M3048.16,-535.542C2979.33,-511.499 2856.69,-465.751 2856.69,-445 2856.69,-445 2856.69,-445 2856.69,-189 2856.69,-127.86 2771.88,-111.005 2717.11,-106.494"/>
<ellipse fill="none" stroke="#d92f0b" cx="3052.09" cy="-536.909" rx="4.00001" ry="4.00001"/>
<polygon fill="#d92f0b" stroke="#d92f0b" points="2716.89,-106.479 2707.24,-101.279 2711.91,-106.123 2706.92,-105.767 2706.92,-105.767 2706.92,-105.767 2711.91,-106.123 2706.6,-110.256 2716.89,-106.479 2716.89,-106.479"/>
</g>
<!-- DeviceType -->
<g id="node17" class="node"><title>DeviceType</title>
<ellipse fill="none" stroke="black" cx="2998.69" cy="-390" rx="52.9019" ry="18"/>
<text text-anchor="middle" x="2998.69" y="-385.8" font-family="Times,serif" font-size="14.00">DeviceType</text>
</g>
<!-- DeviceType&#45;&gt;Device -->
<g id="edge43" class="edge"><title>DeviceType&#45;&gt;Device</title>
<path fill="none" stroke="#3ab70b" d="M2976.44,-366.304C2962.32,-349.45 2946.69,-325.119 2946.69,-300 2946.69,-300 2946.69,-300 2946.69,-189 2946.69,-141.344 2793.72,-118.049 2715.96,-109.286"/>
<ellipse fill="none" stroke="#3ab70b" cx="2979.32" cy="-369.593" rx="4.00002" ry="4.00002"/>
<polygon fill="#3ab70b" stroke="#3ab70b" points="2715.9,-109.279 2706.45,-103.719 2710.93,-108.736 2705.96,-108.192 2705.96,-108.192 2705.96,-108.192 2710.93,-108.736 2705.47,-112.666 2715.9,-109.279 2715.9,-109.279"/>
</g>
<!-- Feature -->
<g id="node18" class="node"><title>Feature</title>
<ellipse fill="none" stroke="black" cx="2450.69" cy="-660" rx="36.7489" ry="18"/>
<text text-anchor="middle" x="2450.69" y="-655.8" font-family="Times,serif" font-size="14.00">Feature</text>
</g>
<!-- PlanType -->
<g id="node24" class="node"><title>PlanType</title>
<ellipse fill="none" stroke="black" cx="2290.69" cy="-552" rx="43.2645" ry="18"/>
<text text-anchor="middle" x="2290.69" y="-547.8" font-family="Times,serif" font-size="14.00">PlanType</text>
</g>
<!-- Feature&#45;&gt;PlanType -->
<g id="edge45" class="edge"><title>Feature&#45;&gt;PlanType</title>
<path fill="none" stroke="#158977" d="M2430.94,-635.094C2417.47,-619.994 2398.53,-600.958 2378.69,-588 2365.38,-579.308 2349.57,-572.189 2335.05,-566.695"/>
<polygon fill="#158977" stroke="#158977" points="2431.26,-635.47 2434.43,-645.968 2434.55,-639.242 2437.83,-643.014 2437.83,-643.014 2437.83,-643.014 2434.55,-639.242 2441.22,-640.06 2431.26,-635.47 2431.26,-635.47"/>
<polygon fill="#158977" stroke="#158977" points="2334.65,-566.552 2326.78,-558.92 2329.95,-564.852 2325.25,-563.152 2325.25,-563.152 2325.25,-563.152 2329.95,-564.852 2323.72,-567.383 2334.65,-566.552 2334.65,-566.552"/>
</g>
<!-- Group&#45;&gt;AlarmGroup -->
<g id="edge47" class="edge"><title>Group&#45;&gt;AlarmGroup</title>
<path fill="none" stroke="#f9bce2" d="M1216.5,-254.21C1154.99,-241.659 1033.66,-216.906 962.46,-202.379"/>
<ellipse fill="none" stroke="#f9bce2" cx="1220.49" cy="-255.024" rx="4.00001" ry="4.00001"/>
<polygon fill="#f9bce2" stroke="#f9bce2" points="962.129,-202.311 953.23,-195.903 957.23,-201.312 952.331,-200.312 952.331,-200.312 952.331,-200.312 957.23,-201.312 951.431,-204.721 962.129,-202.311 962.129,-202.311"/>
</g>
<!-- Group&#45;&gt;Car -->
<g id="edge48" class="edge"><title>Group&#45;&gt;Car</title>
<path fill="none" stroke="#dd41b5" d="M1278.27,-242.334C1285.79,-236.618 1294.33,-230.664 1302.69,-226 1320.14,-216.259 1340.86,-207.94 1357.91,-201.86"/>
<ellipse fill="none" stroke="#dd41b5" cx="1274.85" cy="-245.011" rx="4.00002" ry="4.00002"/>
<polygon fill="#dd41b5" stroke="#dd41b5" points="1358.03,-201.82 1368.95,-202.797 1362.75,-200.182 1367.48,-198.545 1367.48,-198.545 1367.48,-198.545 1362.75,-200.182 1366,-194.293 1358.03,-201.82 1358.03,-201.82"/>
</g>
<!-- GroupWorkHour -->
<g id="node20" class="node"><title>GroupWorkHour</title>
<ellipse fill="none" stroke="black" cx="1693.69" cy="-660" rx="70.12" ry="18"/>
<text text-anchor="middle" x="1693.69" y="-655.8" font-family="Times,serif" font-size="14.00">GroupWorkHour</text>
</g>
<!-- Parameter -->
<g id="node21" class="node"><title>Parameter</title>
<ellipse fill="none" stroke="black" cx="1180.69" cy="-444" rx="45.9028" ry="18"/>
<text text-anchor="middle" x="1180.69" y="-439.8" font-family="Times,serif" font-size="14.00">Parameter</text>
</g>
<!-- Payment -->
<g id="node22" class="node"><title>Payment</title>
<ellipse fill="none" stroke="black" cx="1860.69" cy="-660" rx="41.1093" ry="18"/>
<text text-anchor="middle" x="1860.69" y="-655.8" font-family="Times,serif" font-size="14.00">Payment</text>
</g>
<!-- Plan -->
<g id="node23" class="node"><title>Plan</title>
<ellipse fill="none" stroke="black" cx="1832.69" cy="-444" rx="27" ry="18"/>
<text text-anchor="middle" x="1832.69" y="-439.8" font-family="Times,serif" font-size="14.00">Plan</text>
</g>
<!-- Plan&#45;&gt;Company -->
<g id="edge53" class="edge"><title>Plan&#45;&gt;Company</title>
<path fill="none" stroke="#720887" d="M1801.83,-431.682C1749.65,-412.542 1643.93,-373.769 1585.27,-352.252"/>
<ellipse fill="none" stroke="#720887" cx="1805.77" cy="-433.127" rx="4.00001" ry="4.00001"/>
<polygon fill="#720887" stroke="#720887" points="1584.97,-352.141 1577.13,-344.473 1580.28,-350.42 1575.58,-348.698 1575.58,-348.698 1575.58,-348.698 1580.28,-350.42 1574.03,-352.923 1584.97,-352.141 1584.97,-352.141"/>
</g>
<!-- Plan&#45;&gt;Subscription -->
<g id="edge54" class="edge"><title>Plan&#45;&gt;Subscription</title>
<path fill="none" stroke="#ad8744" d="M1865.67,-434.928C1939.01,-416.36 2120.28,-367.01 2261.69,-300 2270.54,-295.804 2279.7,-290.502 2288.02,-285.267"/>
<ellipse fill="none" stroke="#ad8744" cx="1861.56" cy="-435.962" rx="4.00001" ry="4.00001"/>
<polygon fill="#ad8744" stroke="#ad8744" points="2288.27,-285.106 2299.11,-283.444 2292.46,-282.386 2296.66,-279.667 2296.66,-279.667 2296.66,-279.667 2292.46,-282.386 2294.21,-275.891 2288.27,-285.106 2288.27,-285.106"/>
</g>
<!-- PlanType&#45;&gt;Plan -->
<g id="edge56" class="edge"><title>PlanType&#45;&gt;Plan</title>
<path fill="none" stroke="#c11213" d="M2253.37,-535.572C2211.92,-519.108 2142.67,-493.566 2080.69,-480 2006.03,-463.662 1985.12,-474.257 1909.69,-462 1895.83,-459.748 1880.71,-456.571 1867.57,-453.572"/>
<ellipse fill="none" stroke="#c11213" cx="2257.31" cy="-537.151" rx="4.00001" ry="4.00001"/>
<polygon fill="#c11213" stroke="#c11213" points="1867.26,-453.499 1858.54,-446.844 1862.39,-452.363 1857.52,-451.226 1857.52,-451.226 1857.52,-451.226 1862.39,-452.363 1856.5,-455.609 1867.26,-453.499 1867.26,-453.499"/>
</g>
<!-- PlanType&#45;&gt;Subscription -->
<g id="edge57" class="edge"><title>PlanType&#45;&gt;Subscription</title>
<path fill="none" stroke="#47b2da" d="M2293.15,-525.738C2298.4,-471.946 2310.64,-346.492 2316.04,-291.105"/>
<ellipse fill="none" stroke="#47b2da" cx="2292.74" cy="-529.925" rx="4" ry="4"/>
<polygon fill="#47b2da" stroke="#47b2da" points="2316.06,-290.957 2321.51,-281.441 2316.54,-285.98 2317.03,-281.004 2317.03,-281.004 2317.03,-281.004 2316.54,-285.98 2312.55,-280.567 2316.06,-290.957 2316.06,-290.957"/>
</g>
<!-- Region -->
<g id="node25" class="node"><title>Region</title>
<ellipse fill="none" stroke="black" cx="1569.69" cy="-660" rx="35.806" ry="18"/>
<text text-anchor="middle" x="1569.69" y="-655.8" font-family="Times,serif" font-size="14.00">Region</text>
</g>
<!-- Vertex -->
<g id="node41" class="node"><title>Vertex</title>
<ellipse fill="none" stroke="black" cx="1539.69" cy="-552" rx="33.3752" ry="18"/>
<text text-anchor="middle" x="1539.69" y="-547.8" font-family="Times,serif" font-size="14.00">Vertex</text>
</g>
<!-- Region&#45;&gt;Vertex -->
<g id="edge59" class="edge"><title>Region&#45;&gt;Vertex</title>
<path fill="none" stroke="#ab110c" d="M1562.69,-634.271C1558.06,-617.914 1551.99,-596.476 1547.25,-579.725"/>
<ellipse fill="none" stroke="#ab110c" cx="1563.78" cy="-638.12" rx="4.00001" ry="4.00001"/>
<polygon fill="#ab110c" stroke="#ab110c" points="1547.22,-579.611 1548.83,-568.763 1545.86,-574.8 1544.5,-569.988 1544.5,-569.988 1544.5,-569.988 1545.86,-574.8 1540.17,-571.214 1547.22,-579.611 1547.22,-579.611"/>
</g>
<!-- Role -->
<g id="node26" class="node"><title>Role</title>
<ellipse fill="none" stroke="black" cx="2174.69" cy="-660" rx="27" ry="18"/>
<text text-anchor="middle" x="2174.69" y="-655.8" font-family="Times,serif" font-size="14.00">Role</text>
</g>
<!-- Rule&#45;&gt;AlarmRule -->
<g id="edge62" class="edge"><title>Rule&#45;&gt;AlarmRule</title>
<path fill="none" stroke="#622e94" d="M1059.63,-536.201C1023.83,-517.324 961.871,-484.649 922.647,-463.963"/>
<ellipse fill="none" stroke="#622e94" cx="1063.4" cy="-538.189" rx="4.00002" ry="4.00002"/>
<polygon fill="#622e94" stroke="#622e94" points="922.522,-463.898 915.776,-455.252 918.099,-461.565 913.676,-459.233 913.676,-459.233 913.676,-459.233 918.099,-461.565 911.577,-463.213 922.522,-463.898 922.522,-463.898"/>
</g>
<!-- Rule&#45;&gt;Parameter -->
<g id="edge63" class="edge"><title>Rule&#45;&gt;Parameter</title>
<path fill="none" stroke="#6179cf" d="M1106.45,-529.616C1121.83,-512.086 1143.59,-487.283 1159.58,-469.061"/>
<ellipse fill="none" stroke="#6179cf" cx="1103.65" cy="-532.806" rx="4.00002" ry="4.00002"/>
<polygon fill="#6179cf" stroke="#6179cf" points="1159.88,-468.719 1169.86,-464.17 1163.18,-464.96 1166.47,-461.202 1166.47,-461.202 1166.47,-461.202 1163.18,-464.96 1163.09,-458.234 1159.88,-468.719 1159.88,-468.719"/>
</g>
<!-- RuleNotification -->
<g id="node28" class="node"><title>RuleNotification</title>
<ellipse fill="none" stroke="black" cx="2326.69" cy="-660" rx="69.1151" ry="18"/>
<text text-anchor="middle" x="2326.69" y="-655.8" font-family="Times,serif" font-size="14.00">RuleNotification</text>
</g>
<!-- Simulation -->
<g id="node30" class="node"><title>Simulation</title>
<polygon fill="none" stroke="black" points="355.637,-678 277.738,-678 277.738,-642 355.637,-642 355.637,-678"/>
<text text-anchor="middle" x="316.688" y="-655.8" font-family="Times,serif" font-size="14.00">Simulation</text>
</g>
<!-- Teleprovider -->
<g id="node33" class="node"><title>Teleprovider</title>
<ellipse fill="none" stroke="black" cx="3217.69" cy="-498" rx="55.3155" ry="18"/>
<text text-anchor="middle" x="3217.69" y="-493.8" font-family="Times,serif" font-size="14.00">Teleprovider</text>
</g>
<!-- Teleprovider&#45;&gt;Simcard -->
<g id="edge70" class="edge"><title>Teleprovider&#45;&gt;Simcard</title>
<path fill="none" stroke="#99e213" d="M3211.74,-471.922C3207.19,-450.544 3201.69,-418.931 3201.69,-391 3201.69,-391 3201.69,-391 3201.69,-103 3201.69,-60.7576 3153.13,-38.8959 3114.7,-28.2079"/>
<ellipse fill="none" stroke="#99e213" cx="3212.62" cy="-475.955" rx="4.00001" ry="4.00001"/>
<polygon fill="#99e213" stroke="#99e213" points="3114.36,-28.1193 3105.81,-21.2484 3109.52,-26.8615 3104.68,-25.6037 3104.68,-25.6037 3104.68,-25.6037 3109.52,-26.8615 3103.55,-29.959 3114.36,-28.1193 3114.36,-28.1193"/>
</g>
<!-- Traccar::Device -->
<g id="node34" class="node"><title>Traccar::Device</title>
<ellipse fill="none" stroke="black" cx="2062.69" cy="-660" rx="66.9956" ry="18"/>
<text text-anchor="middle" x="2062.69" y="-655.8" font-family="Times,serif" font-size="14.00">Traccar::Device</text>
</g>
<!-- Traccar::Position -->
<g id="node36" class="node"><title>Traccar::Position</title>
<ellipse fill="none" stroke="black" cx="2492.69" cy="-552" rx="70.906" ry="18"/>
<text text-anchor="middle" x="2492.69" y="-547.8" font-family="Times,serif" font-size="14.00">Traccar::Position</text>
</g>
<!-- Traccar::Device&#45;&gt;Traccar::Position -->
<g id="edge72" class="edge"><title>Traccar::Device&#45;&gt;Traccar::Position</title>
<path fill="none" stroke="#d17989" d="M2118.31,-645.288C2199.78,-625.205 2350.87,-587.96 2434.03,-567.46"/>
<ellipse fill="none" stroke="#d17989" cx="2114.23" cy="-646.294" rx="4.00001" ry="4.00001"/>
<polygon fill="#d17989" stroke="#d17989" points="2434.11,-567.439 2444.9,-569.415 2438.97,-566.242 2443.82,-565.045 2443.82,-565.045 2443.82,-565.045 2438.97,-566.242 2442.75,-560.676 2434.11,-567.439 2434.11,-567.439"/>
<text text-anchor="middle" x="2365.97" y="-601.8" font-family="Times,serif" font-size="14.00">positions</text>
</g>
<!-- Traccar::User -->
<g id="node37" class="node"><title>Traccar::User</title>
<ellipse fill="none" stroke="black" cx="2015.69" cy="-552" rx="58.3097" ry="18"/>
<text text-anchor="middle" x="2015.69" y="-547.8" font-family="Times,serif" font-size="14.00">Traccar::User</text>
</g>
<!-- Traccar::Device&#45;&gt;Traccar::User -->
<g id="edge74" class="edge"><title>Traccar::Device&#45;&gt;Traccar::User</title>
<path fill="none" stroke="#db1758" d="M2023.03,-637.814C2018.57,-633.817 2014.66,-629.222 2011.92,-624 2004.92,-610.676 2005.44,-593.939 2007.91,-580.062"/>
<polygon fill="#db1758" stroke="#db1758" points="2023.04,-637.824 2028.15,-647.526 2026.98,-640.902 2030.92,-643.98 2030.92,-643.98 2030.92,-643.98 2026.98,-640.902 2033.69,-640.433 2023.04,-637.824 2023.04,-637.824"/>
<polygon fill="#db1758" stroke="#db1758" points="2007.95,-579.882 2014.48,-571.072 2009.02,-574.997 2010.08,-570.112 2010.08,-570.112 2010.08,-570.112 2009.02,-574.997 2005.69,-569.151 2007.95,-579.882 2007.95,-579.882"/>
<text text-anchor="middle" x="2026.07" y="-601.8" font-family="Times,serif" font-size="14.00">users</text>
</g>
<!-- Traccar::UserDevice -->
<g id="node38" class="node"><title>Traccar::UserDevice</title>
<ellipse fill="none" stroke="black" cx="2001.69" cy="-444" rx="83.3909" ry="18"/>
<text text-anchor="middle" x="2001.69" y="-439.8" font-family="Times,serif" font-size="14.00">Traccar::UserDevice</text>
</g>
<!-- Traccar::Device&#45;&gt;Traccar::UserDevice -->
<g id="edge73" class="edge"><title>Traccar::Device&#45;&gt;Traccar::UserDevice</title>
<path fill="none" stroke="#484e54" d="M2091.26,-636.978C2094.68,-633.045 2097.67,-628.69 2099.69,-624 2112.61,-593.989 2121.17,-518.719 2092.69,-480 2086.88,-472.106 2079.05,-465.993 2070.4,-461.258"/>
<ellipse fill="none" stroke="#484e54" cx="2088.39" cy="-639.929" rx="4.00002" ry="4.00002"/>
<polygon fill="#484e54" stroke="#484e54" points="2070.16,-461.141 2063.1,-452.751 2065.65,-458.974 2061.15,-456.806 2061.15,-456.806 2061.15,-456.806 2065.65,-458.974 2059.2,-460.862 2070.16,-461.141 2070.16,-461.141"/>
<text text-anchor="middle" x="2150.56" y="-547.8" font-family="Times,serif" font-size="14.00">users_devices</text>
</g>
<!-- Traccar::Location -->
<g id="node35" class="node"><title>Traccar::Location</title>
<ellipse fill="none" stroke="black" cx="2494.69" cy="-444" rx="73.2765" ry="18"/>
<text text-anchor="middle" x="2494.69" y="-439.8" font-family="Times,serif" font-size="14.00">Traccar::Location</text>
</g>
<!-- Traccar::Position&#45;&gt;Traccar::Location -->
<g id="edge77" class="edge"><title>Traccar::Position&#45;&gt;Traccar::Location</title>
<path fill="none" stroke="#299946" d="M2493.16,-525.795C2493.48,-509.123 2493.89,-487.335 2494.2,-470.586"/>
<ellipse fill="none" stroke="#299946" cx="2493.08" cy="-529.97" rx="4" ry="4"/>
<ellipse fill="#299946" stroke="#299946" cx="2494.29" cy="-466.34" rx="4" ry="4"/>
<text text-anchor="middle" x="2516.24" y="-493.8" font-family="Times,serif" font-size="14.00">location</text>
</g>
<!-- Traccar::User&#45;&gt;Traccar::Device -->
<g id="edge79" class="edge"><title>Traccar::User&#45;&gt;Traccar::Device</title>
<path fill="none" stroke="#8fad49" d="M2034.98,-578.031C2037.07,-581.29 2039.03,-584.659 2040.69,-588 2047.59,-601.911 2052.86,-618.431 2056.51,-632.034"/>
<polygon fill="#8fad49" stroke="#8fad49" points="2034.96,-577.999 2033.01,-567.208 2032.13,-573.877 2029.3,-569.754 2029.3,-569.754 2029.3,-569.754 2032.13,-573.877 2025.59,-572.3 2034.96,-577.999 2034.96,-577.999"/>
<polygon fill="#8fad49" stroke="#8fad49" points="2056.53,-632.084 2054.63,-642.885 2057.76,-636.93 2058.99,-641.776 2058.99,-641.776 2058.99,-641.776 2057.76,-636.93 2063.35,-640.667 2056.53,-632.084 2056.53,-632.084"/>
<text text-anchor="middle" x="2074.68" y="-601.8" font-family="Times,serif" font-size="14.00">devices</text>
</g>
<!-- Traccar::User&#45;&gt;Traccar::UserDevice -->
<g id="edge80" class="edge"><title>Traccar::User&#45;&gt;Traccar::UserDevice</title>
<path fill="none" stroke="#8ac164" d="M2012.36,-525.795C2010.24,-509.735 2007.49,-488.927 2005.31,-472.45"/>
<ellipse fill="none" stroke="#8ac164" cx="2012.91" cy="-530.004" rx="4.00001" ry="4.00001"/>
<polygon fill="#8ac164" stroke="#8ac164" points="2005.29,-472.255 2008.44,-461.751 2004.63,-467.298 2003.98,-462.341 2003.98,-462.341 2003.98,-462.341 2004.63,-467.298 1999.52,-462.93 2005.29,-472.255 2005.29,-472.255"/>
<text text-anchor="middle" x="2049.56" y="-493.8" font-family="Times,serif" font-size="14.00">users_devices</text>
</g>
<!-- User&#45;&gt;Mailboxer::Message -->
<g id="edge83" class="edge"><title>User&#45;&gt;Mailboxer::Message</title>
<path fill="none" stroke="#4f8e47" d="M1365.36,-77.7276C1365.2,-69.6193 1366.44,-60.9482 1370.81,-54 1374.69,-47.8348 1380.03,-42.7101 1386.02,-38.4621"/>
<ellipse fill="none" stroke="#4f8e47" cx="1365.66" cy="-81.8884" rx="4" ry="4"/>
<polygon fill="#4f8e47" stroke="#4f8e47" points="1386.03,-38.4572 1396.9,-37.0244 1390.28,-35.8272 1394.54,-33.1972 1394.54,-33.1972 1394.54,-33.1972 1390.28,-35.8272 1392.17,-29.37 1386.03,-38.4572 1386.03,-38.4572"/>
<text text-anchor="middle" x="1397.13" y="-56.8" font-family="Times,serif" font-size="14.00">messages</text>
</g>
<!-- User&#45;&gt;Mailboxer::Receipt -->
<g id="edge84" class="edge"><title>User&#45;&gt;Mailboxer::Receipt</title>
<path fill="none" stroke="#dba83f" d="M1343.99,-86.2872C1335.62,-80.6527 1326.38,-74.2142 1318.16,-68 1307.51,-59.9533 1296.18,-50.6482 1286.36,-42.3224"/>
<ellipse fill="none" stroke="#dba83f" cx="1347.44" cy="-88.5884" rx="4.00002" ry="4.00002"/>
<polygon fill="#dba83f" stroke="#dba83f" points="1286.11,-42.11 1281.44,-32.1893 1282.31,-38.8592 1278.52,-35.6083 1278.52,-35.6083 1278.52,-35.6083 1282.31,-38.8592 1275.59,-39.0274 1286.11,-42.11 1286.11,-42.11"/>
<text text-anchor="middle" x="1339.45" y="-56.8" font-family="Times,serif" font-size="14.00">receipts</text>
</g>
<!-- UserConversation -->
<g id="node40" class="node"><title>UserConversation</title>
<polygon fill="none" stroke="black" points="490.278,-678 373.098,-678 373.098,-642 490.278,-642 490.278,-678"/>
<text text-anchor="middle" x="431.688" y="-655.8" font-family="Times,serif" font-size="14.00">UserConversation</text>
</g>
<!-- WorkHour -->
<g id="node42" class="node"><title>WorkHour</title>
<ellipse fill="none" stroke="black" cx="2743.69" cy="-552" rx="47.9272" ry="18"/>
<text text-anchor="middle" x="2743.69" y="-547.8" font-family="Times,serif" font-size="14.00">WorkHour</text>
</g>
<!-- WorkSchedule -->
<g id="node43" class="node"><title>WorkSchedule</title>
<ellipse fill="none" stroke="black" cx="2795.69" cy="-660" rx="61.9085" ry="18"/>
<text text-anchor="middle" x="2795.69" y="-655.8" font-family="Times,serif" font-size="14.00">WorkSchedule</text>
</g>
<!-- WorkSchedule&#45;&gt;Car -->
<g id="edge89" class="edge"><title>WorkSchedule&#45;&gt;Car</title>
<path fill="none" stroke="#c52596" d="M2803.62,-634.083C2810.52,-607.654 2817.08,-565.458 2800.69,-534 2696.32,-333.704 2596.92,-316.535 2382.69,-245 2290.99,-214.379 1598.38,-195.944 1428.99,-191.864"/>
<ellipse fill="none" stroke="#c52596" cx="2802.47" cy="-638.223" rx="4.00001" ry="4.00001"/>
<polygon fill="#c52596" stroke="#c52596" points="1428.82,-191.86 1418.93,-187.122 1423.82,-191.74 1418.82,-191.621 1418.82,-191.621 1418.82,-191.621 1423.82,-191.74 1418.71,-196.12 1428.82,-191.86 1428.82,-191.86"/>
</g>
<!-- WorkSchedule&#45;&gt;WorkHour -->
<g id="edge90" class="edge"><title>WorkSchedule&#45;&gt;WorkHour</title>
<path fill="none" stroke="#c9150f" d="M2783.69,-634.534C2775.58,-618.004 2764.88,-596.198 2756.59,-579.296"/>
<ellipse fill="none" stroke="#c9150f" cx="2785.57" cy="-638.378" rx="4.00002" ry="4.00002"/>
<polygon fill="#c9150f" stroke="#c9150f" points="2756.43,-578.966 2756.06,-568.007 2754.22,-574.477 2752.02,-569.988 2752.02,-569.988 2752.02,-569.988 2754.22,-574.477 2747.98,-571.97 2756.43,-578.966 2756.43,-578.966"/>
</g>
<!-- WorkScheduleGroup -->
<g id="node44" class="node"><title>WorkScheduleGroup</title>
<ellipse fill="none" stroke="black" cx="2932.69" cy="-552" rx="84.6017" ry="18"/>
<text text-anchor="middle" x="2932.69" y="-547.8" font-family="Times,serif" font-size="14.00">WorkScheduleGroup</text>
</g>
<!-- WorkSchedule&#45;&gt;WorkScheduleGroup -->
<g id="edge91" class="edge"><title>WorkSchedule&#45;&gt;WorkScheduleGroup</title>
<path fill="none" stroke="#592b41" d="M2819.71,-636.973C2824.36,-632.682 2829.18,-628.209 2833.69,-624 2850.69,-608.119 2853.02,-601.887 2871.69,-588 2878.23,-583.132 2885.51,-578.421 2892.7,-574.117"/>
<ellipse fill="none" stroke="#592b41" cx="2816.46" cy="-639.96" rx="4.00002" ry="4.00002"/>
<polygon fill="#592b41" stroke="#592b41" points="2893.05,-573.918 2903.95,-572.795 2897.37,-571.41 2901.7,-568.902 2901.7,-568.902 2901.7,-568.902 2897.37,-571.41 2899.44,-565.009 2893.05,-573.918 2893.05,-573.918"/>
</g>
<!-- Object -->
<g id="node45" class="node"><title>Object</title>
<ellipse fill="none" stroke="black" cx="258.688" cy="-751.5" rx="33.8596" ry="18"/>
<text text-anchor="middle" x="258.688" y="-747.3" font-family="Times,serif" font-size="14.00">Object</text>
</g>
<!-- Object&#45;&gt;Ability -->
<g id="edge1" class="edge"><title>Object&#45;&gt;Ability</title>
<path fill="none" stroke="black" d="M243.194,-735.489C235.613,-728.662 226.106,-720.827 216.688,-715 181.302,-693.109 168.707,-694.909 130.688,-678 127.717,-676.679 124.618,-675.283 121.535,-673.883"/>
</g>
<!-- Object&#45;&gt;Alarm::Movement -->
<g id="edge2" class="edge"><title>Object&#45;&gt;Alarm::Movement</title>
<path fill="none" stroke="black" d="M247.866,-734.084C237.42,-718.238 221.666,-694.34 211.044,-678.227"/>
</g>
<!-- Object&#45;&gt;Simulation -->
<g id="edge67" class="edge"><title>Object&#45;&gt;Simulation</title>
<path fill="none" stroke="black" d="M269.326,-734.084C279.595,-718.238 295.082,-694.34 305.524,-678.227"/>
</g>
<!-- Object&#45;&gt;UserConversation -->
<g id="edge86" class="edge"><title>Object&#45;&gt;UserConversation</title>
<path fill="none" stroke="black" d="M282.019,-738.43C312.086,-722.875 364.542,-695.737 398.686,-678.073"/>
</g>
<!-- ActiveRecord::Base -->
<g id="node48" class="node"><title>ActiveRecord::Base</title>
<ellipse fill="none" stroke="black" cx="1929.69" cy="-751.5" rx="81.1422" ry="18"/>
<text text-anchor="middle" x="1929.69" y="-747.3" font-family="Times,serif" font-size="14.00">ActiveRecord::Base</text>
</g>
<!-- ActiveRecord::Base&#45;&gt;Alarm -->
<g id="edge10" class="edge"><title>ActiveRecord::Base&#45;&gt;Alarm</title>
<path fill="none" stroke="black" d="M1848.89,-749.107C1663.63,-745.33 1212.84,-732.663 1065.69,-697 1044.53,-691.873 1021.99,-681.587 1005.91,-673.318"/>
</g>
<!-- ActiveRecord::Base&#45;&gt;AlarmCar -->
<g id="edge11" class="edge"><title>ActiveRecord::Base&#45;&gt;AlarmCar</title>
<path fill="none" stroke="black" d="M1848.76,-749.63C1548.94,-745.881 518.688,-728.117 518.688,-661 518.688,-661 518.688,-661 518.688,-189 518.688,-165.536 523.703,-138.815 527.503,-121.935"/>
</g>
<!-- ActiveRecord::Base&#45;&gt;AlarmGroup -->
<g id="edge12" class="edge"><title>ActiveRecord::Base&#45;&gt;AlarmGroup</title>
<path fill="none" stroke="black" d="M1848.92,-749.283C1561.68,-744.43 606.688,-723.589 606.688,-661 606.688,-661 606.688,-661 606.688,-262 606.688,-212.158 765.482,-197.259 852.012,-192.84"/>
</g>
<!-- ActiveRecord::Base&#45;&gt;AlarmNotification -->
<g id="edge13" class="edge"><title>ActiveRecord::Base&#45;&gt;AlarmNotification</title>
<path fill="none" stroke="black" d="M1848.82,-749.116C1566.92,-743.764 644.688,-721.625 644.688,-661 644.688,-661 644.688,-661 644.688,-335 644.688,-311.436 664.406,-292.291 682.122,-279.845"/>
</g>
<!-- ActiveRecord::Base&#45;&gt;AlarmRule -->
<g id="edge14" class="edge"><title>ActiveRecord::Base&#45;&gt;AlarmRule</title>
<path fill="none" stroke="black" d="M1848.83,-749.293C1644.24,-745.485 1110.27,-730.651 941.688,-678 844.513,-647.65 789.627,-658.713 739.688,-570 709.532,-516.432 798.136,-475.434 850.74,-456.509"/>
</g>
<!-- ActiveRecord::Base&#45;&gt;Car -->
<g id="edge21" class="edge"><title>ActiveRecord::Base&#45;&gt;Car</title>
<path fill="none" stroke="black" d="M1852.71,-745.497C1743.76,-737.692 1550.48,-720.988 1484.69,-697 1457.24,-686.993 1429.69,-690.215 1429.69,-661 1429.69,-661 1429.69,-661 1429.69,-262 1429.69,-240.609 1416.11,-219.427 1405.19,-205.844"/>
</g>
<!-- ActiveRecord::Base&#45;&gt;CarManufacturer -->
<g id="edge23" class="edge"><title>ActiveRecord::Base&#45;&gt;CarManufacturer</title>
<path fill="none" stroke="black" d="M1848.21,-751.02C1733.14,-749.982 1517.27,-741.5 1339.69,-697 1320.72,-692.248 1300.53,-683.849 1284.59,-676.358"/>
</g>
<!-- ActiveRecord::Base&#45;&gt;CarModel -->
<g id="edge25" class="edge"><title>ActiveRecord::Base&#45;&gt;CarModel</title>
<path fill="none" stroke="black" d="M1851.66,-746.314C1727.7,-739.015 1491.64,-722.281 1411.69,-697 1366.42,-682.685 1354.74,-666.559 1333.69,-624 1325.15,-606.731 1320.75,-584.939 1318.6,-570.083"/>
</g>
<!-- ActiveRecord::Base&#45;&gt;CarType -->
<g id="edge27" class="edge"><title>ActiveRecord::Base&#45;&gt;CarType</title>
<path fill="none" stroke="black" d="M1851.18,-746.598C1715.96,-739.255 1450.24,-721.851 1415.69,-697 1391.71,-679.756 1381.45,-645.056 1377.29,-624.141"/>
</g>
<!-- ActiveRecord::Base&#45;&gt;Company -->
<g id="edge35" class="edge"><title>ActiveRecord::Base&#45;&gt;Company</title>
<path fill="none" stroke="black" d="M1848.15,-751.157C1715.52,-750.001 1467.69,-737.593 1467.69,-661 1467.69,-661 1467.69,-661 1467.69,-443 1467.69,-404.731 1500.81,-370.794 1523.32,-352.147"/>
</g>
<!-- ActiveRecord::Base&#45;&gt;Device -->
<g id="edge38" class="edge"><title>ActiveRecord::Base&#45;&gt;Device</title>
<path fill="none" stroke="black" d="M2008.91,-747.283C2156.53,-740.73 2468.19,-724.119 2572.69,-697 2592.52,-691.853 2600.25,-692.535 2614.69,-678 2677.19,-615.082 2671.69,-471.1 2671.69,-391 2671.69,-391 2671.69,-391 2671.69,-189 2671.69,-165.812 2671.69,-139.025 2671.69,-122.053"/>
</g>
<!-- ActiveRecord::Base&#45;&gt;DeviceManufacturer -->
<g id="edge40" class="edge"><title>ActiveRecord::Base&#45;&gt;DeviceManufacturer</title>
<path fill="none" stroke="black" d="M2010.43,-749.157C2211.51,-745.313 2730.65,-732.189 2899.69,-697 2921.14,-692.534 2944.18,-684.148 2962.41,-676.594"/>
</g>
<!-- ActiveRecord::Base&#45;&gt;DeviceModel -->
<g id="edge42" class="edge"><title>ActiveRecord::Base&#45;&gt;DeviceModel</title>
<path fill="none" stroke="black" d="M2010.07,-748.469C2266.71,-741.598 3051.89,-717.423 3088.69,-678 3115.96,-648.787 3106.61,-596.993 3099.19,-570.169"/>
</g>
<!-- ActiveRecord::Base&#45;&gt;DeviceType -->
<g id="edge44" class="edge"><title>ActiveRecord::Base&#45;&gt;DeviceType</title>
<path fill="none" stroke="black" d="M2011.26,-750.881C2264.56,-751.328 3025.71,-746.877 3110.69,-678 3163.32,-635.341 3188.55,-595.755 3160.69,-534 3133.07,-472.789 3064.87,-427.264 3026.34,-405.416"/>
</g>
<!-- ActiveRecord::Base&#45;&gt;Feature -->
<g id="edge46" class="edge"><title>ActiveRecord::Base&#45;&gt;Feature</title>
<path fill="none" stroke="black" d="M2003.45,-743.918C2097.64,-734.45 2265.16,-714.034 2404.69,-678 2410.79,-676.425 2417.21,-674.34 2423.25,-672.171"/>
</g>
<!-- ActiveRecord::Base&#45;&gt;Group -->
<g id="edge49" class="edge"><title>ActiveRecord::Base&#45;&gt;Group</title>
<path fill="none" stroke="black" d="M1848.97,-748.824C1663.38,-744.128 1218.81,-727.749 1174.69,-678 1164.07,-666.03 1172.09,-657.787 1174.69,-642 1188.43,-558.656 1217.98,-544.592 1235.69,-462 1249.8,-396.157 1253.44,-315.739 1254.37,-281.153"/>
</g>
<!-- ActiveRecord::Base&#45;&gt;GroupWorkHour -->
<g id="edge50" class="edge"><title>ActiveRecord::Base&#45;&gt;GroupWorkHour</title>
<path fill="none" stroke="black" d="M1886.49,-736.151C1855.92,-725.786 1814.05,-711.173 1777.69,-697 1760.84,-690.431 1742.33,-682.574 1727,-675.878"/>
</g>
<!-- ActiveRecord::Base&#45;&gt;Parameter -->
<g id="edge51" class="edge"><title>ActiveRecord::Base&#45;&gt;Parameter</title>
<path fill="none" stroke="black" d="M1848.1,-751.109C1656.28,-751.689 1189.17,-747.815 1141.69,-697 1125,-679.139 1133.37,-664.984 1141.69,-642 1145.23,-632.208 1152.5,-633.534 1156.69,-624 1181.03,-568.598 1182.31,-494.993 1181.47,-462.121"/>
</g>
<!-- ActiveRecord::Base&#45;&gt;Payment -->
<g id="edge52" class="edge"><title>ActiveRecord::Base&#45;&gt;Payment</title>
<path fill="none" stroke="black" d="M1916.71,-733.666C1904.22,-717.462 1885.46,-693.128 1873.14,-677.156"/>
</g>
<!-- ActiveRecord::Base&#45;&gt;Plan -->
<g id="edge55" class="edge"><title>ActiveRecord::Base&#45;&gt;Plan</title>
<path fill="none" stroke="black" d="M1885.78,-736.304C1858.9,-725.079 1826.68,-706.474 1810.69,-678 1770.29,-606.087 1807.8,-501.713 1825.06,-461.578"/>
</g>
<!-- ActiveRecord::Base&#45;&gt;PlanType -->
<g id="edge58" class="edge"><title>ActiveRecord::Base&#45;&gt;PlanType</title>
<path fill="none" stroke="black" d="M2010.55,-749.196C2072.44,-744.015 2156.17,-727.378 2210.69,-678 2242.27,-649.401 2218.21,-622.145 2243.69,-588 2249.77,-579.846 2258.27,-572.722 2266.38,-567.067"/>
</g>
<!-- ActiveRecord::Base&#45;&gt;Region -->
<g id="edge60" class="edge"><title>ActiveRecord::Base&#45;&gt;Region</title>
<path fill="none" stroke="black" d="M1869.84,-739.232C1806.01,-726.633 1702.24,-704.482 1614.69,-678 1608.77,-676.211 1602.52,-674.036 1596.61,-671.847"/>
</g>
<!-- ActiveRecord::Base&#45;&gt;Role -->
<g id="edge61" class="edge"><title>ActiveRecord::Base&#45;&gt;Role</title>
<path fill="none" stroke="black" d="M1974.64,-736.451C2017.32,-722.752 2083.04,-700.714 2138.69,-678 2143.55,-676.015 2148.7,-673.71 2153.54,-671.45"/>
</g>
<!-- ActiveRecord::Base&#45;&gt;Rule -->
<g id="edge64" class="edge"><title>ActiveRecord::Base&#45;&gt;Rule</title>
<path fill="none" stroke="black" d="M1848.22,-751.039C1650.34,-751.541 1156.72,-747.649 1103.69,-697 1069.13,-663.991 1077.05,-600.659 1083.44,-570.197"/>
</g>
<!-- ActiveRecord::Base&#45;&gt;RuleNotification -->
<g id="edge65" class="edge"><title>ActiveRecord::Base&#45;&gt;RuleNotification</title>
<path fill="none" stroke="black" d="M2001.89,-743.198C2066.27,-735.513 2162.59,-721.113 2243.69,-697 2261.6,-691.673 2280.8,-683.52 2296.21,-676.319"/>
</g>
<!-- ActiveRecord::Base&#45;&gt;Simcard -->
<g id="edge66" class="edge"><title>ActiveRecord::Base&#45;&gt;Simcard</title>
<path fill="none" stroke="black" d="M2011.4,-751.114C2255.93,-752.316 2979.16,-751.074 3207.69,-697 3245.63,-688.022 3287.69,-699.99 3287.69,-661 3287.69,-661 3287.69,-661 3287.69,-103 3287.69,-64.4162 3167.69,-36.927 3105.34,-25.249"/>
</g>
<!-- ActiveRecord::Base&#45;&gt;State -->
<g id="edge68" class="edge"><title>ActiveRecord::Base&#45;&gt;State</title>
<path fill="none" stroke="black" d="M2007.47,-746.177C2155.27,-737.164 2464.87,-714.151 2496.69,-678 2542.51,-625.947 2429.36,-602.243 2412.69,-570 2346.08,-441.141 2437.53,-379.293 2382.69,-245 2344.24,-150.85 2252.74,-65.2226 2215.19,-32.7754"/>
</g>
<!-- ActiveRecord::Base&#45;&gt;Subscription -->
<g id="edge69" class="edge"><title>ActiveRecord::Base&#45;&gt;Subscription</title>
<path fill="none" stroke="black" d="M2009.59,-748.01C2155.11,-742.763 2457.58,-728.373 2557.69,-697 2573.84,-691.939 2580.91,-691.816 2590.69,-678 2655.48,-586.429 2638.03,-519.915 2576.69,-426 2523.76,-344.966 2414.66,-297.003 2356.75,-276.238"/>
</g>
<!-- ActiveRecord::Base&#45;&gt;Teleprovider -->
<g id="edge71" class="edge"><title>ActiveRecord::Base&#45;&gt;Teleprovider</title>
<path fill="none" stroke="black" d="M2010.85,-749.927C2283.24,-747.632 3150.22,-737.19 3193.69,-697 3244.79,-649.75 3230.44,-554.636 3221.92,-515.948"/>
</g>
<!-- ActiveRecord::Base&#45;&gt;Traccar::Device -->
<g id="edge75" class="edge"><title>ActiveRecord::Base&#45;&gt;Traccar::Device</title>
<path fill="none" stroke="black" d="M1953.77,-734.292C1977.88,-718.072 2014.74,-693.265 2038.78,-677.087"/>
</g>
<!-- ActiveRecord::Base&#45;&gt;Traccar::Location -->
<g id="edge76" class="edge"><title>ActiveRecord::Base&#45;&gt;Traccar::Location</title>
<path fill="none" stroke="black" d="M2009.17,-747.495C2164.92,-741.04 2499.06,-724.192 2543.69,-697 2606.53,-658.716 2591.15,-605.23 2572.69,-534 2565.8,-507.423 2560.87,-500.57 2542.69,-480 2536.4,-472.891 2528.44,-466.372 2520.81,-460.936"/>
</g>
<!-- ActiveRecord::Base&#45;&gt;Traccar::Position -->
<g id="edge78" class="edge"><title>ActiveRecord::Base&#45;&gt;Traccar::Position</title>
<path fill="none" stroke="black" d="M2010.39,-749.23C2166,-745.939 2495.32,-734.569 2529.69,-697 2562.62,-661.005 2526.76,-599.67 2505.73,-570.031"/>
</g>
<!-- ActiveRecord::Base&#45;&gt;Traccar::User -->
<g id="edge81" class="edge"><title>ActiveRecord::Base&#45;&gt;Traccar::User</title>
<path fill="none" stroke="black" d="M1937.17,-733.319C1953.47,-695.873 1992.05,-607.282 2008.28,-570.001"/>
</g>
<!-- ActiveRecord::Base&#45;&gt;Traccar::UserDevice -->
<g id="edge82" class="edge"><title>ActiveRecord::Base&#45;&gt;Traccar::UserDevice</title>
<path fill="none" stroke="black" d="M1928.65,-733.427C1926.93,-696.184 1925.67,-605.273 1948.69,-534 1957.47,-506.789 1975.79,-479.047 1988.41,-461.93"/>
</g>
<!-- ActiveRecord::Base&#45;&gt;User -->
<g id="edge85" class="edge"><title>ActiveRecord::Base&#45;&gt;User</title>
<path fill="none" stroke="black" d="M1848.88,-749.438C1556.19,-745.069 568.688,-725.545 568.688,-661 568.688,-661 568.688,-661 568.688,-189 568.688,-103.232 1255.44,-146.33 1337.69,-122 1342.03,-120.715 1346.46,-118.808 1350.59,-116.731"/>
</g>
<!-- ActiveRecord::Base&#45;&gt;Vertex -->
<g id="edge87" class="edge"><title>ActiveRecord::Base&#45;&gt;Vertex</title>
<path fill="none" stroke="black" d="M1849.83,-747.921C1743.84,-742.624 1565.32,-726.547 1524.69,-678 1498.74,-646.991 1518.13,-595.521 1530.88,-569.356"/>
</g>
<!-- ActiveRecord::Base&#45;&gt;WorkHour -->
<g id="edge88" class="edge"><title>ActiveRecord::Base&#45;&gt;WorkHour</title>
<path fill="none" stroke="black" d="M2010.8,-749.438C2193.98,-746.375 2628,-735.135 2681.69,-697 2724.07,-666.894 2737.72,-601.553 2741.92,-570.313"/>
</g>
<!-- ActiveRecord::Base&#45;&gt;WorkSchedule -->
<g id="edge92" class="edge"><title>ActiveRecord::Base&#45;&gt;WorkSchedule</title>
<path fill="none" stroke="black" d="M2010.38,-748.848C2183.89,-744.675 2587.41,-731.48 2719.69,-697 2737.06,-692.47 2755.29,-683.983 2769.53,-676.386"/>
</g>
<!-- ActiveRecord::Base&#45;&gt;WorkScheduleGroup -->
<g id="edge93" class="edge"><title>ActiveRecord::Base&#45;&gt;WorkScheduleGroup</title>
<path fill="none" stroke="black" d="M2008.99,-747.247C2153.55,-740.868 2469.5,-724.857 2734.69,-697 2793.63,-690.808 2818.24,-712.148 2866.69,-678 2904,-651.702 2921.93,-597.632 2928.95,-570.028"/>
</g>
</g>
</svg>
